Maitree-400.ufo
<glyph name="exclam" format="1">
  <advance width="314"/>
  <unicode hex="0021"/>
  <note>
	exclam
  </note>
  <outline>
    <contour>
      <point x="182" y="161" type="line"/>
      <point x="202" y="707" type="line"/>
      <point x="112" y="707" type="line"/>
      <point x="133" y="161" type="line"/>
    </contour>
    <contour>
      <point x="183" y="-12"/>
      <point x="204" y="6"/>
      <point x="204" y="35" type="curve" smooth="yes"/>
      <point x="204" y="63"/>
      <point x="183" y="81"/>
      <point x="157" y="81" type="curve" smooth="yes"/>
      <point x="132" y="81"/>
      <point x="111" y="63"/>
      <point x="111" y="35" type="curve" smooth="yes"/>
      <point x="111" y="6"/>
      <point x="132" y="-12"/>
      <point x="157" y="-12" type="curve" smooth="yes"/>
    </contour>
  </outline>
</glyph>
<glyph name="quotedbl" format="1">
  <advance width="333"/>
  <unicode hex="0022"/>
  <note>
	quotedbl
  </note>
  <outline>
    <contour>
      <point x="237" y="467" type="line"/>
      <point x="295" y="701" type="line"/>
      <point x="221" y="707" type="line"/>
      <point x="184" y="467" type="line"/>
    </contour>
    <contour>
      <point x="92" y="467" type="line"/>
      <point x="149" y="701" type="line"/>
      <point x="75" y="707" type="line"/>
      <point x="38" y="467" type="line"/>
    </contour>
  </outline>
</glyph>
<glyph name="numbersign" format="1">
  <advance width="605"/>
  <unicode hex="0023"/>
  <note>
	numbersign
  </note>
  <outline>
    <contour>
      <point x="166" y="0" type="line"/>
      <point x="197" y="166" type="line"/>
      <point x="340" y="166" type="line"/>
      <point x="309" y="0" type="line"/>
      <point x="376" y="0" type="line"/>
      <point x="407" y="166" type="line"/>
      <point x="525" y="166" type="line"/>
      <point x="525" y="220" type="line"/>
      <point x="418" y="220" type="line"/>
      <point x="449" y="385" type="line"/>
      <point x="561" y="385" type="line"/>
      <point x="561" y="439" type="line"/>
      <point x="459" y="439" type="line"/>
      <point x="486" y="582" type="line"/>
      <point x="418" y="582" type="line"/>
      <point x="391" y="439" type="line"/>
      <point x="249" y="439" type="line"/>
      <point x="276" y="582" type="line"/>
      <point x="208" y="582" type="line"/>
      <point x="181" y="439" type="line"/>
      <point x="66" y="439" type="line"/>
      <point x="66" y="385" type="line"/>
      <point x="171" y="385" type="line"/>
      <point x="140" y="220" type="line"/>
      <point x="28" y="220" type="line"/>
      <point x="28" y="166" type="line"/>
      <point x="130" y="166" type="line"/>
      <point x="99" y="0" type="line"/>
    </contour>
    <contour>
      <point x="239" y="385" type="line"/>
      <point x="381" y="385" type="line"/>
      <point x="350" y="220" type="line"/>
      <point x="208" y="220" type="line"/>
    </contour>
  </outline>
</glyph>
<glyph name="dollar" format="1">
  <advance width="685"/>
  <unicode hex="0024"/>
  <note>
	dollar
  </note>
  <outline>
    <contour>
      <point x="330" y="-91" type="line"/>
      <point x="330" y="-12" type="line"/>
      <point x="453" y="-7"/>
      <point x="557" y="43"/>
      <point x="557" y="163" type="curve" smooth="yes"/>
      <point x="557" y="275"/>
      <point x="481" y="324"/>
      <point x="355" y="375" type="curve" smooth="yes"/>
      <point x="230" y="428"/>
      <point x="156" y="458"/>
      <point x="156" y="537" type="curve" smooth="yes"/>
      <point x="156" y="614"/>
      <point x="228" y="643"/>
      <point x="307" y="643" type="curve" smooth="yes"/>
      <point x="368" y="643"/>
      <point x="426" y="628"/>
      <point x="465" y="599" type="curve"/>
      <point x="478" y="536" type="line" smooth="yes"/>
      <point x="484" y="505"/>
      <point x="494" y="496"/>
      <point x="509" y="496" type="curve" smooth="yes"/>
      <point x="518" y="496"/>
      <point x="523" y="502"/>
      <point x="523" y="511" type="curve" smooth="yes"/>
      <point x="523" y="627" type="line"/>
      <point x="479" y="663"/>
      <point x="411" y="688"/>
      <point x="343" y="695" type="curve"/>
      <point x="343" y="778" type="line"/>
      <point x="282" y="778" type="line"/>
      <point x="282" y="696" type="line"/>
      <point x="176" y="691"/>
      <point x="76" y="642"/>
      <point x="76" y="527" type="curve" smooth="yes"/>
      <point x="76" y="422"/>
      <point x="167" y="370"/>
      <point x="284" y="322" type="curve" smooth="yes"/>
      <point x="422" y="266"/>
      <point x="476" y="236"/>
      <point x="476" y="156" type="curve" smooth="yes"/>
      <point x="476" y="69"/>
      <point x="389" y="42"/>
      <point x="304" y="42" type="curve" smooth="yes"/>
      <point x="247" y="42"/>
      <point x="172" y="56"/>
      <point x="131" y="86" type="curve"/>
      <point x="118" y="150" type="line" smooth="yes"/>
      <point x="112" y="180"/>
      <point x="103" y="190"/>
      <point x="88" y="190" type="curve" smooth="yes"/>
      <point x="78" y="190"/>
      <point x="73" y="183"/>
      <point x="73" y="175" type="curve" smooth="yes"/>
      <point x="73" y="54" type="line"/>
      <point x="118" y="18"/>
      <point x="200" y="-3"/>
      <point x="269" y="-10" type="curve"/>
      <point x="269" y="-91" type="line"/>
    </contour>
  </outline>
</glyph>
<glyph name="ampersand" format="1">
  <advance width="710"/>
  <unicode hex="0026"/>
  <note>
	ampersand
  </note>
  <outline>
    <contour>
      <point x="362" y="-12"/>
      <point x="433" y="29"/>
      <point x="478" y="82" type="curve"/>
      <point x="561" y="0" type="line"/>
      <point x="689" y="0" type="line" smooth="yes"/>
      <point x="699" y="0"/>
      <point x="701" y="6"/>
      <point x="701" y="13" type="curve" smooth="yes"/>
      <point x="701" y="26"/>
      <point x="692" y="34"/>
      <point x="673" y="38" type="curve" smooth="yes"/>
      <point x="619" y="49" type="line"/>
      <point x="524" y="142" type="line"/>
      <point x="563" y="202"/>
      <point x="581" y="273"/>
      <point x="589" y="336" type="curve"/>
      <point x="654" y="351" type="line" smooth="yes"/>
      <point x="670" y="355"/>
      <point x="678" y="362"/>
      <point x="678" y="375" type="curve" smooth="yes"/>
      <point x="678" y="382"/>
      <point x="676" y="388"/>
      <point x="666" y="388" type="curve" smooth="yes"/>
      <point x="503" y="388" type="line" smooth="yes"/>
      <point x="480" y="388"/>
      <point x="466" y="378"/>
      <point x="466" y="360" type="curve" smooth="yes"/>
      <point x="466" y="347"/>
      <point x="472" y="339"/>
      <point x="483" y="339" type="curve" smooth="yes"/>
      <point x="537" y="339" type="line"/>
      <point x="531" y="281"/>
      <point x="521" y="226"/>
      <point x="489" y="176" type="curve"/>
      <point x="304" y="358" type="line"/>
      <point x="397" y="397"/>
      <point x="462" y="452"/>
      <point x="462" y="532" type="curve" smooth="yes"/>
      <point x="462" y="619"/>
      <point x="391" y="687"/>
      <point x="280" y="687" type="curve" smooth="yes"/>
      <point x="175" y="687"/>
      <point x="97" y="629"/>
      <point x="97" y="539" type="curve" smooth="yes"/>
      <point x="97" y="470"/>
      <point x="132" y="425"/>
      <point x="193" y="364" type="curve"/>
      <point x="106" y="326"/>
      <point x="43" y="268"/>
      <point x="43" y="173" type="curve" smooth="yes"/>
      <point x="43" y="57"/>
      <point x="144" y="-12"/>
      <point x="269" y="-12" type="curve" smooth="yes"/>
    </contour>
    <contour>
      <point x="193" y="39"/>
      <point x="120" y="84"/>
      <point x="120" y="175" type="curve" smooth="yes"/>
      <point x="120" y="256"/>
      <point x="177" y="299"/>
      <point x="231" y="324" type="curve"/>
      <point x="442" y="118" type="line"/>
      <point x="407" y="76"/>
      <point x="351" y="39"/>
      <point x="276" y="39" type="curve" smooth="yes"/>
    </contour>
    <contour>
      <point x="217" y="437"/>
      <point x="174" y="485"/>
      <point x="174" y="541" type="curve" smooth="yes"/>
      <point x="174" y="604"/>
      <point x="219" y="638"/>
      <point x="280" y="638" type="curve" smooth="yes"/>
      <point x="339" y="638"/>
      <point x="385" y="601"/>
      <point x="385" y="533" type="curve" smooth="yes"/>
      <point x="385" y="470"/>
      <point x="327" y="425"/>
      <point x="264" y="395" type="curve"/>
    </contour>
  </outline>
</glyph>
<glyph name="quotesingle" format="1">
  <advance width="187"/>
  <unicode hex="0027"/>
  <note>
	quotesingle
  </note>
  <outline>
    <contour>
      <point x="92" y="467" type="line"/>
      <point x="149" y="701" type="line"/>
      <point x="75" y="707" type="line"/>
      <point x="38" y="467" type="line"/>
    </contour>
  </outline>
</glyph>
<glyph name="parenleft" format="1">
  <advance width="294"/>
  <unicode hex="0028"/>
  <note>
	parenleft
  </note>
  <outline>
    <contour>
      <point x="244" y="-79" type="line"/>
      <point x="182" y="40"/>
      <point x="131" y="165"/>
      <point x="131" y="350" type="curve" smooth="yes"/>
      <point x="131" y="534"/>
      <point x="182" y="656"/>
      <point x="244" y="775" type="curve"/>
      <point x="172" y="775" type="line"/>
      <point x="102" y="661"/>
      <point x="50" y="520"/>
      <point x="50" y="350" type="curve" smooth="yes"/>
      <point x="50" y="180"/>
      <point x="102" y="35"/>
      <point x="172" y="-79" type="curve"/>
    </contour>
  </outline>
</glyph>
<glyph name="parenright" format="1">
  <advance width="294"/>
  <unicode hex="0029"/>
  <note>
	parenright
  </note>
  <outline>
    <contour>
      <point x="122" y="-79" type="line"/>
      <point x="192" y="35"/>
      <point x="244" y="180"/>
      <point x="244" y="350" type="curve" smooth="yes"/>
      <point x="244" y="520"/>
      <point x="192" y="661"/>
      <point x="122" y="775" type="curve"/>
      <point x="50" y="775" type="line"/>
      <point x="112" y="656"/>
      <point x="163" y="534"/>
      <point x="163" y="350" type="curve" smooth="yes"/>
      <point x="163" y="165"/>
      <point x="112" y="40"/>
      <point x="50" y="-79" type="curve"/>
    </contour>
  </outline>
</glyph>
<glyph name="asterisk" format="1">
  <advance width="390"/>
  <unicode hex="002A"/>
  <note>
	asterisk
  </note>
  <outline>
    <contour>
      <point x="228" y="395" type="line"/>
      <point x="210" y="531" type="line"/>
      <point x="321" y="448" type="line"/>
      <point x="357" y="509" type="line"/>
      <point x="226" y="564" type="line"/>
      <point x="356" y="619" type="line"/>
      <point x="322" y="681" type="line"/>
      <point x="212" y="596" type="line"/>
      <point x="230" y="733" type="line"/>
      <point x="161" y="733" type="line"/>
      <point x="179" y="596" type="line"/>
      <point x="63" y="681" type="line"/>
      <point x="33" y="618" type="line"/>
      <point x="163" y="564" type="line"/>
      <point x="33" y="510" type="line"/>
      <point x="67" y="451" type="line"/>
      <point x="179" y="531" type="line"/>
      <point x="161" y="395" type="line"/>
    </contour>
  </outline>
</glyph>
<glyph name="plus" format="1">
  <advance width="605"/>
  <unicode hex="002B"/>
  <note>
	plus
  </note>
  <outline>
    <contour>
      <point x="341" y="96" type="line"/>
      <point x="341" y="301" type="line"/>
      <point x="545" y="301" type="line"/>
      <point x="545" y="364" type="line"/>
      <point x="341" y="364" type="line"/>
      <point x="341" y="572" type="line"/>
      <point x="264" y="572" type="line"/>
      <point x="264" y="364" type="line"/>
      <point x="60" y="364" type="line"/>
      <point x="60" y="301" type="line"/>
      <point x="264" y="301" type="line"/>
      <point x="264" y="96" type="line"/>
    </contour>
  </outline>
</glyph>
<glyph name="comma" format="1">
  <advance width="299"/>
  <unicode hex="002C"/>
  <note>
	comma
  </note>
  <outline>
    <contour>
      <point x="160" y="-67"/>
      <point x="200" y="23"/>
      <point x="216" y="92" type="curve"/>
      <point x="128" y="111" type="line" smooth="yes"/>
      <point x="104" y="116"/>
      <point x="87" y="106"/>
      <point x="87" y="85" type="curve" smooth="yes"/>
      <point x="87" y="75"/>
      <point x="92" y="70"/>
      <point x="100" y="68" type="curve" smooth="yes"/>
      <point x="133" y="57" type="line"/>
      <point x="129" y="16"/>
      <point x="98" y="-59"/>
      <point x="68" y="-102" type="curve"/>
      <point x="110" y="-127" type="line"/>
    </contour>
  </outline>
</glyph>
<glyph name="hyphen" format="1">
  <advance width="321"/>
  <unicode hex="002D"/>
  <note>
	hyphen
  </note>
  <outline>
    <contour>
      <point x="296" y="288" type="line"/>
      <point x="296" y="352" type="line"/>
      <point x="26" y="352" type="line"/>
      <point x="26" y="288" type="line"/>
    </contour>
  </outline>
</glyph>
<glyph name="period" format="1">
  <advance width="251"/>
  <unicode hex="002E"/>
  <note>
	period
  </note>
  <outline>
    <contour>
      <point x="154" y="-12"/>
      <point x="178" y="10"/>
      <point x="178" y="41" type="curve" smooth="yes"/>
      <point x="178" y="71"/>
      <point x="154" y="93"/>
      <point x="126" y="93" type="curve" smooth="yes"/>
      <point x="97" y="93"/>
      <point x="73" y="71"/>
      <point x="73" y="41" type="curve" smooth="yes"/>
      <point x="73" y="10"/>
      <point x="97" y="-12"/>
      <point x="126" y="-12" type="curve" smooth="yes"/>
    </contour>
  </outline>
</glyph>
<glyph name="slash" format="1">
  <advance width="366"/>
  <unicode hex="002F"/>
  <note>
	slash
  </note>
  <outline>
    <contour>
      <point x="388" y="717" type="line"/>
      <point x="318" y="744" type="line"/>
      <point x="-27" y="-106" type="line"/>
      <point x="42" y="-133" type="line"/>
    </contour>
  </outline>
</glyph>
<glyph name="zero" format="1">
  <advance width="709"/>
  <unicode hex="0030"/>
  <note>
	zero
  </note>
  <outline>
    <contour>
      <point x="543" y="-12"/>
      <point x="651" y="136"/>
      <point x="651" y="342" type="curve" smooth="yes"/>
      <point x="651" y="548"/>
      <point x="543" y="697"/>
      <point x="355" y="697" type="curve" smooth="yes"/>
      <point x="167" y="697"/>
      <point x="58" y="548"/>
      <point x="58" y="342" type="curve" smooth="yes"/>
      <point x="58" y="136"/>
      <point x="167" y="-12"/>
      <point x="355" y="-12" type="curve" smooth="yes"/>
    </contour>
    <contour>
      <point x="219" y="42"/>
      <point x="139" y="164"/>
      <point x="139" y="342" type="curve" smooth="yes"/>
      <point x="139" y="520"/>
      <point x="219" y="643"/>
      <point x="354" y="643" type="curve" smooth="yes"/>
      <point x="490" y="643"/>
      <point x="570" y="520"/>
      <point x="570" y="342" type="curve" smooth="yes"/>
      <point x="570" y="164"/>
      <point x="490" y="42"/>
      <point x="354" y="42" type="curve" smooth="yes"/>
    </contour>
  </outline>
</glyph>
<glyph name="one" format="1">
  <advance width="435"/>
  <unicode hex="0031"/>
  <note>
	one
  </note>
  <outline>
    <contour>
      <point x="360" y="0" type="line" smooth="yes"/>
      <point x="369" y="0"/>
      <point x="372" y="8"/>
      <point x="372" y="15" type="curve" smooth="yes"/>
      <point x="372" y="27"/>
      <point x="365" y="37"/>
      <point x="339" y="40" type="curve" smooth="yes"/>
      <point x="258" y="50" type="line"/>
      <point x="258" y="685" type="line"/>
      <point x="179" y="685" type="line"/>
      <point x="92" y="658" type="line" smooth="yes"/>
      <point x="72" y="652"/>
      <point x="60" y="642"/>
      <point x="60" y="623" type="curve" smooth="yes"/>
      <point x="60" y="609"/>
      <point x="69" y="602"/>
      <point x="79" y="602" type="curve"/>
      <point x="178" y="632" type="line"/>
      <point x="178" y="51" type="line"/>
      <point x="91" y="51" type="line" smooth="yes"/>
      <point x="68" y="51"/>
      <point x="54" y="40"/>
      <point x="54" y="22" type="curve" smooth="yes"/>
      <point x="54" y="9"/>
      <point x="60" y="0"/>
      <point x="71" y="0" type="curve" smooth="yes"/>
    </contour>
  </outline>
</glyph>
<glyph name="two" format="1">
  <advance width="583"/>
  <unicode hex="0032"/>
  <note>
	two
  </note>
  <outline>
    <contour>
      <point x="520" y="0" type="line"/>
      <point x="520" y="54" type="line"/>
      <point x="160" y="54" type="line"/>
      <point x="160" y="58" type="line"/>
      <point x="358" y="258" type="line" smooth="yes"/>
      <point x="447" y="349"/>
      <point x="507" y="427"/>
      <point x="507" y="513" type="curve" smooth="yes"/>
      <point x="507" y="636"/>
      <point x="421" y="695"/>
      <point x="304" y="695" type="curve" smooth="yes"/>
      <point x="225" y="695"/>
      <point x="144" y="667"/>
      <point x="82" y="626" type="curve"/>
      <point x="82" y="508" type="line" smooth="yes"/>
      <point x="82" y="500"/>
      <point x="87" y="493"/>
      <point x="97" y="493" type="curve" smooth="yes"/>
      <point x="113" y="493"/>
      <point x="121" y="502"/>
      <point x="128" y="535" type="curve" smooth="yes"/>
      <point x="142" y="599" type="line"/>
      <point x="182" y="624"/>
      <point x="236" y="640"/>
      <point x="292" y="640" type="curve" smooth="yes"/>
      <point x="365" y="640"/>
      <point x="424" y="603"/>
      <point x="424" y="518" type="curve" smooth="yes"/>
      <point x="424" y="444"/>
      <point x="367" y="378"/>
      <point x="304" y="314" type="curve" smooth="yes"/>
      <point x="65" y="70" type="line"/>
      <point x="65" y="0" type="line"/>
    </contour>
  </outline>
</glyph>
<glyph name="three" format="1">
  <advance width="585"/>
  <unicode hex="0033"/>
  <note>
	three
  </note>
  <outline>
    <contour>
      <point x="412" y="-10"/>
      <point x="515" y="57"/>
      <point x="515" y="182" type="curve" smooth="yes"/>
      <point x="515" y="273"/>
      <point x="452" y="343"/>
      <point x="345" y="358" type="curve"/>
      <point x="434" y="383"/>
      <point x="490" y="443"/>
      <point x="490" y="528" type="curve" smooth="yes"/>
      <point x="490" y="645"/>
      <point x="394" y="695"/>
      <point x="289" y="695" type="curve" smooth="yes"/>
      <point x="209" y="695"/>
      <point x="127" y="667"/>
      <point x="65" y="626" type="curve"/>
      <point x="65" y="508" type="line" smooth="yes"/>
      <point x="65" y="500"/>
      <point x="70" y="493"/>
      <point x="80" y="493" type="curve" smooth="yes"/>
      <point x="95" y="493"/>
      <point x="104" y="502"/>
      <point x="111" y="535" type="curve" smooth="yes"/>
      <point x="124" y="599" type="line"/>
      <point x="165" y="624"/>
      <point x="219" y="640"/>
      <point x="274" y="640" type="curve" smooth="yes"/>
      <point x="351" y="640"/>
      <point x="409" y="603"/>
      <point x="409" y="520" type="curve" smooth="yes"/>
      <point x="409" y="432"/>
      <point x="335" y="389"/>
      <point x="248" y="378" type="curve" smooth="yes"/>
      <point x="172" y="368" type="line"/>
      <point x="172" y="313" type="line"/>
      <point x="237" y="322"/>
      <point x="257" y="325"/>
      <point x="279" y="325" type="curve" smooth="yes"/>
      <point x="371" y="325"/>
      <point x="434" y="266"/>
      <point x="434" y="188" type="curve" smooth="yes"/>
      <point x="434" y="96"/>
      <point x="372" y="44"/>
      <point x="256" y="44" type="curve" smooth="yes"/>
      <point x="189" y="44"/>
      <point x="113" y="62"/>
      <point x="55" y="86" type="curve"/>
      <point x="55" y="29" type="line"/>
      <point x="104" y="8"/>
      <point x="183" y="-10"/>
      <point x="263" y="-10" type="curve" smooth="yes"/>
    </contour>
  </outline>
</glyph>
<glyph name="four" format="1">
  <advance width="621"/>
  <unicode hex="0034"/>
  <note>
	four
  </note>
  <outline>
    <contour>
      <point x="466" y="0" type="line"/>
      <point x="466" y="161" type="line"/>
      <point x="564" y="161" type="line"/>
      <point x="564" y="216" type="line"/>
      <point x="466" y="216" type="line"/>
      <point x="466" y="685" type="line"/>
      <point x="365" y="685" type="line"/>
      <point x="38" y="223" type="line"/>
      <point x="38" y="161" type="line"/>
      <point x="386" y="161" type="line"/>
      <point x="386" y="0" type="line"/>
    </contour>
    <contour>
      <point x="386" y="616" type="line"/>
      <point x="386" y="216" type="line"/>
      <point x="104" y="216" type="line"/>
    </contour>
  </outline>
</glyph>
<glyph name="five" format="1">
  <advance width="544"/>
  <unicode hex="0035"/>
  <note>
	five
  </note>
  <outline>
    <contour>
      <point x="387" y="-10"/>
      <point x="496" y="60"/>
      <point x="496" y="203" type="curve" smooth="yes"/>
      <point x="496" y="346"/>
      <point x="395" y="413"/>
      <point x="274" y="413" type="curve" smooth="yes"/>
      <point x="236" y="413"/>
      <point x="188" y="406"/>
      <point x="151" y="396" type="curve"/>
      <point x="170" y="631" type="line"/>
      <point x="443" y="631" type="line"/>
      <point x="443" y="685" type="line"/>
      <point x="96" y="685" type="line"/>
      <point x="70" y="373" type="line"/>
      <point x="108" y="339" type="line"/>
      <point x="154" y="350"/>
      <point x="198" y="358"/>
      <point x="244" y="358" type="curve" smooth="yes"/>
      <point x="339" y="358"/>
      <point x="415" y="315"/>
      <point x="415" y="197" type="curve" smooth="yes"/>
      <point x="415" y="94"/>
      <point x="339" y="44"/>
      <point x="238" y="44" type="curve" smooth="yes"/>
      <point x="171" y="44"/>
      <point x="101" y="63"/>
      <point x="48" y="85" type="curve"/>
      <point x="48" y="28" type="line"/>
      <point x="101" y="6"/>
      <point x="171" y="-10"/>
      <point x="248" y="-10" type="curve" smooth="yes"/>
    </contour>
  </outline>
</glyph>
<glyph name="six" format="1">
  <advance width="585"/>
  <unicode hex="0036"/>
  <note>
	six
  </note>
  <outline>
    <contour>
      <point x="425" y="-10"/>
      <point x="528" y="68"/>
      <point x="528" y="214" type="curve" smooth="yes"/>
      <point x="528" y="335"/>
      <point x="451" y="412"/>
      <point x="321" y="412" type="curve" smooth="yes"/>
      <point x="247" y="412"/>
      <point x="186" y="383"/>
      <point x="138" y="350" type="curve"/>
      <point x="138" y="540"/>
      <point x="233" y="642"/>
      <point x="384" y="642" type="curve" smooth="yes"/>
      <point x="409" y="642"/>
      <point x="432" y="639"/>
      <point x="457" y="633" type="curve"/>
      <point x="457" y="685" type="line"/>
      <point x="433" y="691"/>
      <point x="408" y="695"/>
      <point x="381" y="695" type="curve" smooth="yes"/>
      <point x="160" y="695"/>
      <point x="58" y="534"/>
      <point x="58" y="323" type="curve" smooth="yes"/>
      <point x="58" y="120"/>
      <point x="137" y="-10"/>
      <point x="304" y="-10" type="curve" smooth="yes"/>
    </contour>
    <contour>
      <point x="193" y="44"/>
      <point x="139" y="149"/>
      <point x="139" y="294" type="curve"/>
      <point x="179" y="327"/>
      <point x="246" y="357"/>
      <point x="301" y="357" type="curve" smooth="yes"/>
      <point x="390" y="357"/>
      <point x="447" y="313"/>
      <point x="447" y="212" type="curve" smooth="yes"/>
      <point x="447" y="111"/>
      <point x="386" y="44"/>
      <point x="300" y="44" type="curve" smooth="yes"/>
    </contour>
  </outline>
</glyph>
<glyph name="seven" format="1">
  <advance width="556"/>
  <unicode hex="0037"/>
  <note>
	seven
  </note>
  <outline>
    <contour>
      <point x="251" y="0" type="line"/>
      <point x="509" y="637" type="line"/>
      <point x="509" y="685" type="line"/>
      <point x="48" y="685" type="line"/>
      <point x="48" y="563" type="line" smooth="yes"/>
      <point x="48" y="554"/>
      <point x="53" y="548"/>
      <point x="63" y="548" type="curve" smooth="yes"/>
      <point x="78" y="548"/>
      <point x="87" y="561"/>
      <point x="91" y="581" type="curve" smooth="yes"/>
      <point x="101" y="632" type="line"/>
      <point x="420" y="632" type="line"/>
      <point x="162" y="0" type="line"/>
    </contour>
  </outline>
</glyph>
<glyph name="eight" format="1">
  <advance width="619"/>
  <unicode hex="0038"/>
  <note>
	eight
  </note>
  <outline>
    <contour>
      <point x="453" y="-11"/>
      <point x="551" y="62"/>
      <point x="551" y="175" type="curve" smooth="yes"/>
      <point x="551" y="245"/>
      <point x="505" y="303"/>
      <point x="382" y="360" type="curve"/>
      <point x="481" y="412"/>
      <point x="524" y="468"/>
      <point x="524" y="536" type="curve" smooth="yes"/>
      <point x="524" y="628"/>
      <point x="445" y="696"/>
      <point x="311" y="696" type="curve" smooth="yes"/>
      <point x="180" y="696"/>
      <point x="94" y="627"/>
      <point x="94" y="536" type="curve" smooth="yes"/>
      <point x="94" y="462"/>
      <point x="143" y="409"/>
      <point x="237" y="359" type="curve"/>
      <point x="126" y="310"/>
      <point x="68" y="244"/>
      <point x="68" y="171" type="curve" smooth="yes"/>
      <point x="68" y="56"/>
      <point x="167" y="-11"/>
      <point x="310" y="-11" type="curve" smooth="yes"/>
    </contour>
    <contour>
      <point x="213" y="43"/>
      <point x="146" y="89"/>
      <point x="146" y="169" type="curve" smooth="yes"/>
      <point x="146" y="240"/>
      <point x="215" y="289"/>
      <point x="308" y="327" type="curve"/>
      <point x="404" y="287"/>
      <point x="469" y="239"/>
      <point x="469" y="171" type="curve" smooth="yes"/>
      <point x="469" y="90"/>
      <point x="401" y="43"/>
      <point x="308" y="43" type="curve" smooth="yes"/>
    </contour>
    <contour>
      <point x="235" y="431"/>
      <point x="175" y="470"/>
      <point x="175" y="535" type="curve" smooth="yes"/>
      <point x="175" y="604"/>
      <point x="234" y="642"/>
      <point x="310" y="642" type="curve" smooth="yes"/>
      <point x="388" y="642"/>
      <point x="447" y="604"/>
      <point x="447" y="535" type="curve" smooth="yes"/>
      <point x="447" y="473"/>
      <point x="392" y="428"/>
      <point x="313" y="391" type="curve"/>
    </contour>
  </outline>
</glyph>
<glyph name="nine" format="1">
  <advance width="585"/>
  <unicode hex="0039"/>
  <note>
	nine
  </note>
  <outline>
    <contour>
      <point x="428" y="-10"/>
      <point x="528" y="145"/>
      <point x="528" y="362" type="curve" smooth="yes"/>
      <point x="528" y="569"/>
      <point x="455" y="695"/>
      <point x="290" y="695" type="curve" smooth="yes"/>
      <point x="163" y="695"/>
      <point x="58" y="614"/>
      <point x="58" y="467" type="curve" smooth="yes"/>
      <point x="58" y="334"/>
      <point x="153" y="253"/>
      <point x="277" y="253" type="curve" smooth="yes"/>
      <point x="344" y="253"/>
      <point x="403" y="279"/>
      <point x="448" y="318" type="curve"/>
      <point x="446" y="130"/>
      <point x="351" y="43"/>
      <point x="208" y="43" type="curve" smooth="yes"/>
      <point x="181" y="43"/>
      <point x="151" y="47"/>
      <point x="125" y="54" type="curve"/>
      <point x="125" y="1" type="line"/>
      <point x="148" y="-6"/>
      <point x="186" y="-10"/>
      <point x="216" y="-10" type="curve" smooth="yes"/>
    </contour>
    <contour>
      <point x="204" y="308"/>
      <point x="139" y="360"/>
      <point x="139" y="469" type="curve" smooth="yes"/>
      <point x="139" y="574"/>
      <point x="202" y="641"/>
      <point x="294" y="641" type="curve" smooth="yes"/>
      <point x="400" y="641"/>
      <point x="447" y="532"/>
      <point x="447" y="377" type="curve"/>
      <point x="402" y="336"/>
      <point x="350" y="308"/>
      <point x="290" y="308" type="curve" smooth="yes"/>
    </contour>
  </outline>
</glyph>
<glyph name="colon" format="1">
  <advance width="261"/>
  <unicode hex="003A"/>
  <note>
	colon
  </note>
  <outline>
    <contour>
      <point x="162" y="392"/>
      <point x="188" y="415"/>
      <point x="188" y="449" type="curve" smooth="yes"/>
      <point x="188" y="483"/>
      <point x="162" y="506"/>
      <point x="130" y="506" type="curve" smooth="yes"/>
      <point x="99" y="506"/>
      <point x="73" y="483"/>
      <point x="73" y="449" type="curve" smooth="yes"/>
      <point x="73" y="415"/>
      <point x="99" y="392"/>
      <point x="130" y="392" type="curve" smooth="yes"/>
    </contour>
    <contour>
      <point x="162" y="32"/>
      <point x="188" y="55"/>
      <point x="188" y="89" type="curve" smooth="yes"/>
      <point x="188" y="123"/>
      <point x="162" y="146"/>
      <point x="130" y="146" type="curve" smooth="yes"/>
      <point x="99" y="146"/>
      <point x="73" y="123"/>
      <point x="73" y="89" type="curve" smooth="yes"/>
      <point x="73" y="55"/>
      <point x="99" y="32"/>
      <point x="130" y="32" type="curve" smooth="yes"/>
    </contour>
  </outline>
</glyph>
<glyph name="semicolon" format="1">
  <advance width="261"/>
  <unicode hex="003B"/>
  <note>
	semicolon
  </note>
  <outline>
    <contour>
      <point x="133" y="-67"/>
      <point x="177" y="23"/>
      <point x="193" y="92" type="curve"/>
      <point x="105" y="111" type="line" smooth="yes"/>
      <point x="81" y="116"/>
      <point x="64" y="106"/>
      <point x="64" y="85" type="curve" smooth="yes"/>
      <point x="64" y="75"/>
      <point x="69" y="70"/>
      <point x="77" y="68" type="curve"/>
      <point x="110" y="57" type="line"/>
      <point x="106" y="16"/>
      <point x="73" y="-57"/>
      <point x="45" y="-98" type="curve"/>
      <point x="87" y="-123" type="line"/>
    </contour>
    <contour>
      <point x="167" y="392"/>
      <point x="193" y="415"/>
      <point x="193" y="449" type="curve" smooth="yes"/>
      <point x="193" y="483"/>
      <point x="167" y="506"/>
      <point x="135" y="506" type="curve" smooth="yes"/>
      <point x="104" y="506"/>
      <point x="78" y="483"/>
      <point x="78" y="449" type="curve" smooth="yes"/>
      <point x="78" y="415"/>
      <point x="104" y="392"/>
      <point x="135" y="392" type="curve" smooth="yes"/>
    </contour>
  </outline>
</glyph>
<glyph name="less" format="1">
  <advance width="564"/>
  <unicode hex="003C"/>
  <note>
	less
  </note>
  <outline>
    <contour>
      <point x="491" y="82" type="line"/>
      <point x="138" y="295" type="line"/>
      <point x="491" y="508" type="line"/>
      <point x="460" y="567" type="line"/>
      <point x="63" y="327" type="line"/>
      <point x="63" y="263" type="line"/>
      <point x="460" y="23" type="line"/>
    </contour>
  </outline>
</glyph>
<glyph name="equal" format="1">
  <advance width="564"/>
  <unicode hex="003D"/>
  <note>
	equal
  </note>
  <outline>
    <contour>
      <point x="504" y="376" type="line"/>
      <point x="504" y="437" type="line"/>
      <point x="60" y="437" type="line"/>
      <point x="60" y="376" type="line"/>
    </contour>
    <contour>
      <point x="504" y="192" type="line"/>
      <point x="504" y="253" type="line"/>
      <point x="60" y="253" type="line"/>
      <point x="60" y="192" type="line"/>
    </contour>
  </outline>
</glyph>
<glyph name="greater" format="1">
  <advance width="564"/>
  <unicode hex="003E"/>
  <note>
	greater
  </note>
  <outline>
    <contour>
      <point x="501" y="263" type="line"/>
      <point x="501" y="327" type="line"/>
      <point x="104" y="567" type="line"/>
      <point x="73" y="508" type="line"/>
      <point x="426" y="295" type="line"/>
      <point x="73" y="82" type="line"/>
      <point x="104" y="23" type="line"/>
    </contour>
  </outline>
</glyph>
<glyph name="question" format="1">
  <advance width="473"/>
  <unicode hex="003F"/>
  <note>
	question
  </note>
  <outline>
    <contour>
      <point x="264" y="161" type="line"/>
      <point x="264" y="260" type="line" smooth="yes"/>
      <point x="264" y="337"/>
      <point x="281" y="362"/>
      <point x="333" y="412" type="curve" smooth="yes"/>
      <point x="375" y="451"/>
      <point x="421" y="497"/>
      <point x="421" y="574" type="curve" smooth="yes"/>
      <point x="421" y="667"/>
      <point x="352" y="717"/>
      <point x="249" y="717" type="curve" smooth="yes"/>
      <point x="182" y="717"/>
      <point x="116" y="688"/>
      <point x="78" y="657" type="curve"/>
      <point x="78" y="569" type="line" smooth="yes"/>
      <point x="78" y="561"/>
      <point x="83" y="556"/>
      <point x="93" y="556" type="curve" smooth="yes"/>
      <point x="107" y="556"/>
      <point x="114" y="565"/>
      <point x="118" y="584" type="curve" smooth="yes"/>
      <point x="127" y="632" type="line"/>
      <point x="160" y="654"/>
      <point x="204" y="666"/>
      <point x="243" y="666" type="curve" smooth="yes"/>
      <point x="306" y="666"/>
      <point x="349" y="631"/>
      <point x="349" y="571" type="curve" smooth="yes"/>
      <point x="349" y="511"/>
      <point x="315" y="475"/>
      <point x="278" y="439" type="curve" smooth="yes"/>
      <point x="227" y="389"/>
      <point x="197" y="353"/>
      <point x="197" y="275" type="curve" smooth="yes"/>
      <point x="197" y="161" type="line"/>
    </contour>
    <contour>
      <point x="256" y="-12"/>
      <point x="277" y="6"/>
      <point x="277" y="35" type="curve" smooth="yes"/>
      <point x="277" y="63"/>
      <point x="256" y="81"/>
      <point x="230" y="81" type="curve" smooth="yes"/>
      <point x="205" y="81"/>
      <point x="184" y="63"/>
      <point x="184" y="35" type="curve" smooth="yes"/>
      <point x="184" y="6"/>
      <point x="205" y="-12"/>
      <point x="230" y="-12" type="curve" smooth="yes"/>
    </contour>
  </outline>
</glyph>
<glyph name="at" format="1">
  <advance width="869"/>
  <unicode hex="0040"/>
  <note>
	at
  </note>
  <outline>
    <contour>
      <point x="500" y="-92"/>
      <point x="578" y="-75"/>
      <point x="644" y="-52" type="curve"/>
      <point x="644" y="5" type="line"/>
      <point x="561" y="-25"/>
      <point x="491" y="-36"/>
      <point x="428" y="-36" type="curve" smooth="yes"/>
      <point x="233" y="-36"/>
      <point x="111" y="77"/>
      <point x="111" y="281" type="curve" smooth="yes"/>
      <point x="111" y="511"/>
      <point x="255" y="662"/>
      <point x="478" y="662" type="curve" smooth="yes"/>
      <point x="657" y="662"/>
      <point x="781" y="541"/>
      <point x="781" y="359" type="curve" smooth="yes"/>
      <point x="781" y="240"/>
      <point x="736" y="162"/>
      <point x="675" y="162" type="curve" smooth="yes"/>
      <point x="634" y="162"/>
      <point x="603" y="191"/>
      <point x="602" y="244" type="curve"/>
      <point x="618" y="494" type="line"/>
      <point x="567" y="509"/>
      <point x="511" y="519"/>
      <point x="465" y="519" type="curve" smooth="yes"/>
      <point x="338" y="519"/>
      <point x="259" y="426"/>
      <point x="259" y="293" type="curve" smooth="yes"/>
      <point x="259" y="167"/>
      <point x="325" y="106"/>
      <point x="423" y="106" type="curve" smooth="yes"/>
      <point x="478" y="106"/>
      <point x="527" y="132"/>
      <point x="564" y="184" type="curve"/>
      <point x="581" y="135"/>
      <point x="624" y="106"/>
      <point x="674" y="106" type="curve" smooth="yes"/>
      <point x="772" y="106"/>
      <point x="841" y="221"/>
      <point x="841" y="358" type="curve" smooth="yes"/>
      <point x="841" y="579"/>
      <point x="689" y="717"/>
      <point x="469" y="717" type="curve" smooth="yes"/>
      <point x="216" y="717"/>
      <point x="50" y="531"/>
      <point x="50" y="278" type="curve" smooth="yes"/>
      <point x="50" y="41"/>
      <point x="198" y="-92"/>
      <point x="428" y="-92" type="curve" smooth="yes"/>
    </contour>
    <contour>
      <point x="357" y="162"/>
      <point x="320" y="205"/>
      <point x="320" y="291" type="curve" smooth="yes"/>
      <point x="320" y="399"/>
      <point x="378" y="463"/>
      <point x="466" y="463" type="curve" smooth="yes"/>
      <point x="490" y="463"/>
      <point x="523" y="461"/>
      <point x="556" y="452" type="curve"/>
      <point x="541" y="235" type="line"/>
      <point x="515" y="193"/>
      <point x="484" y="162"/>
      <point x="424" y="162" type="curve" smooth="yes"/>
    </contour>
  </outline>
</glyph>
<glyph name="A" format="1">
  <advance width="711"/>
  <unicode hex="0041"/>
  <note>
	A
  </note>
  <outline>
    <contour>
      <point x="213" y="0" type="line" smooth="yes"/>
      <point x="221" y="0"/>
      <point x="224" y="6"/>
      <point x="224" y="14" type="curve" smooth="yes"/>
      <point x="224" y="26"/>
      <point x="217" y="34"/>
      <point x="196" y="38" type="curve" smooth="yes"/>
      <point x="137" y="50" type="line"/>
      <point x="200" y="227" type="line"/>
      <point x="487" y="227" type="line"/>
      <point x="551" y="49" type="line"/>
      <point x="510" y="49" type="line" smooth="yes"/>
      <point x="487" y="49"/>
      <point x="473" y="39"/>
      <point x="473" y="21" type="curve" smooth="yes"/>
      <point x="473" y="8"/>
      <point x="480" y="0"/>
      <point x="490" y="0" type="curve" smooth="yes"/>
      <point x="693" y="0" type="line" smooth="yes"/>
      <point x="701" y="0"/>
      <point x="704" y="7"/>
      <point x="704" y="15" type="curve" smooth="yes"/>
      <point x="704" y="28"/>
      <point x="695" y="36"/>
      <point x="676" y="40" type="curve" smooth="yes"/>
      <point x="632" y="50" type="line"/>
      <point x="399" y="695" type="line"/>
      <point x="307" y="695" type="line"/>
      <point x="74" y="49" type="line"/>
      <point x="44" y="49" type="line" smooth="yes"/>
      <point x="22" y="49"/>
      <point x="8" y="39"/>
      <point x="8" y="21" type="curve" smooth="yes"/>
      <point x="8" y="8"/>
      <point x="14" y="0"/>
      <point x="25" y="0" type="curve" smooth="yes"/>
    </contour>
    <contour>
      <point x="343" y="627" type="line"/>
      <point x="467" y="281" type="line"/>
      <point x="219" y="281" type="line"/>
    </contour>
  </outline>
</glyph>
<glyph name="B" format="1">
  <advance width="685"/>
  <unicode hex="0042"/>
  <note>
	B
  </note>
  <outline>
    <contour>
      <point x="401" y="0" type="line" smooth="yes"/>
      <point x="537" y="0"/>
      <point x="627" y="65"/>
      <point x="627" y="191" type="curve" smooth="yes"/>
      <point x="627" y="282"/>
      <point x="571" y="341"/>
      <point x="485" y="365" type="curve"/>
      <point x="485" y="369" type="line"/>
      <point x="547" y="393"/>
      <point x="586" y="442"/>
      <point x="586" y="514" type="curve" smooth="yes"/>
      <point x="586" y="634"/>
      <point x="499" y="695"/>
      <point x="364" y="695" type="curve" smooth="yes"/>
      <point x="72" y="695" type="line" smooth="yes"/>
      <point x="64" y="695"/>
      <point x="58" y="689"/>
      <point x="58" y="678" type="curve" smooth="yes"/>
      <point x="58" y="661"/>
      <point x="71" y="652"/>
      <point x="96" y="647" type="curve" smooth="yes"/>
      <point x="129" y="641" type="line"/>
      <point x="129" y="54" type="line"/>
      <point x="96" y="48" type="line" smooth="yes"/>
      <point x="70" y="43"/>
      <point x="58" y="34"/>
      <point x="58" y="17" type="curve" smooth="yes"/>
      <point x="58" y="6"/>
      <point x="64" y="0"/>
      <point x="72" y="0" type="curve" smooth="yes"/>
    </contour>
    <contour>
      <point x="208" y="334" type="line"/>
      <point x="397" y="334" type="line" smooth="yes"/>
      <point x="493" y="334"/>
      <point x="546" y="277"/>
      <point x="546" y="193" type="curve" smooth="yes"/>
      <point x="546" y="107"/>
      <point x="495" y="53"/>
      <point x="389" y="53" type="curve" smooth="yes"/>
      <point x="208" y="53" type="line"/>
    </contour>
    <contour>
      <point x="208" y="642" type="line"/>
      <point x="359" y="642" type="line" smooth="yes"/>
      <point x="453" y="642"/>
      <point x="505" y="594"/>
      <point x="505" y="513" type="curve" smooth="yes"/>
      <point x="505" y="433"/>
      <point x="451" y="386"/>
      <point x="377" y="386" type="curve" smooth="yes"/>
      <point x="208" y="386" type="line"/>
    </contour>
  </outline>
</glyph>
<glyph name="C" format="1">
  <advance width="654"/>
  <unicode hex="0043"/>
  <note>
	C
  </note>
  <outline>
    <contour>
      <point x="467" y="-12"/>
      <point x="533" y="10"/>
      <point x="572" y="34" type="curve" smooth="yes"/>
      <point x="587" y="43"/>
      <point x="601" y="55"/>
      <point x="601" y="71" type="curve" smooth="yes"/>
      <point x="601" y="85"/>
      <point x="591" y="96"/>
      <point x="579" y="96" type="curve" smooth="yes"/>
      <point x="571" y="96"/>
      <point x="567" y="92"/>
      <point x="555" y="84" type="curve" smooth="yes"/>
      <point x="510" y="54"/>
      <point x="453" y="43"/>
      <point x="392" y="43" type="curve" smooth="yes"/>
      <point x="237" y="43"/>
      <point x="128" y="152"/>
      <point x="128" y="348" type="curve" smooth="yes"/>
      <point x="128" y="543"/>
      <point x="229" y="652"/>
      <point x="383" y="652" type="curve" smooth="yes"/>
      <point x="445" y="652"/>
      <point x="502" y="636"/>
      <point x="537" y="610" type="curve"/>
      <point x="551" y="541" type="line" smooth="yes"/>
      <point x="556" y="516"/>
      <point x="564" y="505"/>
      <point x="580" y="505" type="curve" smooth="yes"/>
      <point x="592" y="505"/>
      <point x="595" y="512"/>
      <point x="595" y="520" type="curve" smooth="yes"/>
      <point x="595" y="634" type="line"/>
      <point x="544" y="677"/>
      <point x="463" y="707"/>
      <point x="372" y="707" type="curve" smooth="yes"/>
      <point x="190" y="707"/>
      <point x="47" y="585"/>
      <point x="47" y="348" type="curve" smooth="yes"/>
      <point x="47" y="110"/>
      <point x="192" y="-12"/>
      <point x="384" y="-12" type="curve" smooth="yes"/>
    </contour>
  </outline>
</glyph>
<glyph name="D" format="1">
  <advance width="737"/>
  <unicode hex="0044"/>
  <note>
	D
  </note>
  <outline>
    <contour>
      <point x="358" y="0" type="line" smooth="yes"/>
      <point x="545" y="0"/>
      <point x="689" y="108"/>
      <point x="689" y="347" type="curve" smooth="yes"/>
      <point x="689" y="585"/>
      <point x="545" y="695"/>
      <point x="358" y="695" type="curve" smooth="yes"/>
      <point x="72" y="695" type="line" smooth="yes"/>
      <point x="64" y="695"/>
      <point x="58" y="689"/>
      <point x="58" y="678" type="curve" smooth="yes"/>
      <point x="58" y="661"/>
      <point x="70" y="652"/>
      <point x="96" y="647" type="curve" smooth="yes"/>
      <point x="129" y="641" type="line"/>
      <point x="129" y="54" type="line"/>
      <point x="96" y="48" type="line" smooth="yes"/>
      <point x="70" y="43"/>
      <point x="58" y="34"/>
      <point x="58" y="17" type="curve" smooth="yes"/>
      <point x="58" y="6"/>
      <point x="64" y="0"/>
      <point x="72" y="0" type="curve" smooth="yes"/>
    </contour>
    <contour>
      <point x="208" y="641" type="line"/>
      <point x="358" y="641" type="line" smooth="yes"/>
      <point x="513" y="641"/>
      <point x="607" y="533"/>
      <point x="607" y="347" type="curve" smooth="yes"/>
      <point x="607" y="160"/>
      <point x="513" y="54"/>
      <point x="358" y="54" type="curve" smooth="yes"/>
      <point x="208" y="54" type="line"/>
    </contour>
  </outline>
</glyph>
<glyph name="E" format="1">
  <advance width="684"/>
  <unicode hex="0045"/>
  <note>
	E
  </note>
  <outline>
    <contour>
      <point x="614" y="0" type="line"/>
      <point x="614" y="130" type="line" smooth="yes"/>
      <point x="614" y="139"/>
      <point x="610" y="145"/>
      <point x="599" y="145" type="curve" smooth="yes"/>
      <point x="586" y="145"/>
      <point x="576" y="133"/>
      <point x="571" y="104" type="curve" smooth="yes"/>
      <point x="562" y="53" type="line"/>
      <point x="209" y="53" type="line"/>
      <point x="209" y="329" type="line"/>
      <point x="495" y="329" type="line"/>
      <point x="506" y="284" type="line" smooth="yes"/>
      <point x="511" y="264"/>
      <point x="519" y="256"/>
      <point x="529" y="256" type="curve" smooth="yes"/>
      <point x="539" y="256"/>
      <point x="542" y="262"/>
      <point x="542" y="270" type="curve" smooth="yes"/>
      <point x="542" y="442" type="line" smooth="yes"/>
      <point x="542" y="449"/>
      <point x="539" y="455"/>
      <point x="529" y="455" type="curve" smooth="yes"/>
      <point x="519" y="455"/>
      <point x="511" y="448"/>
      <point x="506" y="427" type="curve" smooth="yes"/>
      <point x="495" y="382" type="line"/>
      <point x="209" y="382" type="line"/>
      <point x="209" y="642" type="line"/>
      <point x="549" y="642" type="line"/>
      <point x="558" y="595" type="line" smooth="yes"/>
      <point x="564" y="565"/>
      <point x="573" y="554"/>
      <point x="586" y="554" type="curve" smooth="yes"/>
      <point x="597" y="554"/>
      <point x="601" y="560"/>
      <point x="601" y="568" type="curve" smooth="yes"/>
      <point x="601" y="695" type="line"/>
      <point x="72" y="695" type="line" smooth="yes"/>
      <point x="64" y="695"/>
      <point x="58" y="689"/>
      <point x="58" y="678" type="curve" smooth="yes"/>
      <point x="58" y="661"/>
      <point x="69" y="652"/>
      <point x="96" y="647" type="curve" smooth="yes"/>
      <point x="129" y="641" type="line"/>
      <point x="129" y="54" type="line"/>
      <point x="96" y="48" type="line" smooth="yes"/>
      <point x="73" y="44"/>
      <point x="58" y="34"/>
      <point x="58" y="17" type="curve" smooth="yes"/>
      <point x="58" y="6"/>
      <point x="64" y="0"/>
      <point x="72" y="0" type="curve" smooth="yes"/>
    </contour>
  </outline>
</glyph>
<glyph name="F" format="1">
  <advance width="650"/>
  <unicode hex="0046"/>
  <note>
	F
  </note>
  <outline>
    <contour>
      <point x="274" y="0" type="line" smooth="yes"/>
      <point x="283" y="0"/>
      <point x="286" y="6"/>
      <point x="286" y="13" type="curve" smooth="yes"/>
      <point x="286" y="26"/>
      <point x="277" y="33"/>
      <point x="258" y="38" type="curve" smooth="yes"/>
      <point x="209" y="50" type="line"/>
      <point x="209" y="312" type="line"/>
      <point x="479" y="312" type="line"/>
      <point x="489" y="266" type="line" smooth="yes"/>
      <point x="493" y="246"/>
      <point x="501" y="237"/>
      <point x="512" y="237" type="curve" smooth="yes"/>
      <point x="521" y="237"/>
      <point x="526" y="243"/>
      <point x="526" y="251" type="curve" smooth="yes"/>
      <point x="526" y="428" type="line" smooth="yes"/>
      <point x="526" y="435"/>
      <point x="521" y="441"/>
      <point x="512" y="441" type="curve" smooth="yes"/>
      <point x="501" y="441"/>
      <point x="493" y="433"/>
      <point x="489" y="413" type="curve" smooth="yes"/>
      <point x="479" y="366" type="line"/>
      <point x="209" y="366" type="line"/>
      <point x="209" y="641" type="line"/>
      <point x="532" y="641" type="line"/>
      <point x="543" y="591" type="line" smooth="yes"/>
      <point x="549" y="563"/>
      <point x="557" y="550"/>
      <point x="571" y="550" type="curve" smooth="yes"/>
      <point x="582" y="550"/>
      <point x="585" y="556"/>
      <point x="585" y="564" type="curve" smooth="yes"/>
      <point x="585" y="695" type="line"/>
      <point x="72" y="695" type="line" smooth="yes"/>
      <point x="64" y="695"/>
      <point x="58" y="689"/>
      <point x="58" y="678" type="curve" smooth="yes"/>
      <point x="58" y="661"/>
      <point x="70" y="652"/>
      <point x="96" y="647" type="curve" smooth="yes"/>
      <point x="129" y="641" type="line"/>
      <point x="129" y="49" type="line"/>
      <point x="97" y="49" type="line" smooth="yes"/>
      <point x="74" y="49"/>
      <point x="60" y="39"/>
      <point x="60" y="21" type="curve" smooth="yes"/>
      <point x="60" y="8"/>
      <point x="66" y="0"/>
      <point x="77" y="0" type="curve" smooth="yes"/>
    </contour>
  </outline>
</glyph>
<glyph name="G" format="1">
  <advance width="718"/>
  <unicode hex="0047"/>
  <note>
	G
  </note>
  <outline>
    <contour>
      <point x="453" y="-12"/>
      <point x="539" y="4"/>
      <point x="601" y="38" type="curve"/>
      <point x="601" y="297" type="line"/>
      <point x="649" y="309" type="line" smooth="yes"/>
      <point x="667" y="314"/>
      <point x="675" y="320"/>
      <point x="675" y="333" type="curve" smooth="yes"/>
      <point x="675" y="340"/>
      <point x="672" y="346"/>
      <point x="664" y="346" type="curve" smooth="yes"/>
      <point x="432" y="346" type="line" smooth="yes"/>
      <point x="410" y="346"/>
      <point x="396" y="336"/>
      <point x="396" y="318" type="curve" smooth="yes"/>
      <point x="396" y="305"/>
      <point x="402" y="298"/>
      <point x="412" y="298" type="curve" smooth="yes"/>
      <point x="521" y="298" type="line"/>
      <point x="521" y="70" type="line"/>
      <point x="483" y="52"/>
      <point x="433" y="43"/>
      <point x="387" y="43" type="curve" smooth="yes"/>
      <point x="232" y="43"/>
      <point x="131" y="152"/>
      <point x="131" y="348" type="curve" smooth="yes"/>
      <point x="131" y="543"/>
      <point x="231" y="652"/>
      <point x="386" y="652" type="curve" smooth="yes"/>
      <point x="448" y="652"/>
      <point x="505" y="636"/>
      <point x="540" y="610" type="curve"/>
      <point x="554" y="541" type="line" smooth="yes"/>
      <point x="559" y="516"/>
      <point x="567" y="505"/>
      <point x="583" y="505" type="curve" smooth="yes"/>
      <point x="595" y="505"/>
      <point x="598" y="512"/>
      <point x="598" y="520" type="curve" smooth="yes"/>
      <point x="598" y="634" type="line"/>
      <point x="547" y="677"/>
      <point x="465" y="707"/>
      <point x="374" y="707" type="curve" smooth="yes"/>
      <point x="191" y="707"/>
      <point x="50" y="585"/>
      <point x="50" y="348" type="curve" smooth="yes"/>
      <point x="50" y="104"/>
      <point x="192" y="-12"/>
      <point x="385" y="-12" type="curve" smooth="yes"/>
    </contour>
  </outline>
</glyph>
<glyph name="H" format="1">
  <advance width="801"/>
  <unicode hex="0048"/>
  <note>
	H
  </note>
  <outline>
    <contour>
      <point x="272" y="0" type="line" smooth="yes"/>
      <point x="281" y="0"/>
      <point x="284" y="6"/>
      <point x="284" y="13" type="curve" smooth="yes"/>
      <point x="284" y="26"/>
      <point x="275" y="33"/>
      <point x="256" y="38" type="curve" smooth="yes"/>
      <point x="206" y="50" type="line"/>
      <point x="206" y="334" type="line"/>
      <point x="591" y="334" type="line"/>
      <point x="591" y="49" type="line"/>
      <point x="554" y="49" type="line" smooth="yes"/>
      <point x="532" y="49"/>
      <point x="518" y="39"/>
      <point x="518" y="21" type="curve" smooth="yes"/>
      <point x="518" y="8"/>
      <point x="524" y="0"/>
      <point x="535" y="0" type="curve" smooth="yes"/>
      <point x="732" y="0" type="line" smooth="yes"/>
      <point x="741" y="0"/>
      <point x="743" y="6"/>
      <point x="743" y="13" type="curve" smooth="yes"/>
      <point x="743" y="26"/>
      <point x="735" y="33"/>
      <point x="719" y="37" type="curve" smooth="yes"/>
      <point x="671" y="50" type="line"/>
      <point x="671" y="645" type="line"/>
      <point x="719" y="658" type="line" smooth="yes"/>
      <point x="736" y="662"/>
      <point x="743" y="669"/>
      <point x="743" y="682" type="curve" smooth="yes"/>
      <point x="743" y="689"/>
      <point x="741" y="695"/>
      <point x="732" y="695" type="curve" smooth="yes"/>
      <point x="554" y="695" type="line" smooth="yes"/>
      <point x="532" y="695"/>
      <point x="518" y="685"/>
      <point x="518" y="667" type="curve" smooth="yes"/>
      <point x="518" y="654"/>
      <point x="524" y="646"/>
      <point x="535" y="646" type="curve" smooth="yes"/>
      <point x="591" y="646" type="line"/>
      <point x="591" y="388" type="line"/>
      <point x="206" y="388" type="line"/>
      <point x="206" y="645" type="line"/>
      <point x="256" y="657" type="line" smooth="yes"/>
      <point x="275" y="662"/>
      <point x="284" y="669"/>
      <point x="284" y="682" type="curve" smooth="yes"/>
      <point x="284" y="689"/>
      <point x="281" y="695"/>
      <point x="272" y="695" type="curve" smooth="yes"/>
      <point x="94" y="695" type="line" smooth="yes"/>
      <point x="72" y="695"/>
      <point x="58" y="685"/>
      <point x="58" y="667" type="curve" smooth="yes"/>
      <point x="58" y="654"/>
      <point x="64" y="646"/>
      <point x="75" y="646" type="curve" smooth="yes"/>
      <point x="126" y="646" type="line"/>
      <point x="126" y="49" type="line"/>
      <point x="95" y="49" type="line" smooth="yes"/>
      <point x="72" y="49"/>
      <point x="58" y="39"/>
      <point x="58" y="21" type="curve" smooth="yes"/>
      <point x="58" y="8"/>
      <point x="64" y="0"/>
      <point x="75" y="0" type="curve" smooth="yes"/>
    </contour>
  </outline>
</glyph>
<glyph name="I" format="1">
  <advance width="351"/>
  <unicode hex="0049"/>
  <note>
	I
  </note>
  <outline>
    <contour>
      <point x="277" y="0" type="line" smooth="yes"/>
      <point x="286" y="0"/>
      <point x="289" y="6"/>
      <point x="289" y="13" type="curve" smooth="yes"/>
      <point x="289" y="26"/>
      <point x="280" y="33"/>
      <point x="261" y="38" type="curve" smooth="yes"/>
      <point x="211" y="50" type="line"/>
      <point x="211" y="645" type="line"/>
      <point x="261" y="657" type="line" smooth="yes"/>
      <point x="280" y="662"/>
      <point x="289" y="669"/>
      <point x="289" y="682" type="curve" smooth="yes"/>
      <point x="289" y="689"/>
      <point x="286" y="695"/>
      <point x="277" y="695" type="curve" smooth="yes"/>
      <point x="99" y="695" type="line" smooth="yes"/>
      <point x="77" y="695"/>
      <point x="63" y="685"/>
      <point x="63" y="667" type="curve" smooth="yes"/>
      <point x="63" y="654"/>
      <point x="69" y="646"/>
      <point x="80" y="646" type="curve" smooth="yes"/>
      <point x="131" y="646" type="line"/>
      <point x="131" y="49" type="line"/>
      <point x="100" y="49" type="line" smooth="yes"/>
      <point x="77" y="49"/>
      <point x="63" y="39"/>
      <point x="63" y="21" type="curve" smooth="yes"/>
      <point x="63" y="8"/>
      <point x="69" y="0"/>
      <point x="80" y="0" type="curve" smooth="yes"/>
    </contour>
  </outline>
</glyph>
<glyph name="J" format="1">
  <advance width="383"/>
  <unicode hex="004A"/>
  <note>
	J
  </note>
  <outline>
    <contour>
      <point x="97" y="-12"/>
      <point x="114" y="-7"/>
      <point x="132" y="1" type="curve" smooth="yes"/>
      <point x="213" y="36"/>
      <point x="261" y="107"/>
      <point x="261" y="227" type="curve" smooth="yes"/>
      <point x="261" y="645" type="line"/>
      <point x="311" y="657" type="line" smooth="yes"/>
      <point x="330" y="662"/>
      <point x="338" y="669"/>
      <point x="338" y="682" type="curve" smooth="yes"/>
      <point x="338" y="689"/>
      <point x="336" y="695"/>
      <point x="327" y="695" type="curve" smooth="yes"/>
      <point x="141" y="695" type="line" smooth="yes"/>
      <point x="119" y="695"/>
      <point x="105" y="685"/>
      <point x="105" y="667" type="curve" smooth="yes"/>
      <point x="105" y="654"/>
      <point x="111" y="646"/>
      <point x="122" y="646" type="curve" smooth="yes"/>
      <point x="181" y="646" type="line"/>
      <point x="181" y="232" type="line" smooth="yes"/>
      <point x="181" y="128"/>
      <point x="143" y="79"/>
      <point x="38" y="44" type="curve"/>
      <point x="40" y="4"/>
      <point x="58" y="-12"/>
      <point x="82" y="-12" type="curve" smooth="yes"/>
    </contour>
  </outline>
</glyph>
<glyph name="K" format="1">
  <advance width="684"/>
  <unicode hex="004B"/>
  <note>
	K
  </note>
  <outline>
    <contour>
      <point x="661" y="0" type="line" smooth="yes"/>
      <point x="671" y="0"/>
      <point x="673" y="6"/>
      <point x="673" y="13" type="curve" smooth="yes"/>
      <point x="673" y="26"/>
      <point x="664" y="34"/>
      <point x="645" y="38" type="curve" smooth="yes"/>
      <point x="595" y="48" type="line"/>
      <point x="295" y="368" type="line"/>
      <point x="588" y="647" type="line"/>
      <point x="627" y="653" type="line" smooth="yes"/>
      <point x="647" y="656"/>
      <point x="655" y="666"/>
      <point x="655" y="679" type="curve" smooth="yes"/>
      <point x="655" y="689"/>
      <point x="652" y="695"/>
      <point x="642" y="695" type="curve" smooth="yes"/>
      <point x="465" y="695" type="line" smooth="yes"/>
      <point x="442" y="695"/>
      <point x="428" y="685"/>
      <point x="428" y="667" type="curve" smooth="yes"/>
      <point x="428" y="654"/>
      <point x="434" y="646"/>
      <point x="445" y="646" type="curve" smooth="yes"/>
      <point x="510" y="646" type="line"/>
      <point x="206" y="357" type="line"/>
      <point x="530" y="0" type="line"/>
    </contour>
    <contour>
      <point x="272" y="0" type="line" smooth="yes"/>
      <point x="280" y="0"/>
      <point x="284" y="6"/>
      <point x="284" y="13" type="curve" smooth="yes"/>
      <point x="284" y="26"/>
      <point x="275" y="33"/>
      <point x="256" y="38" type="curve" smooth="yes"/>
      <point x="206" y="50" type="line"/>
      <point x="206" y="645" type="line"/>
      <point x="256" y="657" type="line" smooth="yes"/>
      <point x="275" y="662"/>
      <point x="283" y="669"/>
      <point x="283" y="682" type="curve" smooth="yes"/>
      <point x="283" y="689"/>
      <point x="279" y="695"/>
      <point x="271" y="695" type="curve" smooth="yes"/>
      <point x="94" y="695" type="line" smooth="yes"/>
      <point x="72" y="695"/>
      <point x="58" y="685"/>
      <point x="58" y="667" type="curve" smooth="yes"/>
      <point x="58" y="654"/>
      <point x="64" y="646"/>
      <point x="75" y="646" type="curve" smooth="yes"/>
      <point x="126" y="646" type="line"/>
      <point x="126" y="49" type="line"/>
      <point x="95" y="49" type="line" smooth="yes"/>
      <point x="72" y="49"/>
      <point x="58" y="39"/>
      <point x="58" y="21" type="curve" smooth="yes"/>
      <point x="58" y="8"/>
      <point x="64" y="0"/>
      <point x="75" y="0" type="curve" smooth="yes"/>
    </contour>
  </outline>
</glyph>
<glyph name="L" format="1">
  <advance width="599"/>
  <unicode hex="004C"/>
  <note>
	L
  </note>
  <outline>
    <contour>
      <point x="580" y="0" type="line"/>
      <point x="580" y="143" type="line" smooth="yes"/>
      <point x="580" y="152"/>
      <point x="576" y="158"/>
      <point x="565" y="158" type="curve" smooth="yes"/>
      <point x="552" y="158"/>
      <point x="543" y="146"/>
      <point x="537" y="117" type="curve" smooth="yes"/>
      <point x="524" y="54" type="line"/>
      <point x="209" y="54" type="line"/>
      <point x="209" y="645" type="line"/>
      <point x="262" y="657" type="line" smooth="yes"/>
      <point x="281" y="661"/>
      <point x="290" y="669"/>
      <point x="290" y="682" type="curve" smooth="yes"/>
      <point x="290" y="689"/>
      <point x="287" y="695"/>
      <point x="278" y="695" type="curve" smooth="yes"/>
      <point x="96" y="695" type="line" smooth="yes"/>
      <point x="74" y="695"/>
      <point x="60" y="685"/>
      <point x="60" y="667" type="curve" smooth="yes"/>
      <point x="60" y="654"/>
      <point x="66" y="646"/>
      <point x="77" y="646" type="curve" smooth="yes"/>
      <point x="129" y="646" type="line"/>
      <point x="129" y="54" type="line"/>
      <point x="96" y="48" type="line" smooth="yes"/>
      <point x="70" y="43"/>
      <point x="58" y="34"/>
      <point x="58" y="17" type="curve" smooth="yes"/>
      <point x="58" y="6"/>
      <point x="64" y="0"/>
      <point x="72" y="0" type="curve" smooth="yes"/>
    </contour>
  </outline>
</glyph>
<glyph name="M" format="1">
  <advance width="1032"/>
  <unicode hex="004D"/>
  <note>
	M
  </note>
  <outline>
    <contour>
      <point x="231" y="0" type="line" smooth="yes"/>
      <point x="239" y="0"/>
      <point x="242" y="6"/>
      <point x="242" y="14" type="curve" smooth="yes"/>
      <point x="242" y="26"/>
      <point x="235" y="34"/>
      <point x="214" y="38" type="curve" smooth="yes"/>
      <point x="157" y="50" type="line"/>
      <point x="260" y="574" type="line" smooth="yes"/>
      <point x="265" y="600"/>
      <point x="268" y="638"/>
      <point x="268" y="638" type="curve"/>
      <point x="273" y="638" type="line"/>
      <point x="273" y="638"/>
      <point x="280" y="600"/>
      <point x="288" y="574" type="curve" smooth="yes"/>
      <point x="462" y="0" type="line"/>
      <point x="555" y="0" type="line"/>
      <point x="717" y="574" type="line" smooth="yes"/>
      <point x="724" y="600"/>
      <point x="732" y="638"/>
      <point x="732" y="638" type="curve"/>
      <point x="737" y="638" type="line"/>
      <point x="737" y="638"/>
      <point x="740" y="600"/>
      <point x="746" y="574" type="curve" smooth="yes"/>
      <point x="858" y="49" type="line"/>
      <point x="814" y="49" type="line" smooth="yes"/>
      <point x="792" y="49"/>
      <point x="777" y="39"/>
      <point x="777" y="21" type="curve" smooth="yes"/>
      <point x="777" y="8"/>
      <point x="784" y="0"/>
      <point x="794" y="0" type="curve" smooth="yes"/>
      <point x="997" y="0" type="line" smooth="yes"/>
      <point x="1006" y="0"/>
      <point x="1008" y="7"/>
      <point x="1008" y="15" type="curve" smooth="yes"/>
      <point x="1008" y="28"/>
      <point x="999" y="36"/>
      <point x="981" y="40" type="curve" smooth="yes"/>
      <point x="937" y="50" type="line"/>
      <point x="809" y="641" type="line"/>
      <point x="842" y="646" type="line" smooth="yes"/>
      <point x="867" y="650"/>
      <point x="879" y="660"/>
      <point x="879" y="677" type="curve" smooth="yes"/>
      <point x="879" y="690"/>
      <point x="873" y="695"/>
      <point x="865" y="695" type="curve" smooth="yes"/>
      <point x="689" y="695" type="line"/>
      <point x="539" y="166" type="line" smooth="yes"/>
      <point x="528" y="123"/>
      <point x="520" y="59"/>
      <point x="520" y="59" type="curve" smooth="yes"/>
      <point x="514" y="59" type="line" smooth="yes"/>
      <point x="514" y="59"/>
      <point x="506" y="123"/>
      <point x="494" y="166" type="curve" smooth="yes"/>
      <point x="334" y="695" type="line"/>
      <point x="158" y="695" type="line" smooth="yes"/>
      <point x="150" y="695"/>
      <point x="144" y="690"/>
      <point x="144" y="677" type="curve" smooth="yes"/>
      <point x="144" y="660"/>
      <point x="155" y="650"/>
      <point x="181" y="646" type="curve" smooth="yes"/>
      <point x="214" y="641" type="line"/>
      <point x="96" y="49" type="line"/>
      <point x="64" y="49" type="line" smooth="yes"/>
      <point x="41" y="49"/>
      <point x="27" y="39"/>
      <point x="27" y="21" type="curve" smooth="yes"/>
      <point x="27" y="8"/>
      <point x="33" y="0"/>
      <point x="44" y="0" type="curve" smooth="yes"/>
    </contour>
  </outline>
</glyph>
<glyph name="N" format="1">
  <advance width="788"/>
  <unicode hex="004E"/>
  <note>
	N
  </note>
  <outline>
    <contour>
      <point x="259" y="0" type="line" smooth="yes"/>
      <point x="268" y="0"/>
      <point x="270" y="6"/>
      <point x="270" y="13" type="curve" smooth="yes"/>
      <point x="270" y="26"/>
      <point x="263" y="34"/>
      <point x="243" y="38" type="curve" smooth="yes"/>
      <point x="190" y="50" type="line"/>
      <point x="190" y="590" type="line"/>
      <point x="205" y="554"/>
      <point x="218" y="529"/>
      <point x="237" y="502" type="curve" smooth="yes"/>
      <point x="585" y="0" type="line"/>
      <point x="660" y="0" type="line"/>
      <point x="660" y="645" type="line"/>
      <point x="703" y="656" type="line" smooth="yes"/>
      <point x="721" y="660"/>
      <point x="732" y="670"/>
      <point x="732" y="682" type="curve" smooth="yes"/>
      <point x="732" y="689"/>
      <point x="730" y="695"/>
      <point x="721" y="695" type="curve" smooth="yes"/>
      <point x="556" y="695" type="line" smooth="yes"/>
      <point x="534" y="695"/>
      <point x="520" y="685"/>
      <point x="520" y="667" type="curve" smooth="yes"/>
      <point x="520" y="654"/>
      <point x="526" y="646"/>
      <point x="537" y="646" type="curve" smooth="yes"/>
      <point x="597" y="646" type="line"/>
      <point x="597" y="103" type="line"/>
      <point x="580" y="141"/>
      <point x="564" y="171"/>
      <point x="543" y="202" type="curve" smooth="yes"/>
      <point x="201" y="695" type="line"/>
      <point x="73" y="695" type="line" smooth="yes"/>
      <point x="65" y="695"/>
      <point x="58" y="690"/>
      <point x="58" y="677" type="curve" smooth="yes"/>
      <point x="58" y="660"/>
      <point x="67" y="650"/>
      <point x="95" y="646" type="curve" smooth="yes"/>
      <point x="127" y="641" type="line"/>
      <point x="127" y="49" type="line"/>
      <point x="95" y="49" type="line" smooth="yes"/>
      <point x="72" y="49"/>
      <point x="58" y="39"/>
      <point x="58" y="21" type="curve" smooth="yes"/>
      <point x="58" y="8"/>
      <point x="64" y="0"/>
      <point x="75" y="0" type="curve" smooth="yes"/>
    </contour>
  </outline>
</glyph>
<glyph name="O" format="1">
  <advance width="737"/>
  <unicode hex="004F"/>
  <note>
	O
  </note>
  <outline>
    <contour>
      <point x="557" y="-12"/>
      <point x="687" y="104"/>
      <point x="687" y="346" type="curve" smooth="yes"/>
      <point x="687" y="588"/>
      <point x="557" y="707"/>
      <point x="369" y="707" type="curve" smooth="yes"/>
      <point x="181" y="707"/>
      <point x="50" y="588"/>
      <point x="50" y="346" type="curve" smooth="yes"/>
      <point x="50" y="104"/>
      <point x="181" y="-12"/>
      <point x="369" y="-12" type="curve" smooth="yes"/>
    </contour>
    <contour>
      <point x="215" y="42"/>
      <point x="131" y="153"/>
      <point x="131" y="346" type="curve" smooth="yes"/>
      <point x="131" y="539"/>
      <point x="215" y="653"/>
      <point x="368" y="653" type="curve" smooth="yes"/>
      <point x="522" y="653"/>
      <point x="606" y="539"/>
      <point x="606" y="346" type="curve" smooth="yes"/>
      <point x="606" y="153"/>
      <point x="522" y="42"/>
      <point x="368" y="42" type="curve" smooth="yes"/>
    </contour>
  </outline>
</glyph>
<glyph name="P" format="1">
  <advance width="617"/>
  <unicode hex="0050"/>
  <note>
	P
  </note>
  <outline>
    <contour>
      <point x="278" y="0" type="line" smooth="yes"/>
      <point x="287" y="0"/>
      <point x="290" y="6"/>
      <point x="290" y="13" type="curve" smooth="yes"/>
      <point x="290" y="26"/>
      <point x="281" y="33"/>
      <point x="259" y="38" type="curve" smooth="yes"/>
      <point x="209" y="50" type="line"/>
      <point x="209" y="290" type="line"/>
      <point x="365" y="290" type="line" smooth="yes"/>
      <point x="495" y="290"/>
      <point x="589" y="359"/>
      <point x="589" y="492" type="curve" smooth="yes"/>
      <point x="589" y="625"/>
      <point x="495" y="695"/>
      <point x="365" y="695" type="curve" smooth="yes"/>
      <point x="72" y="695" type="line" smooth="yes"/>
      <point x="64" y="695"/>
      <point x="58" y="689"/>
      <point x="58" y="678" type="curve" smooth="yes"/>
      <point x="58" y="661"/>
      <point x="70" y="652"/>
      <point x="96" y="647" type="curve" smooth="yes"/>
      <point x="129" y="641" type="line"/>
      <point x="129" y="49" type="line"/>
      <point x="97" y="49" type="line" smooth="yes"/>
      <point x="74" y="49"/>
      <point x="60" y="39"/>
      <point x="60" y="21" type="curve" smooth="yes"/>
      <point x="60" y="8"/>
      <point x="66" y="0"/>
      <point x="77" y="0" type="curve" smooth="yes"/>
    </contour>
    <contour>
      <point x="209" y="641" type="line"/>
      <point x="360" y="641" type="line" smooth="yes"/>
      <point x="456" y="641"/>
      <point x="507" y="580"/>
      <point x="507" y="492" type="curve" smooth="yes"/>
      <point x="507" y="405"/>
      <point x="456" y="344"/>
      <point x="360" y="344" type="curve" smooth="yes"/>
      <point x="209" y="344" type="line"/>
    </contour>
  </outline>
</glyph>
<glyph name="Q" format="1">
  <advance width="737"/>
  <unicode hex="0051"/>
  <note>
	Q
  </note>
  <outline>
    <contour>
      <point x="571" y="-157"/>
      <point x="585" y="-146"/>
      <point x="585" y="-124" type="curve" smooth="yes"/>
      <point x="585" y="-106"/>
      <point x="574" y="-100"/>
      <point x="549" y="-92" type="curve" smooth="yes"/>
      <point x="516" y="-82"/>
      <point x="486" y="-68"/>
      <point x="458" y="-50" type="curve" smooth="yes"/>
      <point x="439" y="-38"/>
      <point x="420" y="-25"/>
      <point x="403" y="-11" type="curve"/>
      <point x="573" y="3"/>
      <point x="687" y="119"/>
      <point x="687" y="346" type="curve" smooth="yes"/>
      <point x="687" y="588"/>
      <point x="557" y="707"/>
      <point x="369" y="707" type="curve" smooth="yes"/>
      <point x="181" y="707"/>
      <point x="50" y="588"/>
      <point x="50" y="346" type="curve" smooth="yes"/>
      <point x="50" y="118"/>
      <point x="166" y="2"/>
      <point x="337" y="-11" type="curve"/>
      <point x="360" y="-39"/>
      <point x="387" y="-67"/>
      <point x="415" y="-92" type="curve" smooth="yes"/>
      <point x="454" y="-126"/>
      <point x="504" y="-157"/>
      <point x="547" y="-157" type="curve" smooth="yes"/>
    </contour>
    <contour>
      <point x="215" y="42"/>
      <point x="131" y="153"/>
      <point x="131" y="346" type="curve" smooth="yes"/>
      <point x="131" y="539"/>
      <point x="215" y="653"/>
      <point x="368" y="653" type="curve" smooth="yes"/>
      <point x="522" y="653"/>
      <point x="606" y="539"/>
      <point x="606" y="346" type="curve" smooth="yes"/>
      <point x="606" y="153"/>
      <point x="522" y="42"/>
      <point x="368" y="42" type="curve" smooth="yes"/>
    </contour>
  </outline>
</glyph>
<glyph name="R" format="1">
  <advance width="668"/>
  <unicode hex="0052"/>
  <note>
	R
  </note>
  <outline>
    <contour>
      <point x="274" y="0" type="line" smooth="yes"/>
      <point x="283" y="0"/>
      <point x="286" y="6"/>
      <point x="286" y="13" type="curve" smooth="yes"/>
      <point x="286" y="26"/>
      <point x="277" y="33"/>
      <point x="258" y="38" type="curve" smooth="yes"/>
      <point x="209" y="50" type="line"/>
      <point x="209" y="324" type="line"/>
      <point x="505" y="0" type="line"/>
      <point x="637" y="0" type="line" smooth="yes"/>
      <point x="646" y="0"/>
      <point x="648" y="6"/>
      <point x="648" y="13" type="curve" smooth="yes"/>
      <point x="648" y="26"/>
      <point x="639" y="34"/>
      <point x="620" y="38" type="curve" smooth="yes"/>
      <point x="570" y="48" type="line"/>
      <point x="306" y="326" type="line"/>
      <point x="360" y="326" type="line" smooth="yes"/>
      <point x="490" y="326"/>
      <point x="583" y="379"/>
      <point x="583" y="509" type="curve" smooth="yes"/>
      <point x="583" y="640"/>
      <point x="490" y="695"/>
      <point x="360" y="695" type="curve" smooth="yes"/>
      <point x="72" y="695" type="line" smooth="yes"/>
      <point x="64" y="695"/>
      <point x="58" y="689"/>
      <point x="58" y="678" type="curve" smooth="yes"/>
      <point x="58" y="662"/>
      <point x="73" y="656"/>
      <point x="96" y="649" type="curve"/>
      <point x="129" y="644" type="line"/>
      <point x="129" y="49" type="line"/>
      <point x="97" y="49" type="line" smooth="yes"/>
      <point x="74" y="49"/>
      <point x="60" y="39"/>
      <point x="60" y="21" type="curve" smooth="yes"/>
      <point x="60" y="8"/>
      <point x="66" y="0"/>
      <point x="77" y="0" type="curve" smooth="yes"/>
    </contour>
    <contour>
      <point x="209" y="643" type="line"/>
      <point x="356" y="643" type="line" smooth="yes"/>
      <point x="452" y="643"/>
      <point x="501" y="594"/>
      <point x="501" y="509" type="curve" smooth="yes"/>
      <point x="501" y="424"/>
      <point x="452" y="376"/>
      <point x="356" y="376" type="curve" smooth="yes"/>
      <point x="209" y="376" type="line"/>
    </contour>
  </outline>
</glyph>
<glyph name="S" format="1">
  <advance width="595"/>
  <unicode hex="0053"/>
  <note>
	S
  </note>
  <outline>
    <contour>
      <point x="427" y="-12"/>
      <point x="543" y="38"/>
      <point x="543" y="166" type="curve" smooth="yes"/>
      <point x="543" y="279"/>
      <point x="466" y="328"/>
      <point x="338" y="381" type="curve" smooth="yes"/>
      <point x="211" y="435"/>
      <point x="136" y="465"/>
      <point x="136" y="544" type="curve" smooth="yes"/>
      <point x="136" y="622"/>
      <point x="209" y="652"/>
      <point x="290" y="652" type="curve" smooth="yes"/>
      <point x="352" y="652"/>
      <point x="411" y="637"/>
      <point x="449" y="607" type="curve"/>
      <point x="462" y="544" type="line" smooth="yes"/>
      <point x="469" y="511"/>
      <point x="478" y="503"/>
      <point x="493" y="503" type="curve" smooth="yes"/>
      <point x="504" y="503"/>
      <point x="508" y="509"/>
      <point x="508" y="518" type="curve" smooth="yes"/>
      <point x="508" y="636" type="line"/>
      <point x="456" y="680"/>
      <point x="368" y="707"/>
      <point x="285" y="707" type="curve" smooth="yes"/>
      <point x="170" y="707"/>
      <point x="55" y="659"/>
      <point x="55" y="534" type="curve" smooth="yes"/>
      <point x="55" y="428"/>
      <point x="146" y="375"/>
      <point x="266" y="326" type="curve" smooth="yes"/>
      <point x="406" y="270"/>
      <point x="462" y="239"/>
      <point x="462" y="159" type="curve" smooth="yes"/>
      <point x="462" y="70"/>
      <point x="372" y="43"/>
      <point x="286" y="43" type="curve" smooth="yes"/>
      <point x="229" y="43"/>
      <point x="153" y="57"/>
      <point x="111" y="88" type="curve"/>
      <point x="98" y="152" type="line" smooth="yes"/>
      <point x="92" y="184"/>
      <point x="82" y="193"/>
      <point x="67" y="193" type="curve" smooth="yes"/>
      <point x="57" y="193"/>
      <point x="52" y="186"/>
      <point x="52" y="178" type="curve" smooth="yes"/>
      <point x="52" y="55" type="line"/>
      <point x="109" y="11"/>
      <point x="217" y="-12"/>
      <point x="292" y="-12" type="curve" smooth="yes"/>
    </contour>
  </outline>
</glyph>
<glyph name="T" format="1">
  <advance width="596"/>
  <unicode hex="0054"/>
  <note>
	T
  </note>
  <outline>
    <contour>
      <point x="404" y="0" type="line" smooth="yes"/>
      <point x="413" y="0"/>
      <point x="416" y="6"/>
      <point x="416" y="13" type="curve" smooth="yes"/>
      <point x="416" y="26"/>
      <point x="407" y="33"/>
      <point x="388" y="38" type="curve" smooth="yes"/>
      <point x="338" y="50" type="line"/>
      <point x="338" y="641" type="line"/>
      <point x="510" y="641" type="line"/>
      <point x="520" y="588" type="line" smooth="yes"/>
      <point x="525" y="563"/>
      <point x="532" y="551"/>
      <point x="547" y="551" type="curve" smooth="yes"/>
      <point x="556" y="551"/>
      <point x="564" y="555"/>
      <point x="564" y="566" type="curve" smooth="yes"/>
      <point x="564" y="695" type="line"/>
      <point x="33" y="695" type="line"/>
      <point x="33" y="566" type="line" smooth="yes"/>
      <point x="33" y="555"/>
      <point x="40" y="551"/>
      <point x="50" y="551" type="curve" smooth="yes"/>
      <point x="65" y="551"/>
      <point x="72" y="563"/>
      <point x="77" y="588" type="curve" smooth="yes"/>
      <point x="87" y="641" type="line"/>
      <point x="258" y="641" type="line"/>
      <point x="258" y="49" type="line"/>
      <point x="227" y="49" type="line" smooth="yes"/>
      <point x="204" y="49"/>
      <point x="190" y="39"/>
      <point x="190" y="21" type="curve" smooth="yes"/>
      <point x="190" y="8"/>
      <point x="196" y="0"/>
      <point x="207" y="0" type="curve" smooth="yes"/>
    </contour>
  </outline>
</glyph>
<glyph name="U" format="1">
  <advance width="781"/>
  <unicode hex="0055"/>
  <note>
	U
  </note>
  <outline>
    <contour>
      <point x="562" y="-12"/>
      <point x="666" y="87"/>
      <point x="666" y="263" type="curve" smooth="yes"/>
      <point x="666" y="645" type="line"/>
      <point x="712" y="659" type="line" smooth="yes"/>
      <point x="729" y="664"/>
      <point x="738" y="672"/>
      <point x="738" y="683" type="curve" smooth="yes"/>
      <point x="738" y="690"/>
      <point x="735" y="695"/>
      <point x="726" y="695" type="curve" smooth="yes"/>
      <point x="563" y="695" type="line" smooth="yes"/>
      <point x="541" y="695"/>
      <point x="527" y="685"/>
      <point x="527" y="667" type="curve" smooth="yes"/>
      <point x="527" y="654"/>
      <point x="533" y="646"/>
      <point x="544" y="646" type="curve" smooth="yes"/>
      <point x="602" y="646" type="line"/>
      <point x="602" y="259" type="line" smooth="yes"/>
      <point x="602" y="118"/>
      <point x="527" y="43"/>
      <point x="396" y="43" type="curve" smooth="yes"/>
      <point x="266" y="43"/>
      <point x="191" y="119"/>
      <point x="191" y="259" type="curve" smooth="yes"/>
      <point x="191" y="645" type="line"/>
      <point x="241" y="657" type="line" smooth="yes"/>
      <point x="261" y="662"/>
      <point x="269" y="669"/>
      <point x="269" y="682" type="curve" smooth="yes"/>
      <point x="269" y="689"/>
      <point x="266" y="695"/>
      <point x="257" y="695" type="curve" smooth="yes"/>
      <point x="79" y="695" type="line" smooth="yes"/>
      <point x="57" y="695"/>
      <point x="43" y="685"/>
      <point x="43" y="667" type="curve" smooth="yes"/>
      <point x="43" y="654"/>
      <point x="49" y="646"/>
      <point x="60" y="646" type="curve" smooth="yes"/>
      <point x="111" y="646" type="line"/>
      <point x="111" y="263" type="line" smooth="yes"/>
      <point x="111" y="87"/>
      <point x="221" y="-12"/>
      <point x="393" y="-12" type="curve" smooth="yes"/>
    </contour>
  </outline>
</glyph>
<glyph name="V" format="1">
  <advance width="720"/>
  <unicode hex="0056"/>
  <note>
	V
  </note>
  <outline>
    <contour>
      <point x="404" y="0" type="line"/>
      <point x="634" y="645" type="line"/>
      <point x="685" y="658" type="line" smooth="yes"/>
      <point x="699" y="662"/>
      <point x="709" y="670"/>
      <point x="709" y="682" type="curve" smooth="yes"/>
      <point x="709" y="689"/>
      <point x="707" y="695"/>
      <point x="698" y="695" type="curve" smooth="yes"/>
      <point x="529" y="695" type="line" smooth="yes"/>
      <point x="506" y="695"/>
      <point x="492" y="685"/>
      <point x="492" y="667" type="curve" smooth="yes"/>
      <point x="492" y="654"/>
      <point x="499" y="646"/>
      <point x="509" y="646" type="curve" smooth="yes"/>
      <point x="571" y="646" type="line"/>
      <point x="382" y="113" type="line" smooth="yes"/>
      <point x="372" y="85"/>
      <point x="367" y="53"/>
      <point x="367" y="53" type="curve" smooth="yes"/>
      <point x="362" y="53" type="line" smooth="yes"/>
      <point x="362" y="53"/>
      <point x="356" y="85"/>
      <point x="346" y="113" type="curve" smooth="yes"/>
      <point x="163" y="645" type="line"/>
      <point x="216" y="655" type="line" smooth="yes"/>
      <point x="236" y="659"/>
      <point x="246" y="668"/>
      <point x="246" y="682" type="curve" smooth="yes"/>
      <point x="246" y="689"/>
      <point x="243" y="695"/>
      <point x="234" y="695" type="curve" smooth="yes"/>
      <point x="47" y="695" type="line" smooth="yes"/>
      <point x="25" y="695"/>
      <point x="11" y="685"/>
      <point x="11" y="667" type="curve" smooth="yes"/>
      <point x="11" y="654"/>
      <point x="17" y="646"/>
      <point x="28" y="646" type="curve" smooth="yes"/>
      <point x="77" y="646" type="line"/>
      <point x="306" y="0" type="line"/>
    </contour>
  </outline>
</glyph>
<glyph name="W" format="1">
  <advance width="1086"/>
  <unicode hex="0057"/>
  <note>
	W
  </note>
  <outline>
    <contour>
      <point x="373" y="0" type="line"/>
      <point x="524" y="526" type="line" smooth="yes"/>
      <point x="533" y="557"/>
      <point x="538" y="604"/>
      <point x="538" y="604" type="curve"/>
      <point x="543" y="604" type="line"/>
      <point x="543" y="604"/>
      <point x="547" y="557"/>
      <point x="556" y="526" type="curve" smooth="yes"/>
      <point x="715" y="0" type="line"/>
      <point x="814" y="0" type="line"/>
      <point x="999" y="645" type="line"/>
      <point x="1049" y="658" type="line" smooth="yes"/>
      <point x="1064" y="662"/>
      <point x="1074" y="670"/>
      <point x="1074" y="682" type="curve" smooth="yes"/>
      <point x="1074" y="689"/>
      <point x="1072" y="695"/>
      <point x="1062" y="695" type="curve" smooth="yes"/>
      <point x="892" y="695" type="line" smooth="yes"/>
      <point x="869" y="695"/>
      <point x="855" y="685"/>
      <point x="855" y="667" type="curve" smooth="yes"/>
      <point x="855" y="654"/>
      <point x="862" y="646"/>
      <point x="872" y="646" type="curve" smooth="yes"/>
      <point x="936" y="646" type="line"/>
      <point x="789" y="120" type="line" smooth="yes"/>
      <point x="781" y="91"/>
      <point x="777" y="54"/>
      <point x="777" y="54" type="curve" smooth="yes"/>
      <point x="771" y="54" type="line" smooth="yes"/>
      <point x="771" y="54"/>
      <point x="768" y="91"/>
      <point x="759" y="120" type="curve" smooth="yes"/>
      <point x="583" y="695" type="line"/>
      <point x="511" y="695" type="line"/>
      <point x="346" y="120" type="line" smooth="yes"/>
      <point x="338" y="91"/>
      <point x="334" y="54"/>
      <point x="334" y="54" type="curve" smooth="yes"/>
      <point x="329" y="54" type="line" smooth="yes"/>
      <point x="329" y="54"/>
      <point x="325" y="91"/>
      <point x="317" y="120" type="curve" smooth="yes"/>
      <point x="160" y="645" type="line"/>
      <point x="213" y="655" type="line" smooth="yes"/>
      <point x="233" y="659"/>
      <point x="244" y="668"/>
      <point x="244" y="682" type="curve" smooth="yes"/>
      <point x="244" y="689"/>
      <point x="241" y="695"/>
      <point x="232" y="695" type="curve" smooth="yes"/>
      <point x="48" y="695" type="line" smooth="yes"/>
      <point x="26" y="695"/>
      <point x="12" y="685"/>
      <point x="12" y="667" type="curve" smooth="yes"/>
      <point x="12" y="654"/>
      <point x="18" y="646"/>
      <point x="29" y="646" type="curve" smooth="yes"/>
      <point x="79" y="646" type="line"/>
      <point x="274" y="0" type="line"/>
    </contour>
  </outline>
</glyph>
<glyph name="X" format="1">
  <advance width="707"/>
  <unicode hex="0058"/>
  <note>
	X
  </note>
  <outline>
    <contour>
      <point x="223" y="0" type="line" smooth="yes"/>
      <point x="232" y="0"/>
      <point x="234" y="6"/>
      <point x="234" y="13" type="curve" smooth="yes"/>
      <point x="234" y="25"/>
      <point x="225" y="34"/>
      <point x="210" y="37" type="curve" smooth="yes"/>
      <point x="151" y="50" type="line"/>
      <point x="337" y="319" type="line"/>
      <point x="522" y="49" type="line"/>
      <point x="480" y="49" type="line" smooth="yes"/>
      <point x="457" y="49"/>
      <point x="444" y="39"/>
      <point x="444" y="21" type="curve" smooth="yes"/>
      <point x="444" y="8"/>
      <point x="450" y="0"/>
      <point x="460" y="0" type="curve" smooth="yes"/>
      <point x="681" y="0" type="line" smooth="yes"/>
      <point x="689" y="0"/>
      <point x="692" y="6"/>
      <point x="692" y="13" type="curve" smooth="yes"/>
      <point x="692" y="27"/>
      <point x="682" y="37"/>
      <point x="662" y="40" type="curve" smooth="yes"/>
      <point x="622" y="47" type="line"/>
      <point x="400" y="368" type="line"/>
      <point x="596" y="645" type="line"/>
      <point x="645" y="658" type="line" smooth="yes"/>
      <point x="665" y="663"/>
      <point x="670" y="670"/>
      <point x="670" y="682" type="curve" smooth="yes"/>
      <point x="670" y="689"/>
      <point x="667" y="695"/>
      <point x="658" y="695" type="curve" smooth="yes"/>
      <point x="494" y="695" type="line" smooth="yes"/>
      <point x="471" y="695"/>
      <point x="458" y="685"/>
      <point x="458" y="667" type="curve" smooth="yes"/>
      <point x="458" y="654"/>
      <point x="464" y="646"/>
      <point x="475" y="646" type="curve" smooth="yes"/>
      <point x="529" y="646" type="line"/>
      <point x="359" y="406" type="line"/>
      <point x="196" y="648" type="line"/>
      <point x="247" y="655" type="line" smooth="yes"/>
      <point x="266" y="658"/>
      <point x="277" y="668"/>
      <point x="277" y="682" type="curve" smooth="yes"/>
      <point x="277" y="689"/>
      <point x="274" y="695"/>
      <point x="266" y="695" type="curve" smooth="yes"/>
      <point x="74" y="695" type="line" smooth="yes"/>
      <point x="52" y="695"/>
      <point x="38" y="685"/>
      <point x="38" y="667" type="curve" smooth="yes"/>
      <point x="38" y="654"/>
      <point x="44" y="646"/>
      <point x="55" y="646" type="curve" smooth="yes"/>
      <point x="101" y="646" type="line"/>
      <point x="295" y="356" type="line"/>
      <point x="84" y="49" type="line"/>
      <point x="51" y="49" type="line" smooth="yes"/>
      <point x="29" y="49"/>
      <point x="15" y="39"/>
      <point x="15" y="21" type="curve" smooth="yes"/>
      <point x="15" y="8"/>
      <point x="21" y="0"/>
      <point x="32" y="0" type="curve" smooth="yes"/>
    </contour>
  </outline>
</glyph>
<glyph name="Y" format="1">
  <advance width="693"/>
  <unicode hex="0059"/>
  <note>
	Y
  </note>
  <outline>
    <contour>
      <point x="444" y="0" type="line" smooth="yes"/>
      <point x="453" y="0"/>
      <point x="456" y="6"/>
      <point x="456" y="13" type="curve" smooth="yes"/>
      <point x="456" y="26"/>
      <point x="447" y="33"/>
      <point x="428" y="38" type="curve" smooth="yes"/>
      <point x="379" y="50" type="line"/>
      <point x="379" y="306" type="line"/>
      <point x="608" y="645" type="line"/>
      <point x="657" y="658" type="line" smooth="yes"/>
      <point x="671" y="662"/>
      <point x="681" y="670"/>
      <point x="681" y="682" type="curve" smooth="yes"/>
      <point x="681" y="689"/>
      <point x="679" y="695"/>
      <point x="670" y="695" type="curve" smooth="yes"/>
      <point x="506" y="695" type="line" smooth="yes"/>
      <point x="483" y="695"/>
      <point x="470" y="685"/>
      <point x="470" y="667" type="curve" smooth="yes"/>
      <point x="470" y="654"/>
      <point x="476" y="646"/>
      <point x="487" y="646" type="curve" smooth="yes"/>
      <point x="542" y="646" type="line"/>
      <point x="352" y="363" type="line"/>
      <point x="172" y="645" type="line"/>
      <point x="228" y="655" type="line" smooth="yes"/>
      <point x="246" y="658"/>
      <point x="256" y="666"/>
      <point x="256" y="681" type="curve" smooth="yes"/>
      <point x="256" y="688"/>
      <point x="253" y="695"/>
      <point x="244" y="695" type="curve" smooth="yes"/>
      <point x="48" y="695" type="line" smooth="yes"/>
      <point x="26" y="695"/>
      <point x="12" y="685"/>
      <point x="12" y="667" type="curve" smooth="yes"/>
      <point x="12" y="654"/>
      <point x="18" y="646"/>
      <point x="29" y="646" type="curve" smooth="yes"/>
      <point x="75" y="646" type="line"/>
      <point x="299" y="296" type="line"/>
      <point x="299" y="49" type="line"/>
      <point x="267" y="49" type="line" smooth="yes"/>
      <point x="244" y="49"/>
      <point x="230" y="39"/>
      <point x="230" y="21" type="curve" smooth="yes"/>
      <point x="230" y="8"/>
      <point x="236" y="0"/>
      <point x="247" y="0" type="curve" smooth="yes"/>
    </contour>
  </outline>
</glyph>
<glyph name="Z" format="1">
  <advance width="629"/>
  <unicode hex="005A"/>
  <note>
	Z
  </note>
  <outline>
    <contour>
      <point x="575" y="0" type="line"/>
      <point x="575" y="133" type="line" smooth="yes"/>
      <point x="575" y="144"/>
      <point x="567" y="148"/>
      <point x="558" y="148" type="curve" smooth="yes"/>
      <point x="543" y="148"/>
      <point x="535" y="134"/>
      <point x="531" y="110" type="curve" smooth="yes"/>
      <point x="521" y="54" type="line"/>
      <point x="147" y="54" type="line"/>
      <point x="574" y="639" type="line"/>
      <point x="574" y="695" type="line"/>
      <point x="66" y="695" type="line"/>
      <point x="66" y="562" type="line" smooth="yes"/>
      <point x="66" y="551"/>
      <point x="73" y="547"/>
      <point x="82" y="547" type="curve" smooth="yes"/>
      <point x="98" y="547"/>
      <point x="106" y="561"/>
      <point x="110" y="585" type="curve" smooth="yes"/>
      <point x="120" y="641" type="line"/>
      <point x="476" y="641" type="line"/>
      <point x="49" y="56" type="line"/>
      <point x="49" y="0" type="line"/>
    </contour>
  </outline>
</glyph>
<glyph name="bracketleft" format="1">
  <advance width="293"/>
  <unicode hex="005B"/>
  <note>
	bracketleft
  </note>
  <outline>
    <contour>
      <point x="245" y="-141" type="line"/>
      <point x="245" y="-86" type="line"/>
      <point x="137" y="-86" type="line"/>
      <point x="137" y="695" type="line"/>
      <point x="245" y="695" type="line"/>
      <point x="245" y="749" type="line"/>
      <point x="61" y="749" type="line"/>
      <point x="61" y="-141" type="line"/>
    </contour>
  </outline>
</glyph>
<glyph name="backslash" format="1">
  <advance width="363"/>
  <unicode hex="005C"/>
  <note>
	backslash
  </note>
  <outline>
    <contour>
      <point x="389" y="-108" type="line"/>
      <point x="43" y="744" type="line"/>
      <point x="-27" y="717" type="line"/>
      <point x="319" y="-134" type="line"/>
    </contour>
  </outline>
</glyph>
<glyph name="bracketright" format="1">
  <advance width="293"/>
  <unicode hex="005D"/>
  <note>
	bracketright
  </note>
  <outline>
    <contour>
      <point x="232" y="-141" type="line"/>
      <point x="232" y="749" type="line"/>
      <point x="48" y="749" type="line"/>
      <point x="48" y="695" type="line"/>
      <point x="156" y="695" type="line"/>
      <point x="156" y="-86" type="line"/>
      <point x="48" y="-86" type="line"/>
      <point x="48" y="-141" type="line"/>
    </contour>
  </outline>
</glyph>
<glyph name="asciicircum" format="1">
  <advance width="570"/>
  <unicode hex="005E"/>
  <note>
	asciicircum
  </note>
  <outline>
    <contour>
      <point x="285" y="594" type="line"/>
      <point x="447" y="326" type="line"/>
      <point x="506" y="359" type="line"/>
      <point x="311" y="677" type="line"/>
      <point x="258" y="677" type="line"/>
      <point x="63" y="359" type="line"/>
      <point x="122" y="326" type="line"/>
    </contour>
  </outline>
</glyph>
<glyph name="grave" format="1">
  <advance width="293"/>
  <unicode hex="0060"/>
  <note>
	grave
  </note>
  <outline>
    <contour>
      <point x="220" y="565" type="line"/>
      <point x="133" y="711" type="line"/>
      <point x="73" y="672" type="line"/>
      <point x="175" y="536" type="line"/>
    </contour>
  </outline>
</glyph>
<glyph name="a" format="1">
  <advance width="528"/>
  <unicode hex="0061"/>
  <note>
	a
  </note>
  <outline>
    <contour>
      <point x="274" y="-12"/>
      <point x="331" y="24"/>
      <point x="365" y="70" type="curve"/>
      <point x="369" y="70" type="line"/>
      <point x="369" y="0" type="line"/>
      <point x="495" y="0" type="line" smooth="yes"/>
      <point x="504" y="0"/>
      <point x="506" y="6"/>
      <point x="506" y="12" type="curve" smooth="yes"/>
      <point x="506" y="25"/>
      <point x="497" y="31"/>
      <point x="479" y="36" type="curve" smooth="yes"/>
      <point x="442" y="46" type="line"/>
      <point x="442" y="340" type="line" smooth="yes"/>
      <point x="442" y="444"/>
      <point x="364" y="499"/>
      <point x="264" y="499" type="curve" smooth="yes"/>
      <point x="197" y="499"/>
      <point x="122" y="474"/>
      <point x="71" y="443" type="curve"/>
      <point x="71" y="352" type="line" smooth="yes"/>
      <point x="71" y="345"/>
      <point x="76" y="339"/>
      <point x="86" y="339" type="curve" smooth="yes"/>
      <point x="100" y="339"/>
      <point x="109" y="350"/>
      <point x="112" y="368" type="curve" smooth="yes"/>
      <point x="120" y="412" type="line"/>
      <point x="153" y="433"/>
      <point x="211" y="450"/>
      <point x="253" y="450" type="curve" smooth="yes"/>
      <point x="326" y="450"/>
      <point x="367" y="404"/>
      <point x="367" y="341" type="curve" smooth="yes"/>
      <point x="367" y="297" type="line"/>
      <point x="226" y="276" type="line" smooth="yes"/>
      <point x="133" y="262"/>
      <point x="44" y="227"/>
      <point x="44" y="125" type="curve" smooth="yes"/>
      <point x="44" y="33"/>
      <point x="119" y="-12"/>
      <point x="197" y="-12" type="curve" smooth="yes"/>
    </contour>
    <contour>
      <point x="164" y="39"/>
      <point x="120" y="68"/>
      <point x="120" y="129" type="curve" smooth="yes"/>
      <point x="120" y="192"/>
      <point x="172" y="218"/>
      <point x="243" y="230" type="curve" smooth="yes"/>
      <point x="367" y="250" type="line"/>
      <point x="367" y="170" type="line" smooth="yes"/>
      <point x="367" y="96"/>
      <point x="294" y="39"/>
      <point x="220" y="39" type="curve" smooth="yes"/>
    </contour>
  </outline>
</glyph>
<glyph name="b" format="1">
  <advance width="577"/>
  <unicode hex="0062"/>
  <note>
	b
  </note>
  <outline>
    <contour>
      <point x="430" y="-12"/>
      <point x="536" y="66"/>
      <point x="536" y="240" type="curve" smooth="yes"/>
      <point x="536" y="419"/>
      <point x="445" y="499"/>
      <point x="325" y="499" type="curve" smooth="yes"/>
      <point x="260" y="499"/>
      <point x="203" y="473"/>
      <point x="163" y="424" type="curve"/>
      <point x="160" y="426" type="line"/>
      <point x="160" y="710" type="line"/>
      <point x="56" y="710" type="line" smooth="yes"/>
      <point x="36" y="710"/>
      <point x="21" y="702"/>
      <point x="21" y="683" type="curve" smooth="yes"/>
      <point x="21" y="670"/>
      <point x="27" y="663"/>
      <point x="37" y="663" type="curve" smooth="yes"/>
      <point x="87" y="663" type="line"/>
      <point x="87" y="47" type="line"/>
      <point x="144" y="12"/>
      <point x="226" y="-12"/>
      <point x="294" y="-12" type="curve" smooth="yes"/>
    </contour>
    <contour>
      <point x="249" y="37"/>
      <point x="196" y="51"/>
      <point x="161" y="73" type="curve"/>
      <point x="161" y="325" type="line" smooth="yes"/>
      <point x="161" y="394"/>
      <point x="230" y="450"/>
      <point x="305" y="450" type="curve" smooth="yes"/>
      <point x="394" y="450"/>
      <point x="459" y="393"/>
      <point x="459" y="239" type="curve" smooth="yes"/>
      <point x="459" y="111"/>
      <point x="408" y="37"/>
      <point x="289" y="37" type="curve" smooth="yes"/>
    </contour>
  </outline>
</glyph>
<glyph name="c" format="1">
  <advance width="484"/>
  <unicode hex="0063"/>
  <note>
	c
  </note>
  <outline>
    <contour>
      <point x="331" y="-12"/>
      <point x="376" y="2"/>
      <point x="414" y="24" type="curve" smooth="yes"/>
      <point x="433" y="35"/>
      <point x="447" y="48"/>
      <point x="447" y="62" type="curve" smooth="yes"/>
      <point x="447" y="75"/>
      <point x="438" y="86"/>
      <point x="426" y="86" type="curve" smooth="yes"/>
      <point x="419" y="86"/>
      <point x="416" y="83"/>
      <point x="406" y="76" type="curve" smooth="yes"/>
      <point x="372" y="52"/>
      <point x="333" y="37"/>
      <point x="283" y="37" type="curve" smooth="yes"/>
      <point x="184" y="37"/>
      <point x="114" y="110"/>
      <point x="114" y="244" type="curve" smooth="yes"/>
      <point x="114" y="378"/>
      <point x="182" y="449"/>
      <point x="278" y="449" type="curve" smooth="yes"/>
      <point x="319" y="449"/>
      <point x="366" y="436"/>
      <point x="390" y="414" type="curve"/>
      <point x="399" y="365" type="line" smooth="yes"/>
      <point x="403" y="346"/>
      <point x="410" y="337"/>
      <point x="424" y="337" type="curve" smooth="yes"/>
      <point x="435" y="337"/>
      <point x="440" y="343"/>
      <point x="440" y="350" type="curve" smooth="yes"/>
      <point x="440" y="439" type="line"/>
      <point x="408" y="470"/>
      <point x="338" y="499"/>
      <point x="270" y="499" type="curve" smooth="yes"/>
      <point x="132" y="499"/>
      <point x="39" y="403"/>
      <point x="39" y="244" type="curve" smooth="yes"/>
      <point x="39" y="88"/>
      <point x="130" y="-12"/>
      <point x="279" y="-12" type="curve" smooth="yes"/>
    </contour>
  </outline>
</glyph>
<glyph name="e" format="1">
  <advance width="519"/>
  <unicode hex="0065"/>
  <note>
	e
  </note>
  <outline>
    <contour>
      <point x="334" y="-12"/>
      <point x="381" y="0"/>
      <point x="423" y="25" type="curve" smooth="yes"/>
      <point x="443" y="37"/>
      <point x="454" y="48"/>
      <point x="454" y="62" type="curve" smooth="yes"/>
      <point x="454" y="76"/>
      <point x="445" y="86"/>
      <point x="433" y="86" type="curve" smooth="yes"/>
      <point x="426" y="86"/>
      <point x="422" y="83"/>
      <point x="412" y="77" type="curve" smooth="yes"/>
      <point x="373" y="50"/>
      <point x="335" y="37"/>
      <point x="283" y="37" type="curve" smooth="yes"/>
      <point x="193" y="37"/>
      <point x="117" y="99"/>
      <point x="117" y="227" type="curve"/>
      <point x="468" y="227" type="line"/>
      <point x="475" y="244"/>
      <point x="481" y="268"/>
      <point x="481" y="290" type="curve" smooth="yes"/>
      <point x="481" y="416"/>
      <point x="402" y="499"/>
      <point x="272" y="499" type="curve" smooth="yes"/>
      <point x="128" y="499"/>
      <point x="41" y="397"/>
      <point x="41" y="240" type="curve" smooth="yes"/>
      <point x="41" y="83"/>
      <point x="138" y="-12"/>
      <point x="280" y="-12" type="curve" smooth="yes"/>
    </contour>
    <contour>
      <point x="124" y="385"/>
      <point x="185" y="450"/>
      <point x="270" y="450" type="curve" smooth="yes"/>
      <point x="349" y="450"/>
      <point x="405" y="400"/>
      <point x="405" y="305" type="curve" smooth="yes"/>
      <point x="405" y="296"/>
      <point x="404" y="284"/>
      <point x="401" y="277" type="curve"/>
      <point x="117" y="277" type="line"/>
    </contour>
  </outline>
</glyph>
<glyph name="f" format="1">
  <advance width="403"/>
  <unicode hex="0066"/>
  <note>
	f
  </note>
  <outline>
    <contour>
      <point x="256" y="0" type="line" smooth="yes"/>
      <point x="265" y="0"/>
      <point x="268" y="6"/>
      <point x="268" y="12" type="curve" smooth="yes"/>
      <point x="268" y="25"/>
      <point x="258" y="30"/>
      <point x="241" y="36" type="curve"/>
      <point x="194" y="47" type="line"/>
      <point x="194" y="436" type="line"/>
      <point x="289" y="444" type="line" smooth="yes"/>
      <point x="321" y="447"/>
      <point x="334" y="457"/>
      <point x="334" y="473" type="curve" smooth="yes"/>
      <point x="334" y="481"/>
      <point x="330" y="487"/>
      <point x="321" y="487" type="curve" smooth="yes"/>
      <point x="194" y="487" type="line"/>
      <point x="194" y="581" type="line" smooth="yes"/>
      <point x="194" y="638"/>
      <point x="227" y="669"/>
      <point x="275" y="669" type="curve" smooth="yes"/>
      <point x="300" y="669"/>
      <point x="326" y="663"/>
      <point x="347" y="649" type="curve"/>
      <point x="356" y="602" type="line" smooth="yes"/>
      <point x="360" y="583"/>
      <point x="367" y="574"/>
      <point x="381" y="574" type="curve" smooth="yes"/>
      <point x="391" y="574"/>
      <point x="396" y="580"/>
      <point x="396" y="587" type="curve" smooth="yes"/>
      <point x="396" y="673" type="line"/>
      <point x="368" y="698"/>
      <point x="317" y="719"/>
      <point x="262" y="719" type="curve" smooth="yes"/>
      <point x="180" y="719"/>
      <point x="119" y="671"/>
      <point x="119" y="577" type="curve" smooth="yes"/>
      <point x="119" y="487" type="line"/>
      <point x="80" y="487" type="line" smooth="yes"/>
      <point x="59" y="487"/>
      <point x="45" y="476"/>
      <point x="45" y="458" type="curve" smooth="yes"/>
      <point x="45" y="445"/>
      <point x="52" y="436"/>
      <point x="62" y="436" type="curve" smooth="yes"/>
      <point x="119" y="436" type="line"/>
      <point x="119" y="47" type="line"/>
      <point x="87" y="47" type="line" smooth="yes"/>
      <point x="67" y="47"/>
      <point x="52" y="38"/>
      <point x="52" y="20" type="curve" smooth="yes"/>
      <point x="52" y="7"/>
      <point x="58" y="0"/>
      <point x="68" y="0" type="curve" smooth="yes"/>
    </contour>
  </outline>
</glyph>
<glyph name="g" format="1">
  <advance width="551"/>
  <unicode hex="0067"/>
  <note>
	g
  </note>
  <outline>
    <contour>
      <point x="418" y="-230"/>
      <point x="491" y="-154"/>
      <point x="491" y="-30" type="curve" smooth="yes"/>
      <point x="491" y="424" type="line"/>
      <point x="440" y="468"/>
      <point x="358" y="499"/>
      <point x="285" y="499" type="curve" smooth="yes"/>
      <point x="151" y="499"/>
      <point x="39" y="414"/>
      <point x="39" y="240" type="curve" smooth="yes"/>
      <point x="39" y="65"/>
      <point x="142" y="-12"/>
      <point x="258" y="-12" type="curve" smooth="yes"/>
      <point x="335" y="-12"/>
      <point x="385" y="23"/>
      <point x="415" y="65" type="curve"/>
      <point x="419" y="65" type="line"/>
      <point x="419" y="-41" type="line" smooth="yes"/>
      <point x="419" y="-133"/>
      <point x="368" y="-180"/>
      <point x="271" y="-180" type="curve" smooth="yes"/>
      <point x="221" y="-180"/>
      <point x="167" y="-167"/>
      <point x="123" y="-139" type="curve" smooth="yes"/>
      <point x="112" y="-133"/>
      <point x="108" y="-130"/>
      <point x="102" y="-130" type="curve" smooth="yes"/>
      <point x="92" y="-130"/>
      <point x="82" y="-138"/>
      <point x="82" y="-153" type="curve" smooth="yes"/>
      <point x="82" y="-169"/>
      <point x="97" y="-180"/>
      <point x="115" y="-191" type="curve" smooth="yes"/>
      <point x="155" y="-214"/>
      <point x="215" y="-230"/>
      <point x="273" y="-230" type="curve" smooth="yes"/>
    </contour>
    <contour>
      <point x="172" y="37"/>
      <point x="115" y="113"/>
      <point x="115" y="240" type="curve" smooth="yes"/>
      <point x="115" y="382"/>
      <point x="193" y="450"/>
      <point x="285" y="450" type="curve" smooth="yes"/>
      <point x="331" y="450"/>
      <point x="380" y="434"/>
      <point x="416" y="408" type="curve"/>
      <point x="416" y="170" type="line" smooth="yes"/>
      <point x="416" y="91"/>
      <point x="350" y="37"/>
      <point x="276" y="37" type="curve" smooth="yes"/>
    </contour>
  </outline>
</glyph>
<glyph name="h" format="1">
  <advance width="627"/>
  <unicode hex="0068"/>
  <note>
	h
  </note>
  <outline>
    <contour>
      <point x="255" y="0" type="line" smooth="yes"/>
      <point x="264" y="0"/>
      <point x="267" y="6"/>
      <point x="267" y="12" type="curve" smooth="yes"/>
      <point x="267" y="25"/>
      <point x="259" y="32"/>
      <point x="240" y="36" type="curve" smooth="yes"/>
      <point x="192" y="47" type="line"/>
      <point x="192" y="368" type="line"/>
      <point x="233" y="414"/>
      <point x="290" y="448"/>
      <point x="344" y="448" type="curve" smooth="yes"/>
      <point x="416" y="448"/>
      <point x="454" y="403"/>
      <point x="454" y="340" type="curve" smooth="yes"/>
      <point x="454" y="47" type="line"/>
      <point x="423" y="47" type="line" smooth="yes"/>
      <point x="403" y="47"/>
      <point x="388" y="38"/>
      <point x="388" y="20" type="curve" smooth="yes"/>
      <point x="388" y="7"/>
      <point x="394" y="0"/>
      <point x="404" y="0" type="curve" smooth="yes"/>
      <point x="592" y="0" type="line" smooth="yes"/>
      <point x="601" y="0"/>
      <point x="604" y="6"/>
      <point x="604" y="12" type="curve" smooth="yes"/>
      <point x="604" y="25"/>
      <point x="596" y="32"/>
      <point x="577" y="36" type="curve" smooth="yes"/>
      <point x="529" y="47" type="line"/>
      <point x="529" y="345" type="line" smooth="yes"/>
      <point x="529" y="443"/>
      <point x="457" y="499"/>
      <point x="366" y="499" type="curve" smooth="yes"/>
      <point x="297" y="499"/>
      <point x="239" y="465"/>
      <point x="192" y="421" type="curve"/>
      <point x="189" y="422" type="line"/>
      <point x="189" y="710" type="line"/>
      <point x="86" y="710" type="line" smooth="yes"/>
      <point x="66" y="710"/>
      <point x="51" y="702"/>
      <point x="51" y="683" type="curve" smooth="yes"/>
      <point x="51" y="670"/>
      <point x="57" y="663"/>
      <point x="67" y="663" type="curve" smooth="yes"/>
      <point x="117" y="663" type="line"/>
      <point x="117" y="47" type="line"/>
      <point x="86" y="47" type="line" smooth="yes"/>
      <point x="66" y="47"/>
      <point x="51" y="38"/>
      <point x="51" y="20" type="curve" smooth="yes"/>
      <point x="51" y="7"/>
      <point x="57" y="0"/>
      <point x="67" y="0" type="curve" smooth="yes"/>
    </contour>
  </outline>
</glyph>
<glyph name="i" format="1">
  <advance width="278"/>
  <unicode hex="0069"/>
  <note>
	i
  </note>
  <outline>
    <contour>
      <point x="247" y="0" type="line" smooth="yes"/>
      <point x="256" y="0"/>
      <point x="259" y="6"/>
      <point x="259" y="12" type="curve" smooth="yes"/>
      <point x="259" y="25"/>
      <point x="251" y="32"/>
      <point x="232" y="36" type="curve" smooth="yes"/>
      <point x="185" y="47" type="line"/>
      <point x="185" y="489" type="line"/>
      <point x="78" y="489" type="line" smooth="yes"/>
      <point x="58" y="489"/>
      <point x="43" y="481"/>
      <point x="43" y="462" type="curve" smooth="yes"/>
      <point x="43" y="449"/>
      <point x="49" y="442"/>
      <point x="59" y="442" type="curve" smooth="yes"/>
      <point x="110" y="442" type="line"/>
      <point x="110" y="47" type="line"/>
      <point x="78" y="47" type="line" smooth="yes"/>
      <point x="58" y="47"/>
      <point x="43" y="38"/>
      <point x="43" y="20" type="curve" smooth="yes"/>
      <point x="43" y="7"/>
      <point x="49" y="0"/>
      <point x="59" y="0" type="curve" smooth="yes"/>
    </contour>
    <contour>
      <point x="175" y="570"/>
      <point x="200" y="590"/>
      <point x="200" y="624" type="curve" smooth="yes"/>
      <point x="200" y="658"/>
      <point x="175" y="678"/>
      <point x="145" y="678" type="curve" smooth="yes"/>
      <point x="115" y="678"/>
      <point x="91" y="658"/>
      <point x="91" y="624" type="curve" smooth="yes"/>
      <point x="91" y="590"/>
      <point x="115" y="570"/>
      <point x="145" y="570" type="curve" smooth="yes"/>
    </contour>
  </outline>
</glyph>
<glyph name="j" format="1">
  <advance width="298"/>
  <unicode hex="006A"/>
  <note>
	j
  </note>
  <outline>
    <contour>
      <point x="68" y="-230"/>
      <point x="81" y="-226"/>
      <point x="99" y="-217" type="curve" smooth="yes"/>
      <point x="180" y="-178"/>
      <point x="228" y="-111"/>
      <point x="228" y="9" type="curve" smooth="yes"/>
      <point x="228" y="489" type="line"/>
      <point x="122" y="489" type="line" smooth="yes"/>
      <point x="101" y="489"/>
      <point x="86" y="481"/>
      <point x="86" y="462" type="curve" smooth="yes"/>
      <point x="86" y="449"/>
      <point x="92" y="442"/>
      <point x="102" y="442" type="curve" smooth="yes"/>
      <point x="153" y="442" type="line"/>
      <point x="153" y="15" type="line" smooth="yes"/>
      <point x="153" y="-90"/>
      <point x="115" y="-139"/>
      <point x="10" y="-174" type="curve"/>
      <point x="12" y="-214"/>
      <point x="30" y="-230"/>
      <point x="54" y="-230" type="curve" smooth="yes"/>
    </contour>
    <contour>
      <point x="216" y="570"/>
      <point x="241" y="590"/>
      <point x="241" y="624" type="curve" smooth="yes"/>
      <point x="241" y="658"/>
      <point x="216" y="678"/>
      <point x="186" y="678" type="curve" smooth="yes"/>
      <point x="156" y="678"/>
      <point x="132" y="658"/>
      <point x="132" y="624" type="curve" smooth="yes"/>
      <point x="132" y="590"/>
      <point x="156" y="570"/>
      <point x="186" y="570" type="curve" smooth="yes"/>
    </contour>
  </outline>
</glyph>
<glyph name="k" format="1">
  <advance width="582"/>
  <unicode hex="006B"/>
  <note>
	k
  </note>
  <outline>
    <contour>
      <point x="544" y="0" type="line" smooth="yes"/>
      <point x="554" y="0"/>
      <point x="556" y="6"/>
      <point x="556" y="13" type="curve" smooth="yes"/>
      <point x="556" y="26"/>
      <point x="546" y="33"/>
      <point x="527" y="37" type="curve" smooth="yes"/>
      <point x="483" y="47" type="line"/>
      <point x="276" y="270" type="line"/>
      <point x="458" y="440" type="line"/>
      <point x="498" y="448" type="line" smooth="yes"/>
      <point x="515" y="451"/>
      <point x="527" y="460"/>
      <point x="527" y="473" type="curve" smooth="yes"/>
      <point x="527" y="483"/>
      <point x="523" y="489"/>
      <point x="514" y="489" type="curve" smooth="yes"/>
      <point x="349" y="489" type="line" smooth="yes"/>
      <point x="327" y="489"/>
      <point x="312" y="480"/>
      <point x="312" y="461" type="curve" smooth="yes"/>
      <point x="312" y="448"/>
      <point x="318" y="440"/>
      <point x="329" y="440" type="curve" smooth="yes"/>
      <point x="389" y="440" type="line"/>
      <point x="192" y="259" type="line"/>
      <point x="425" y="0" type="line"/>
    </contour>
    <contour>
      <point x="254" y="0" type="line" smooth="yes"/>
      <point x="264" y="0"/>
      <point x="266" y="6"/>
      <point x="266" y="12" type="curve" smooth="yes"/>
      <point x="266" y="24"/>
      <point x="258" y="32"/>
      <point x="239" y="36" type="curve" smooth="yes"/>
      <point x="192" y="47" type="line"/>
      <point x="192" y="710" type="line"/>
      <point x="86" y="710" type="line" smooth="yes"/>
      <point x="66" y="710"/>
      <point x="51" y="702"/>
      <point x="51" y="683" type="curve" smooth="yes"/>
      <point x="51" y="670"/>
      <point x="57" y="663"/>
      <point x="67" y="663" type="curve" smooth="yes"/>
      <point x="117" y="663" type="line"/>
      <point x="117" y="47" type="line"/>
      <point x="86" y="47" type="line" smooth="yes"/>
      <point x="66" y="47"/>
      <point x="51" y="38"/>
      <point x="51" y="20" type="curve" smooth="yes"/>
      <point x="51" y="7"/>
      <point x="57" y="0"/>
      <point x="67" y="0" type="curve" smooth="yes"/>
    </contour>
  </outline>
</glyph>
<glyph name="l" format="1">
  <advance width="296"/>
  <unicode hex="006C"/>
  <note>
	l
  </note>
  <outline>
    <contour>
      <point x="257" y="0" type="line" smooth="yes"/>
      <point x="266" y="0"/>
      <point x="269" y="6"/>
      <point x="269" y="12" type="curve" smooth="yes"/>
      <point x="269" y="25"/>
      <point x="261" y="32"/>
      <point x="242" y="36" type="curve" smooth="yes"/>
      <point x="194" y="47" type="line"/>
      <point x="194" y="710" type="line"/>
      <point x="88" y="710" type="line" smooth="yes"/>
      <point x="68" y="710"/>
      <point x="53" y="702"/>
      <point x="53" y="683" type="curve" smooth="yes"/>
      <point x="53" y="670"/>
      <point x="59" y="663"/>
      <point x="69" y="663" type="curve" smooth="yes"/>
      <point x="119" y="663" type="line"/>
      <point x="119" y="47" type="line"/>
      <point x="88" y="47" type="line" smooth="yes"/>
      <point x="68" y="47"/>
      <point x="53" y="38"/>
      <point x="53" y="20" type="curve" smooth="yes"/>
      <point x="53" y="7"/>
      <point x="59" y="0"/>
      <point x="69" y="0" type="curve" smooth="yes"/>
    </contour>
  </outline>
</glyph>
<glyph name="m" format="1">
  <advance width="905"/>
  <unicode hex="006D"/>
  <note>
	m
  </note>
  <outline>
    <contour>
      <point x="251" y="0" type="line" smooth="yes"/>
      <point x="260" y="0"/>
      <point x="262" y="6"/>
      <point x="262" y="12" type="curve" smooth="yes"/>
      <point x="262" y="24"/>
      <point x="256" y="32"/>
      <point x="237" y="36" type="curve" smooth="yes"/>
      <point x="189" y="46" type="line"/>
      <point x="189" y="371" type="line"/>
      <point x="228" y="412"/>
      <point x="279" y="447"/>
      <point x="331" y="447" type="curve" smooth="yes"/>
      <point x="388" y="447"/>
      <point x="425" y="412"/>
      <point x="425" y="343" type="curve" smooth="yes"/>
      <point x="425" y="47" type="line"/>
      <point x="395" y="47" type="line" smooth="yes"/>
      <point x="375" y="47"/>
      <point x="360" y="38"/>
      <point x="360" y="20" type="curve" smooth="yes"/>
      <point x="360" y="7"/>
      <point x="366" y="0"/>
      <point x="376" y="0" type="curve" smooth="yes"/>
      <point x="561" y="0" type="line" smooth="yes"/>
      <point x="571" y="0"/>
      <point x="573" y="6"/>
      <point x="573" y="12" type="curve" smooth="yes"/>
      <point x="573" y="24"/>
      <point x="566" y="32"/>
      <point x="547" y="36" type="curve" smooth="yes"/>
      <point x="500" y="46" type="line"/>
      <point x="500" y="372" type="line"/>
      <point x="538" y="412"/>
      <point x="588" y="447"/>
      <point x="641" y="447" type="curve" smooth="yes"/>
      <point x="698" y="447"/>
      <point x="736" y="412"/>
      <point x="736" y="343" type="curve" smooth="yes"/>
      <point x="736" y="47" type="line"/>
      <point x="705" y="47" type="line" smooth="yes"/>
      <point x="685" y="47"/>
      <point x="670" y="38"/>
      <point x="670" y="20" type="curve" smooth="yes"/>
      <point x="670" y="7"/>
      <point x="676" y="0"/>
      <point x="686" y="0" type="curve" smooth="yes"/>
      <point x="871" y="0" type="line" smooth="yes"/>
      <point x="881" y="0"/>
      <point x="883" y="6"/>
      <point x="883" y="12" type="curve" smooth="yes"/>
      <point x="883" y="24"/>
      <point x="876" y="32"/>
      <point x="857" y="36" type="curve" smooth="yes"/>
      <point x="811" y="46" type="line"/>
      <point x="811" y="349" type="line" smooth="yes"/>
      <point x="811" y="449"/>
      <point x="744" y="499"/>
      <point x="663" y="499" type="curve" smooth="yes"/>
      <point x="590" y="499"/>
      <point x="533" y="457"/>
      <point x="488" y="415" type="curve"/>
      <point x="466" y="471"/>
      <point x="414" y="499"/>
      <point x="354" y="499" type="curve" smooth="yes"/>
      <point x="286" y="499"/>
      <point x="231" y="460"/>
      <point x="188" y="421" type="curve"/>
      <point x="185" y="421" type="line"/>
      <point x="185" y="489" type="line"/>
      <point x="83" y="489" type="line" smooth="yes"/>
      <point x="63" y="489"/>
      <point x="48" y="481"/>
      <point x="48" y="462" type="curve" smooth="yes"/>
      <point x="48" y="449"/>
      <point x="54" y="442"/>
      <point x="64" y="442" type="curve" smooth="yes"/>
      <point x="114" y="442" type="line"/>
      <point x="114" y="47" type="line"/>
      <point x="83" y="47" type="line" smooth="yes"/>
      <point x="63" y="47"/>
      <point x="48" y="38"/>
      <point x="48" y="20" type="curve" smooth="yes"/>
      <point x="48" y="7"/>
      <point x="54" y="0"/>
      <point x="64" y="0" type="curve" smooth="yes"/>
    </contour>
  </outline>
</glyph>
<glyph name="n" format="1">
  <advance width="624"/>
  <unicode hex="006E"/>
  <note>
	n
  </note>
  <outline>
    <contour>
      <point x="252" y="0" type="line" smooth="yes"/>
      <point x="261" y="0"/>
      <point x="264" y="6"/>
      <point x="264" y="12" type="curve" smooth="yes"/>
      <point x="264" y="25"/>
      <point x="256" y="32"/>
      <point x="237" y="36" type="curve" smooth="yes"/>
      <point x="189" y="47" type="line"/>
      <point x="189" y="367" type="line"/>
      <point x="231" y="414"/>
      <point x="287" y="447"/>
      <point x="341" y="447" type="curve" smooth="yes"/>
      <point x="413" y="447"/>
      <point x="451" y="402"/>
      <point x="451" y="339" type="curve" smooth="yes"/>
      <point x="451" y="47" type="line"/>
      <point x="420" y="47" type="line" smooth="yes"/>
      <point x="400" y="47"/>
      <point x="385" y="38"/>
      <point x="385" y="20" type="curve" smooth="yes"/>
      <point x="385" y="7"/>
      <point x="391" y="0"/>
      <point x="401" y="0" type="curve" smooth="yes"/>
      <point x="589" y="0" type="line" smooth="yes"/>
      <point x="598" y="0"/>
      <point x="601" y="6"/>
      <point x="601" y="12" type="curve" smooth="yes"/>
      <point x="601" y="25"/>
      <point x="592" y="32"/>
      <point x="574" y="36" type="curve" smooth="yes"/>
      <point x="526" y="47" type="line"/>
      <point x="526" y="345" type="line" smooth="yes"/>
      <point x="526" y="443"/>
      <point x="454" y="499"/>
      <point x="363" y="499" type="curve" smooth="yes"/>
      <point x="294" y="499"/>
      <point x="236" y="464"/>
      <point x="188" y="419" type="curve"/>
      <point x="185" y="419" type="line"/>
      <point x="185" y="489" type="line"/>
      <point x="83" y="489" type="line" smooth="yes"/>
      <point x="63" y="489"/>
      <point x="48" y="481"/>
      <point x="48" y="462" type="curve" smooth="yes"/>
      <point x="48" y="449"/>
      <point x="54" y="442"/>
      <point x="64" y="442" type="curve" smooth="yes"/>
      <point x="114" y="442" type="line"/>
      <point x="114" y="47" type="line"/>
      <point x="83" y="47" type="line" smooth="yes"/>
      <point x="63" y="47"/>
      <point x="48" y="38"/>
      <point x="48" y="20" type="curve" smooth="yes"/>
      <point x="48" y="7"/>
      <point x="54" y="0"/>
      <point x="64" y="0" type="curve" smooth="yes"/>
    </contour>
  </outline>
</glyph>
<glyph name="p" format="1">
  <advance width="609"/>
  <unicode hex="0070"/>
  <note>
	p
  </note>
  <outline>
    <contour>
      <point x="255" y="-213" type="line" smooth="yes"/>
      <point x="264" y="-213"/>
      <point x="266" y="-207"/>
      <point x="266" y="-201" type="curve" smooth="yes"/>
      <point x="266" y="-188"/>
      <point x="258" y="-181"/>
      <point x="240" y="-177" type="curve" smooth="yes"/>
      <point x="192" y="-166" type="line"/>
      <point x="192" y="23" type="line"/>
      <point x="233" y="2"/>
      <point x="290" y="-12"/>
      <point x="332" y="-12" type="curve" smooth="yes"/>
      <point x="471" y="-12"/>
      <point x="568" y="72"/>
      <point x="568" y="240" type="curve" smooth="yes"/>
      <point x="568" y="419"/>
      <point x="474" y="499"/>
      <point x="354" y="499" type="curve" smooth="yes"/>
      <point x="289" y="499"/>
      <point x="232" y="472"/>
      <point x="192" y="423" type="curve"/>
      <point x="189" y="423" type="line"/>
      <point x="189" y="489" type="line"/>
      <point x="86" y="489" type="line" smooth="yes"/>
      <point x="66" y="489"/>
      <point x="51" y="481"/>
      <point x="51" y="462" type="curve" smooth="yes"/>
      <point x="51" y="449"/>
      <point x="57" y="442"/>
      <point x="67" y="442" type="curve" smooth="yes"/>
      <point x="117" y="442" type="line"/>
      <point x="117" y="-166" type="line"/>
      <point x="86" y="-166" type="line" smooth="yes"/>
      <point x="66" y="-166"/>
      <point x="51" y="-175"/>
      <point x="51" y="-193" type="curve" smooth="yes"/>
      <point x="51" y="-206"/>
      <point x="57" y="-213"/>
      <point x="67" y="-213" type="curve" smooth="yes"/>
    </contour>
    <contour>
      <point x="280" y="37"/>
      <point x="224" y="53"/>
      <point x="191" y="75" type="curve"/>
      <point x="191" y="325" type="line" smooth="yes"/>
      <point x="191" y="394"/>
      <point x="260" y="450"/>
      <point x="336" y="450" type="curve" smooth="yes"/>
      <point x="425" y="450"/>
      <point x="491" y="393"/>
      <point x="491" y="239" type="curve" smooth="yes"/>
      <point x="491" y="113"/>
      <point x="439" y="37"/>
      <point x="320" y="37" type="curve" smooth="yes"/>
    </contour>
  </outline>
</glyph>
<glyph name="q" format="1">
  <advance width="580"/>
  <unicode hex="0071"/>
  <note>
	q
  </note>
  <outline>
    <contour>
      <point x="548" y="-213" type="line" smooth="yes"/>
      <point x="557" y="-213"/>
      <point x="559" y="-207"/>
      <point x="559" y="-201" type="curve" smooth="yes"/>
      <point x="559" y="-188"/>
      <point x="551" y="-181"/>
      <point x="533" y="-177" type="curve" smooth="yes"/>
      <point x="491" y="-167" type="line"/>
      <point x="491" y="489" type="line"/>
      <point x="447" y="489" type="line" smooth="yes"/>
      <point x="429" y="489"/>
      <point x="419" y="476"/>
      <point x="417" y="452" type="curve"/>
      <point x="378" y="479"/>
      <point x="327" y="499"/>
      <point x="267" y="499" type="curve" smooth="yes"/>
      <point x="140" y="499"/>
      <point x="39" y="400"/>
      <point x="39" y="240" type="curve" smooth="yes"/>
      <point x="39" y="65"/>
      <point x="142" y="-12"/>
      <point x="258" y="-12" type="curve" smooth="yes"/>
      <point x="336" y="-12"/>
      <point x="386" y="24"/>
      <point x="416" y="67" type="curve"/>
      <point x="419" y="67" type="line"/>
      <point x="419" y="-166" type="line"/>
      <point x="381" y="-166" type="line" smooth="yes"/>
      <point x="360" y="-166"/>
      <point x="345" y="-175"/>
      <point x="345" y="-193" type="curve" smooth="yes"/>
      <point x="345" y="-206"/>
      <point x="351" y="-213"/>
      <point x="361" y="-213" type="curve" smooth="yes"/>
    </contour>
    <contour>
      <point x="172" y="37"/>
      <point x="115" y="113"/>
      <point x="115" y="240" type="curve" smooth="yes"/>
      <point x="115" y="380"/>
      <point x="192" y="450"/>
      <point x="281" y="450" type="curve" smooth="yes"/>
      <point x="332" y="450"/>
      <point x="381" y="430"/>
      <point x="416" y="399" type="curve"/>
      <point x="416" y="170" type="line" smooth="yes"/>
      <point x="416" y="91"/>
      <point x="350" y="37"/>
      <point x="276" y="37" type="curve" smooth="yes"/>
    </contour>
  </outline>
</glyph>
<glyph name="r" format="1">
  <advance width="412"/>
  <unicode hex="0072"/>
  <note>
	r
  </note>
  <outline>
    <contour>
      <point x="252" y="0" type="line" smooth="yes"/>
      <point x="261" y="0"/>
      <point x="264" y="6"/>
      <point x="264" y="12" type="curve" smooth="yes"/>
      <point x="264" y="25"/>
      <point x="256" y="32"/>
      <point x="237" y="36" type="curve" smooth="yes"/>
      <point x="189" y="47" type="line"/>
      <point x="189" y="336" type="line"/>
      <point x="247" y="392"/>
      <point x="312" y="425"/>
      <point x="386" y="425" type="curve"/>
      <point x="394" y="433"/>
      <point x="399" y="447"/>
      <point x="399" y="460" type="curve" smooth="yes"/>
      <point x="399" y="483"/>
      <point x="384" y="499"/>
      <point x="356" y="499" type="curve" smooth="yes"/>
      <point x="303" y="499"/>
      <point x="235" y="447"/>
      <point x="188" y="390" type="curve"/>
      <point x="185" y="390" type="line"/>
      <point x="185" y="489" type="line"/>
      <point x="83" y="489" type="line" smooth="yes"/>
      <point x="63" y="489"/>
      <point x="48" y="481"/>
      <point x="48" y="462" type="curve" smooth="yes"/>
      <point x="48" y="449"/>
      <point x="54" y="442"/>
      <point x="64" y="442" type="curve" smooth="yes"/>
      <point x="114" y="442" type="line"/>
      <point x="114" y="47" type="line"/>
      <point x="83" y="47" type="line" smooth="yes"/>
      <point x="63" y="47"/>
      <point x="48" y="38"/>
      <point x="48" y="20" type="curve" smooth="yes"/>
      <point x="48" y="7"/>
      <point x="54" y="0"/>
      <point x="64" y="0" type="curve" smooth="yes"/>
    </contour>
  </outline>
</glyph>
<glyph name="t" format="1">
  <advance width="396"/>
  <unicode hex="0074"/>
  <note>
	t
  </note>
  <outline>
    <contour>
      <point x="286" y="-12"/>
      <point x="316" y="-2"/>
      <point x="339" y="14" type="curve" smooth="yes"/>
      <point x="360" y="28"/>
      <point x="369" y="41"/>
      <point x="369" y="53" type="curve" smooth="yes"/>
      <point x="369" y="67"/>
      <point x="359" y="74"/>
      <point x="348" y="74" type="curve" smooth="yes"/>
      <point x="341" y="74"/>
      <point x="335" y="69"/>
      <point x="329" y="64" type="curve" smooth="yes"/>
      <point x="309" y="46"/>
      <point x="290" y="38"/>
      <point x="261" y="38" type="curve" smooth="yes"/>
      <point x="223" y="38"/>
      <point x="196" y="60"/>
      <point x="196" y="107" type="curve" smooth="yes"/>
      <point x="196" y="436" type="line"/>
      <point x="319" y="449" type="line" smooth="yes"/>
      <point x="347" y="452"/>
      <point x="360" y="459"/>
      <point x="360" y="475" type="curve" smooth="yes"/>
      <point x="360" y="483"/>
      <point x="355" y="487"/>
      <point x="348" y="487" type="curve" smooth="yes"/>
      <point x="196" y="487" type="line"/>
      <point x="196" y="593" type="line"/>
      <point x="135" y="593" type="line"/>
      <point x="122" y="487" type="line"/>
      <point x="71" y="487" type="line" smooth="yes"/>
      <point x="50" y="487"/>
      <point x="36" y="476"/>
      <point x="36" y="458" type="curve" smooth="yes"/>
      <point x="36" y="445"/>
      <point x="43" y="436"/>
      <point x="53" y="436" type="curve" smooth="yes"/>
      <point x="121" y="436" type="line"/>
      <point x="121" y="112" type="line" smooth="yes"/>
      <point x="121" y="31"/>
      <point x="178" y="-12"/>
      <point x="247" y="-12" type="curve" smooth="yes"/>
    </contour>
  </outline>
</glyph>
<glyph name="v" format="1">
  <advance width="550"/>
  <unicode hex="0076"/>
  <note>
	v
  </note>
  <outline>
    <contour>
      <point x="320" y="0" type="line"/>
      <point x="477" y="441" type="line"/>
      <point x="519" y="453" type="line" smooth="yes"/>
      <point x="533" y="457"/>
      <point x="545" y="465"/>
      <point x="545" y="477" type="curve" smooth="yes"/>
      <point x="545" y="483"/>
      <point x="543" y="489"/>
      <point x="534" y="489" type="curve" smooth="yes"/>
      <point x="377" y="489" type="line" smooth="yes"/>
      <point x="357" y="489"/>
      <point x="342" y="481"/>
      <point x="342" y="462" type="curve" smooth="yes"/>
      <point x="342" y="449"/>
      <point x="348" y="442"/>
      <point x="358" y="442" type="curve" smooth="yes"/>
      <point x="420" y="442" type="line"/>
      <point x="290" y="75" type="line" smooth="yes"/>
      <point x="284" y="59"/>
      <point x="281" y="35"/>
      <point x="281" y="35" type="curve" smooth="yes"/>
      <point x="277" y="35" type="line" smooth="yes"/>
      <point x="277" y="35"/>
      <point x="273" y="59"/>
      <point x="267" y="75" type="curve" smooth="yes"/>
      <point x="141" y="441" type="line"/>
      <point x="194" y="453" type="line" smooth="yes"/>
      <point x="209" y="456"/>
      <point x="221" y="464"/>
      <point x="221" y="477" type="curve" smooth="yes"/>
      <point x="221" y="483"/>
      <point x="218" y="489"/>
      <point x="209" y="489" type="curve" smooth="yes"/>
      <point x="40" y="489" type="line" smooth="yes"/>
      <point x="20" y="489"/>
      <point x="5" y="481"/>
      <point x="5" y="462" type="curve" smooth="yes"/>
      <point x="5" y="449"/>
      <point x="11" y="442"/>
      <point x="21" y="442" type="curve" smooth="yes"/>
      <point x="62" y="442" type="line"/>
      <point x="219" y="0" type="line"/>
    </contour>
  </outline>
</glyph>
<glyph name="w" format="1">
  <advance width="838"/>
  <unicode hex="0077"/>
  <note>
	w
  </note>
  <outline>
    <contour>
      <point x="296" y="0" type="line"/>
      <point x="403" y="376" type="line" smooth="yes"/>
      <point x="411" y="401"/>
      <point x="412" y="437"/>
      <point x="412" y="437" type="curve"/>
      <point x="416" y="437" type="line"/>
      <point x="416" y="437"/>
      <point x="418" y="401"/>
      <point x="425" y="376" type="curve" smooth="yes"/>
      <point x="538" y="0" type="line"/>
      <point x="638" y="0" type="line"/>
      <point x="765" y="441" type="line"/>
      <point x="807" y="453" type="line" smooth="yes"/>
      <point x="822" y="457"/>
      <point x="833" y="465"/>
      <point x="833" y="477" type="curve" smooth="yes"/>
      <point x="833" y="483"/>
      <point x="831" y="489"/>
      <point x="822" y="489" type="curve" smooth="yes"/>
      <point x="665" y="489" type="line" smooth="yes"/>
      <point x="645" y="489"/>
      <point x="630" y="481"/>
      <point x="630" y="462" type="curve" smooth="yes"/>
      <point x="630" y="449"/>
      <point x="636" y="442"/>
      <point x="646" y="442" type="curve" smooth="yes"/>
      <point x="709" y="442" type="line"/>
      <point x="608" y="80" type="line" smooth="yes"/>
      <point x="602" y="60"/>
      <point x="601" y="38"/>
      <point x="601" y="38" type="curve" smooth="yes"/>
      <point x="597" y="38" type="line" smooth="yes"/>
      <point x="597" y="38"/>
      <point x="595" y="60"/>
      <point x="590" y="80" type="curve" smooth="yes"/>
      <point x="465" y="489" type="line"/>
      <point x="380" y="489" type="line"/>
      <point x="263" y="80" type="line" smooth="yes"/>
      <point x="258" y="60"/>
      <point x="256" y="38"/>
      <point x="256" y="38" type="curve" smooth="yes"/>
      <point x="252" y="38" type="line" smooth="yes"/>
      <point x="252" y="38"/>
      <point x="251" y="60"/>
      <point x="245" y="80" type="curve" smooth="yes"/>
      <point x="137" y="441" type="line"/>
      <point x="194" y="453" type="line" smooth="yes"/>
      <point x="210" y="456"/>
      <point x="221" y="464"/>
      <point x="221" y="477" type="curve" smooth="yes"/>
      <point x="221" y="483"/>
      <point x="218" y="489"/>
      <point x="209" y="489" type="curve" smooth="yes"/>
      <point x="40" y="489" type="line" smooth="yes"/>
      <point x="20" y="489"/>
      <point x="5" y="481"/>
      <point x="5" y="462" type="curve" smooth="yes"/>
      <point x="5" y="449"/>
      <point x="11" y="442"/>
      <point x="21" y="442" type="curve" smooth="yes"/>
      <point x="62" y="442" type="line"/>
      <point x="196" y="0" type="line"/>
    </contour>
  </outline>
</glyph>
<glyph name="x" format="1">
  <advance width="539"/>
  <unicode hex="0078"/>
  <note>
	x
  </note>
  <outline>
    <contour>
      <point x="202" y="0" type="line" smooth="yes"/>
      <point x="210" y="0"/>
      <point x="213" y="7"/>
      <point x="213" y="12" type="curve" smooth="yes"/>
      <point x="213" y="24"/>
      <point x="205" y="32"/>
      <point x="187" y="36" type="curve" smooth="yes"/>
      <point x="133" y="48" type="line"/>
      <point x="250" y="219" type="line"/>
      <point x="399" y="0" type="line"/>
      <point x="514" y="0" type="line" smooth="yes"/>
      <point x="522" y="0"/>
      <point x="524" y="7"/>
      <point x="524" y="12" type="curve" smooth="yes"/>
      <point x="524" y="24"/>
      <point x="514" y="31"/>
      <point x="498" y="36" type="curve" smooth="yes"/>
      <point x="457" y="48" type="line"/>
      <point x="315" y="253" type="line"/>
      <point x="449" y="441" type="line"/>
      <point x="490" y="453" type="line" smooth="yes"/>
      <point x="506" y="458"/>
      <point x="515" y="465"/>
      <point x="515" y="477" type="curve" smooth="yes"/>
      <point x="515" y="482"/>
      <point x="513" y="489"/>
      <point x="505" y="489" type="curve" smooth="yes"/>
      <point x="351" y="489" type="line" smooth="yes"/>
      <point x="334" y="489"/>
      <point x="318" y="479"/>
      <point x="318" y="462" type="curve" smooth="yes"/>
      <point x="318" y="449"/>
      <point x="324" y="442"/>
      <point x="334" y="442" type="curve" smooth="yes"/>
      <point x="389" y="442" type="line"/>
      <point x="279" y="286" type="line"/>
      <point x="143" y="489" type="line"/>
      <point x="57" y="489" type="line" smooth="yes"/>
      <point x="40" y="489"/>
      <point x="24" y="479"/>
      <point x="24" y="462" type="curve" smooth="yes"/>
      <point x="24" y="449"/>
      <point x="30" y="442"/>
      <point x="40" y="442" type="curve" smooth="yes"/>
      <point x="84" y="442" type="line"/>
      <point x="213" y="251" type="line"/>
      <point x="73" y="47" type="line"/>
      <point x="49" y="47" type="line" smooth="yes"/>
      <point x="32" y="47"/>
      <point x="16" y="37"/>
      <point x="16" y="20" type="curve" smooth="yes"/>
      <point x="16" y="7"/>
      <point x="22" y="0"/>
      <point x="32" y="0" type="curve" smooth="yes"/>
    </contour>
  </outline>
</glyph>
<glyph name="y" format="1">
  <advance width="548"/>
  <unicode hex="0079"/>
  <note>
	y
  </note>
  <outline>
    <contour>
      <point x="185" y="-225"/>
      <point x="249" y="-139"/>
      <point x="287" y="-42" type="curve" smooth="yes"/>
      <point x="475" y="441" type="line"/>
      <point x="516" y="453" type="line" smooth="yes"/>
      <point x="530" y="457"/>
      <point x="543" y="465"/>
      <point x="543" y="477" type="curve" smooth="yes"/>
      <point x="543" y="483"/>
      <point x="541" y="489"/>
      <point x="532" y="489" type="curve" smooth="yes"/>
      <point x="375" y="489" type="line" smooth="yes"/>
      <point x="354" y="489"/>
      <point x="340" y="481"/>
      <point x="340" y="462" type="curve" smooth="yes"/>
      <point x="340" y="449"/>
      <point x="346" y="442"/>
      <point x="356" y="442" type="curve" smooth="yes"/>
      <point x="418" y="442" type="line"/>
      <point x="287" y="105" type="line" smooth="yes"/>
      <point x="283" y="95"/>
      <point x="283" y="74"/>
      <point x="283" y="74" type="curve" smooth="yes"/>
      <point x="279" y="74" type="line" smooth="yes"/>
      <point x="279" y="74"/>
      <point x="279" y="94"/>
      <point x="275" y="105" type="curve" smooth="yes"/>
      <point x="143" y="441" type="line"/>
      <point x="196" y="453" type="line" smooth="yes"/>
      <point x="211" y="456"/>
      <point x="223" y="464"/>
      <point x="223" y="477" type="curve" smooth="yes"/>
      <point x="223" y="483"/>
      <point x="220" y="489"/>
      <point x="211" y="489" type="curve" smooth="yes"/>
      <point x="42" y="489" type="line" smooth="yes"/>
      <point x="22" y="489"/>
      <point x="7" y="481"/>
      <point x="7" y="462" type="curve" smooth="yes"/>
      <point x="7" y="449"/>
      <point x="13" y="442"/>
      <point x="23" y="442" type="curve" smooth="yes"/>
      <point x="64" y="442" type="line"/>
      <point x="242" y="0" type="line"/>
      <point x="226" y="-43" type="line" smooth="yes"/>
      <point x="192" y="-130"/>
      <point x="144" y="-160"/>
      <point x="50" y="-160" type="curve"/>
      <point x="45" y="-169"/>
      <point x="43" y="-178"/>
      <point x="43" y="-187" type="curve" smooth="yes"/>
      <point x="43" y="-212"/>
      <point x="62" y="-225"/>
      <point x="87" y="-225" type="curve" smooth="yes"/>
    </contour>
  </outline>
</glyph>
<glyph name="z" format="1">
  <advance width="464"/>
  <unicode hex="007A"/>
  <note>
	z
  </note>
  <outline>
    <contour>
      <point x="422" y="0" type="line"/>
      <point x="422" y="112" type="line" smooth="yes"/>
      <point x="422" y="121"/>
      <point x="416" y="128"/>
      <point x="406" y="128" type="curve" smooth="yes"/>
      <point x="390" y="128"/>
      <point x="383" y="117"/>
      <point x="379" y="98" type="curve" smooth="yes"/>
      <point x="371" y="49" type="line"/>
      <point x="132" y="49" type="line"/>
      <point x="415" y="435" type="line"/>
      <point x="415" y="489" type="line"/>
      <point x="55" y="489" type="line"/>
      <point x="55" y="378" type="line" smooth="yes"/>
      <point x="55" y="369"/>
      <point x="61" y="363"/>
      <point x="71" y="363" type="curve" smooth="yes"/>
      <point x="87" y="363"/>
      <point x="94" y="373"/>
      <point x="98" y="393" type="curve" smooth="yes"/>
      <point x="106" y="440" type="line"/>
      <point x="326" y="440" type="line"/>
      <point x="42" y="54" type="line"/>
      <point x="42" y="0" type="line"/>
    </contour>
  </outline>
</glyph>
<glyph name="braceleft" format="1">
  <advance width="435"/>
  <unicode hex="007B"/>
  <note>
	braceleft
  </note>
  <outline>
    <contour>
      <point x="387" y="-152" type="line"/>
      <point x="387" y="-98" type="line"/>
      <point x="319" y="-98" type="line" smooth="yes"/>
      <point x="276" y="-98"/>
      <point x="246" y="-76"/>
      <point x="246" y="-23" type="curve" smooth="yes"/>
      <point x="246" y="158" type="line" smooth="yes"/>
      <point x="246" y="234"/>
      <point x="213" y="280"/>
      <point x="144" y="304" type="curve"/>
      <point x="214" y="330"/>
      <point x="246" y="375"/>
      <point x="246" y="452" type="curve" smooth="yes"/>
      <point x="246" y="630" type="line" smooth="yes"/>
      <point x="246" y="684"/>
      <point x="276" y="705"/>
      <point x="319" y="705" type="curve" smooth="yes"/>
      <point x="387" y="705" type="line"/>
      <point x="387" y="759" type="line"/>
      <point x="309" y="759" type="line" smooth="yes"/>
      <point x="234" y="759"/>
      <point x="170" y="728"/>
      <point x="170" y="626" type="curve" smooth="yes"/>
      <point x="170" y="465" type="line" smooth="yes"/>
      <point x="170" y="398"/>
      <point x="141" y="349"/>
      <point x="55" y="338" type="curve"/>
      <point x="55" y="269" type="line"/>
      <point x="141" y="260"/>
      <point x="170" y="219"/>
      <point x="170" y="143" type="curve" smooth="yes"/>
      <point x="170" y="-18" type="line" smooth="yes"/>
      <point x="170" y="-120"/>
      <point x="234" y="-152"/>
      <point x="309" y="-152" type="curve" smooth="yes"/>
    </contour>
  </outline>
</glyph>
<glyph name="bar" format="1">
  <advance width="290"/>
  <unicode hex="007C"/>
  <note>
	bar
  </note>
  <outline>
    <contour>
      <point x="183" y="-129" type="line"/>
      <point x="183" y="728" type="line"/>
      <point x="107" y="728" type="line"/>
      <point x="107" y="-129" type="line"/>
    </contour>
  </outline>
</glyph>
<glyph name="braceright" format="1">
  <advance width="435"/>
  <unicode hex="007D"/>
  <note>
	braceright
  </note>
  <outline>
    <contour>
      <point x="126" y="-152" type="line" smooth="yes"/>
      <point x="201" y="-152"/>
      <point x="265" y="-120"/>
      <point x="265" y="-18" type="curve" smooth="yes"/>
      <point x="265" y="143" type="line" smooth="yes"/>
      <point x="265" y="219"/>
      <point x="294" y="260"/>
      <point x="380" y="269" type="curve"/>
      <point x="380" y="338" type="line"/>
      <point x="294" y="349"/>
      <point x="265" y="398"/>
      <point x="265" y="465" type="curve" smooth="yes"/>
      <point x="265" y="626" type="line" smooth="yes"/>
      <point x="265" y="728"/>
      <point x="201" y="759"/>
      <point x="126" y="759" type="curve" smooth="yes"/>
      <point x="48" y="759" type="line"/>
      <point x="48" y="705" type="line"/>
      <point x="116" y="705" type="line" smooth="yes"/>
      <point x="160" y="705"/>
      <point x="189" y="684"/>
      <point x="189" y="630" type="curve" smooth="yes"/>
      <point x="189" y="452" type="line" smooth="yes"/>
      <point x="189" y="375"/>
      <point x="222" y="330"/>
      <point x="292" y="304" type="curve"/>
      <point x="222" y="280"/>
      <point x="189" y="234"/>
      <point x="189" y="158" type="curve" smooth="yes"/>
      <point x="189" y="-23" type="line" smooth="yes"/>
      <point x="189" y="-76"/>
      <point x="160" y="-98"/>
      <point x="116" y="-98" type="curve" smooth="yes"/>
      <point x="48" y="-98" type="line"/>
      <point x="48" y="-152" type="line"/>
    </contour>
  </outline>
</glyph>
<glyph name="asciitilde" format="1">
  <advance width="613"/>
  <unicode hex="007E"/>
  <note>
	asciitilde
  </note>
  <outline>
    <contour>
      <point x="460" y="240"/>
      <point x="509" y="263"/>
      <point x="550" y="294" type="curve"/>
      <point x="525" y="347" type="line"/>
      <point x="487" y="320"/>
      <point x="446" y="305"/>
      <point x="411" y="305" type="curve" smooth="yes"/>
      <point x="379" y="305"/>
      <point x="351" y="312"/>
      <point x="311" y="329" type="curve" smooth="yes"/>
      <point x="263" y="350"/>
      <point x="233" y="357"/>
      <point x="199" y="357" type="curve" smooth="yes"/>
      <point x="149" y="357"/>
      <point x="97" y="334"/>
      <point x="56" y="303" type="curve"/>
      <point x="82" y="250" type="line"/>
      <point x="120" y="277"/>
      <point x="162" y="292"/>
      <point x="197" y="292" type="curve" smooth="yes"/>
      <point x="228" y="292"/>
      <point x="255" y="285"/>
      <point x="295" y="268" type="curve" smooth="yes"/>
      <point x="343" y="247"/>
      <point x="376" y="240"/>
      <point x="410" y="240" type="curve" smooth="yes"/>
    </contour>
  </outline>
</glyph>
<glyph name="exclamdown" format="1">
  <advance width="314"/>
  <unicode hex="00A1"/>
  <note>
	exclamdown
  </note>
  <outline>
    <contour>
      <point x="202" y="-223" type="line"/>
      <point x="182" y="323" type="line"/>
      <point x="133" y="323" type="line"/>
      <point x="112" y="-223" type="line"/>
    </contour>
    <contour>
      <point x="183" y="396"/>
      <point x="204" y="414"/>
      <point x="204" y="442" type="curve" smooth="yes"/>
      <point x="204" y="471"/>
      <point x="183" y="489"/>
      <point x="157" y="489" type="curve" smooth="yes"/>
      <point x="132" y="489"/>
      <point x="111" y="471"/>
      <point x="111" y="442" type="curve" smooth="yes"/>
      <point x="111" y="414"/>
      <point x="132" y="396"/>
      <point x="157" y="396" type="curve" smooth="yes"/>
    </contour>
  </outline>
</glyph>
<glyph name="cent" format="1">
  <advance width="563"/>
  <unicode hex="00A2"/>
  <note>
	cent
  </note>
  <outline>
    <contour>
      <point x="331" y="-60" type="line"/>
      <point x="331" y="18" type="line"/>
      <point x="380" y="20"/>
      <point x="427" y="32"/>
      <point x="462" y="55" type="curve" smooth="yes"/>
      <point x="481" y="68"/>
      <point x="496" y="81"/>
      <point x="496" y="96" type="curve" smooth="yes"/>
      <point x="496" y="110"/>
      <point x="487" y="122"/>
      <point x="474" y="122" type="curve" smooth="yes"/>
      <point x="467" y="122"/>
      <point x="463" y="118"/>
      <point x="454" y="112" type="curve" smooth="yes"/>
      <point x="416" y="87"/>
      <point x="376" y="71"/>
      <point x="323" y="71" type="curve" smooth="yes"/>
      <point x="218" y="71"/>
      <point x="142" y="148"/>
      <point x="142" y="291" type="curve" smooth="yes"/>
      <point x="142" y="432"/>
      <point x="215" y="507"/>
      <point x="317" y="507" type="curve" smooth="yes"/>
      <point x="360" y="507"/>
      <point x="410" y="494"/>
      <point x="437" y="470" type="curve"/>
      <point x="446" y="418" type="line" smooth="yes"/>
      <point x="450" y="398"/>
      <point x="458" y="388"/>
      <point x="473" y="388" type="curve" smooth="yes"/>
      <point x="483" y="388"/>
      <point x="489" y="394"/>
      <point x="489" y="403" type="curve" smooth="yes"/>
      <point x="489" y="498" type="line"/>
      <point x="461" y="526"/>
      <point x="400" y="552"/>
      <point x="339" y="559" type="curve"/>
      <point x="339" y="635" type="line"/>
      <point x="278" y="635" type="line"/>
      <point x="278" y="559" type="line"/>
      <point x="148" y="546"/>
      <point x="63" y="446"/>
      <point x="63" y="291" type="curve" smooth="yes"/>
      <point x="63" y="143"/>
      <point x="141" y="41"/>
      <point x="270" y="22" type="curve"/>
      <point x="270" y="-60" type="line"/>
    </contour>
  </outline>
</glyph>
<glyph name="sterling" format="1">
  <advance width="646"/>
  <unicode hex="00A3"/>
  <note>
	sterling
  </note>
  <outline>
    <contour>
      <point x="534" y="0" type="line"/>
      <point x="534" y="116" type="line" smooth="yes"/>
      <point x="534" y="128"/>
      <point x="526" y="135"/>
      <point x="515" y="135" type="curve" smooth="yes"/>
      <point x="500" y="135"/>
      <point x="487" y="125"/>
      <point x="483" y="100" type="curve" smooth="yes"/>
      <point x="476" y="54" type="line"/>
      <point x="223" y="54" type="line"/>
      <point x="254" y="83"/>
      <point x="277" y="124"/>
      <point x="277" y="177" type="curve" smooth="yes"/>
      <point x="277" y="207"/>
      <point x="269" y="236"/>
      <point x="258" y="264" type="curve"/>
      <point x="451" y="275" type="line" smooth="yes"/>
      <point x="468" y="276"/>
      <point x="483" y="284"/>
      <point x="483" y="301" type="curve" smooth="yes"/>
      <point x="483" y="310"/>
      <point x="479" y="318"/>
      <point x="465" y="318" type="curve" smooth="yes"/>
      <point x="234" y="318" type="line"/>
      <point x="218" y="354"/>
      <point x="203" y="390"/>
      <point x="203" y="426" type="curve" smooth="yes"/>
      <point x="203" y="502"/>
      <point x="255" y="540"/>
      <point x="328" y="540" type="curve" smooth="yes"/>
      <point x="379" y="540"/>
      <point x="419" y="526"/>
      <point x="455" y="502" type="curve"/>
      <point x="467" y="442" type="line" smooth="yes"/>
      <point x="472" y="419"/>
      <point x="481" y="407"/>
      <point x="497" y="407" type="curve" smooth="yes"/>
      <point x="509" y="407"/>
      <point x="517" y="413"/>
      <point x="517" y="426" type="curve" smooth="yes"/>
      <point x="517" y="524" type="line"/>
      <point x="466" y="565"/>
      <point x="398" y="593"/>
      <point x="323" y="593" type="curve" smooth="yes"/>
      <point x="215" y="593"/>
      <point x="126" y="539"/>
      <point x="126" y="426" type="curve" smooth="yes"/>
      <point x="126" y="388"/>
      <point x="139" y="352"/>
      <point x="153" y="318" type="curve"/>
      <point x="114" y="318" type="line" smooth="yes"/>
      <point x="94" y="318"/>
      <point x="79" y="305"/>
      <point x="79" y="286" type="curve" smooth="yes"/>
      <point x="79" y="273"/>
      <point x="88" y="264"/>
      <point x="100" y="264" type="curve" smooth="yes"/>
      <point x="177" y="264" type="line"/>
      <point x="190" y="235"/>
      <point x="200" y="207"/>
      <point x="200" y="179" type="curve" smooth="yes"/>
      <point x="200" y="127"/>
      <point x="185" y="93"/>
      <point x="140" y="54" type="curve"/>
      <point x="90" y="54" type="line" smooth="yes"/>
      <point x="70" y="54"/>
      <point x="55" y="42"/>
      <point x="55" y="23" type="curve" smooth="yes"/>
      <point x="55" y="10"/>
      <point x="62" y="0"/>
      <point x="74" y="0" type="curve" smooth="yes"/>
    </contour>
  </outline>
</glyph>
<glyph name="currency" format="1">
  <advance width="585"/>
  <unicode hex="00A4"/>
  <note>
	currency
  </note>
  <outline>
    <contour>
      <point x="193" y="141" type="line"/>
      <point x="221" y="122"/>
      <point x="254" y="113"/>
      <point x="292" y="113" type="curve" smooth="yes"/>
      <point x="331" y="113"/>
      <point x="364" y="122"/>
      <point x="393" y="141" type="curve"/>
      <point x="451" y="70" type="line"/>
      <point x="507" y="111" type="line"/>
      <point x="444" y="184" type="line"/>
      <point x="474" y="219"/>
      <point x="493" y="265"/>
      <point x="493" y="319" type="curve" smooth="yes"/>
      <point x="493" y="372"/>
      <point x="474" y="418"/>
      <point x="444" y="454" type="curve"/>
      <point x="507" y="526" type="line"/>
      <point x="451" y="567" type="line"/>
      <point x="393" y="497" type="line"/>
      <point x="364" y="516"/>
      <point x="331" y="525"/>
      <point x="292" y="525" type="curve" smooth="yes"/>
      <point x="254" y="525"/>
      <point x="220" y="515"/>
      <point x="193" y="497" type="curve"/>
      <point x="135" y="568" type="line"/>
      <point x="78" y="526" type="line"/>
      <point x="141" y="454" type="line"/>
      <point x="109" y="416"/>
      <point x="92" y="372"/>
      <point x="92" y="319" type="curve" smooth="yes"/>
      <point x="92" y="266"/>
      <point x="111" y="220"/>
      <point x="141" y="184" type="curve"/>
      <point x="78" y="111" type="line"/>
      <point x="134" y="70" type="line"/>
    </contour>
    <contour>
      <point x="218" y="177"/>
      <point x="161" y="234"/>
      <point x="161" y="319" type="curve" smooth="yes"/>
      <point x="161" y="404"/>
      <point x="218" y="460"/>
      <point x="292" y="460" type="curve" smooth="yes"/>
      <point x="367" y="460"/>
      <point x="424" y="404"/>
      <point x="424" y="319" type="curve" smooth="yes"/>
      <point x="424" y="234"/>
      <point x="367" y="177"/>
      <point x="292" y="177" type="curve" smooth="yes"/>
    </contour>
  </outline>
</glyph>
<glyph name="yen" format="1">
  <advance width="632"/>
  <unicode hex="00A5"/>
  <note>
	yen
  </note>
  <outline>
    <contour>
      <point x="417" y="0" type="line" smooth="yes"/>
      <point x="427" y="0"/>
      <point x="429" y="6"/>
      <point x="429" y="13" type="curve" smooth="yes"/>
      <point x="429" y="25"/>
      <point x="423" y="33"/>
      <point x="402" y="38" type="curve" smooth="yes"/>
      <point x="351" y="49" type="line"/>
      <point x="351" y="197" type="line"/>
      <point x="539" y="197" type="line"/>
      <point x="539" y="249" type="line"/>
      <point x="351" y="249" type="line"/>
      <point x="351" y="304" type="line"/>
      <point x="380" y="346" type="line"/>
      <point x="538" y="346" type="line"/>
      <point x="538" y="398" type="line"/>
      <point x="415" y="398" type="line"/>
      <point x="577" y="639" type="line"/>
      <point x="626" y="652" type="line" smooth="yes"/>
      <point x="641" y="656"/>
      <point x="651" y="664"/>
      <point x="651" y="676" type="curve" smooth="yes"/>
      <point x="651" y="683"/>
      <point x="648" y="689"/>
      <point x="639" y="689" type="curve" smooth="yes"/>
      <point x="476" y="689" type="line" smooth="yes"/>
      <point x="454" y="689"/>
      <point x="440" y="679"/>
      <point x="440" y="661" type="curve" smooth="yes"/>
      <point x="440" y="648"/>
      <point x="446" y="640"/>
      <point x="457" y="640" type="curve" smooth="yes"/>
      <point x="512" y="640" type="line"/>
      <point x="325" y="361" type="line"/>
      <point x="148" y="640" type="line"/>
      <point x="203" y="649" type="line" smooth="yes"/>
      <point x="222" y="652"/>
      <point x="232" y="660"/>
      <point x="232" y="675" type="curve" smooth="yes"/>
      <point x="232" y="682"/>
      <point x="229" y="689"/>
      <point x="220" y="689" type="curve" smooth="yes"/>
      <point x="25" y="689" type="line" smooth="yes"/>
      <point x="2" y="689"/>
      <point x="-11" y="679"/>
      <point x="-11" y="661" type="curve" smooth="yes"/>
      <point x="-11" y="648"/>
      <point x="-5" y="640"/>
      <point x="6" y="640" type="curve" smooth="yes"/>
      <point x="51" y="640" type="line"/>
      <point x="206" y="398" type="line"/>
      <point x="86" y="398" type="line"/>
      <point x="86" y="346" type="line"/>
      <point x="239" y="346" type="line"/>
      <point x="272" y="295" type="line"/>
      <point x="272" y="249" type="line"/>
      <point x="86" y="249" type="line"/>
      <point x="86" y="197" type="line"/>
      <point x="272" y="197" type="line"/>
      <point x="272" y="49" type="line"/>
      <point x="241" y="49" type="line" smooth="yes"/>
      <point x="218" y="49"/>
      <point x="204" y="39"/>
      <point x="204" y="21" type="curve" smooth="yes"/>
      <point x="204" y="8"/>
      <point x="210" y="0"/>
      <point x="221" y="0" type="curve" smooth="yes"/>
    </contour>
  </outline>
</glyph>
<glyph name="section" format="1">
  <advance width="592"/>
  <unicode hex="00A7"/>
  <note>
	section
  </note>
  <outline>
    <contour>
      <point x="392" y="-110"/>
      <point x="490" y="-65"/>
      <point x="490" y="44" type="curve" smooth="yes"/>
      <point x="490" y="68"/>
      <point x="485" y="89"/>
      <point x="477" y="107" type="curve"/>
      <point x="503" y="131"/>
      <point x="519" y="165"/>
      <point x="519" y="208" type="curve" smooth="yes"/>
      <point x="519" y="304"/>
      <point x="452" y="346"/>
      <point x="344" y="392" type="curve" smooth="yes"/>
      <point x="237" y="437"/>
      <point x="175" y="461"/>
      <point x="175" y="527" type="curve" smooth="yes"/>
      <point x="175" y="593"/>
      <point x="235" y="618"/>
      <point x="303" y="618" type="curve" smooth="yes"/>
      <point x="355" y="618"/>
      <point x="405" y="606"/>
      <point x="438" y="580" type="curve"/>
      <point x="449" y="527" type="line" smooth="yes"/>
      <point x="455" y="500"/>
      <point x="462" y="492"/>
      <point x="475" y="492" type="curve" smooth="yes"/>
      <point x="484" y="492"/>
      <point x="488" y="498"/>
      <point x="488" y="505" type="curve" smooth="yes"/>
      <point x="488" y="604" type="line"/>
      <point x="444" y="642"/>
      <point x="369" y="667"/>
      <point x="299" y="667" type="curve" smooth="yes"/>
      <point x="202" y="667"/>
      <point x="103" y="624"/>
      <point x="103" y="518" type="curve" smooth="yes"/>
      <point x="103" y="495"/>
      <point x="109" y="475"/>
      <point x="119" y="457" type="curve"/>
      <point x="92" y="433"/>
      <point x="74" y="399"/>
      <point x="74" y="354" type="curve" smooth="yes"/>
      <point x="74" y="265"/>
      <point x="153" y="218"/>
      <point x="254" y="177" type="curve" smooth="yes"/>
      <point x="372" y="129"/>
      <point x="418" y="106"/>
      <point x="418" y="37" type="curve" smooth="yes"/>
      <point x="418" y="-38"/>
      <point x="344" y="-61"/>
      <point x="271" y="-61" type="curve" smooth="yes"/>
      <point x="224" y="-61"/>
      <point x="164" y="-50"/>
      <point x="128" y="-25" type="curve"/>
      <point x="116" y="36" type="line" smooth="yes"/>
      <point x="110" y="64"/>
      <point x="103" y="73"/>
      <point x="89" y="73" type="curve" smooth="yes"/>
      <point x="80" y="73"/>
      <point x="75" y="67"/>
      <point x="75" y="60" type="curve" smooth="yes"/>
      <point x="75" y="-54" type="line"/>
      <point x="124" y="-91"/>
      <point x="214" y="-110"/>
      <point x="277" y="-110" type="curve" smooth="yes"/>
    </contour>
    <contour>
      <point x="407" y="182"/>
      <point x="361" y="204"/>
      <point x="301" y="229" type="curve" smooth="yes"/>
      <point x="200" y="270"/>
      <point x="153" y="290"/>
      <point x="149" y="351" type="curve" smooth="yes"/>
      <point x="147" y="373"/>
      <point x="152" y="391"/>
      <point x="161" y="408" type="curve"/>
      <point x="192" y="383"/>
      <point x="246" y="358"/>
      <point x="295" y="338" type="curve" smooth="yes"/>
      <point x="407" y="293"/>
      <point x="448" y="273"/>
      <point x="450" y="210" type="curve" smooth="yes"/>
      <point x="451" y="190"/>
      <point x="446" y="165"/>
      <point x="438" y="150" type="curve"/>
    </contour>
  </outline>
</glyph>
<glyph name="dieresis" format="1">
  <advance width="395"/>
  <unicode hex="00A8"/>
  <note>
	dieresis
  </note>
  <outline>
    <contour>
      <point x="320" y="549"/>
      <point x="342" y="569"/>
      <point x="342" y="598" type="curve" smooth="yes"/>
      <point x="342" y="626"/>
      <point x="320" y="646"/>
      <point x="294" y="646" type="curve" smooth="yes"/>
      <point x="267" y="646"/>
      <point x="245" y="626"/>
      <point x="245" y="598" type="curve" smooth="yes"/>
      <point x="245" y="569"/>
      <point x="267" y="549"/>
      <point x="294" y="549" type="curve" smooth="yes"/>
    </contour>
    <contour>
      <point x="129" y="549"/>
      <point x="151" y="569"/>
      <point x="151" y="598" type="curve" smooth="yes"/>
      <point x="151" y="626"/>
      <point x="129" y="646"/>
      <point x="103" y="646" type="curve" smooth="yes"/>
      <point x="76" y="646"/>
      <point x="54" y="626"/>
      <point x="54" y="598" type="curve" smooth="yes"/>
      <point x="54" y="569"/>
      <point x="76" y="549"/>
      <point x="103" y="549" type="curve" smooth="yes"/>
    </contour>
  </outline>
</glyph>
<glyph name="copyright" format="1">
  <advance width="792"/>
  <unicode hex="00A9"/>
  <note>
	copyright
  </note>
  <outline>
    <contour>
      <point x="606" y="-12"/>
      <point x="746" y="131"/>
      <point x="746" y="337" type="curve" smooth="yes"/>
      <point x="746" y="543"/>
      <point x="606" y="686"/>
      <point x="396" y="686" type="curve" smooth="yes"/>
      <point x="188" y="686"/>
      <point x="46" y="543"/>
      <point x="46" y="337" type="curve" smooth="yes"/>
      <point x="46" y="131"/>
      <point x="188" y="-12"/>
      <point x="396" y="-12" type="curve" smooth="yes"/>
    </contour>
    <contour>
      <point x="450" y="137"/>
      <point x="486" y="147"/>
      <point x="515" y="166" type="curve" smooth="yes"/>
      <point x="529" y="175"/>
      <point x="541" y="186"/>
      <point x="541" y="198" type="curve" smooth="yes"/>
      <point x="541" y="210"/>
      <point x="534" y="218"/>
      <point x="525" y="218" type="curve" smooth="yes"/>
      <point x="519" y="218"/>
      <point x="516" y="216"/>
      <point x="509" y="211" type="curve" smooth="yes"/>
      <point x="483" y="192"/>
      <point x="452" y="180"/>
      <point x="414" y="180" type="curve" smooth="yes"/>
      <point x="336" y="180"/>
      <point x="283" y="232"/>
      <point x="283" y="337" type="curve" smooth="yes"/>
      <point x="283" y="441"/>
      <point x="335" y="492"/>
      <point x="409" y="492" type="curve" smooth="yes"/>
      <point x="441" y="492"/>
      <point x="478" y="483"/>
      <point x="496" y="465" type="curve"/>
      <point x="504" y="428" type="line" smooth="yes"/>
      <point x="508" y="412"/>
      <point x="514" y="404"/>
      <point x="526" y="404" type="curve" smooth="yes"/>
      <point x="534" y="404"/>
      <point x="538" y="409"/>
      <point x="538" y="416" type="curve" smooth="yes"/>
      <point x="538" y="488" type="line"/>
      <point x="513" y="511"/>
      <point x="459" y="536"/>
      <point x="403" y="536" type="curve" smooth="yes"/>
      <point x="296" y="536"/>
      <point x="220" y="461"/>
      <point x="220" y="337" type="curve" smooth="yes"/>
      <point x="220" y="215"/>
      <point x="294" y="137"/>
      <point x="410" y="137" type="curve" smooth="yes"/>
    </contour>
    <contour>
      <point x="215" y="31"/>
      <point x="96" y="158"/>
      <point x="96" y="337" type="curve" smooth="yes"/>
      <point x="96" y="516"/>
      <point x="215" y="643"/>
      <point x="395" y="643" type="curve" smooth="yes"/>
      <point x="575" y="643"/>
      <point x="695" y="516"/>
      <point x="695" y="337" type="curve" smooth="yes"/>
      <point x="695" y="158"/>
      <point x="575" y="31"/>
      <point x="395" y="31" type="curve" smooth="yes"/>
    </contour>
  </outline>
</glyph>
<glyph name="ordfeminine" format="1">
  <advance width="401"/>
  <unicode hex="00AA"/>
  <note>
	ordfeminine
  </note>
  <outline>
    <contour>
      <point x="206" y="318"/>
      <point x="241" y="341"/>
      <point x="262" y="371" type="curve"/>
      <point x="266" y="371" type="line"/>
      <point x="266" y="325" type="line"/>
      <point x="354" y="325" type="line" smooth="yes"/>
      <point x="361" y="325"/>
      <point x="363" y="329"/>
      <point x="363" y="335" type="curve" smooth="yes"/>
      <point x="363" y="345"/>
      <point x="357" y="350"/>
      <point x="343" y="354" type="curve" smooth="yes"/>
      <point x="317" y="361" type="line"/>
      <point x="317" y="542" type="line" smooth="yes"/>
      <point x="317" y="608"/>
      <point x="272" y="643"/>
      <point x="203" y="643" type="curve" smooth="yes"/>
      <point x="160" y="643"/>
      <point x="109" y="627"/>
      <point x="76" y="606" type="curve"/>
      <point x="76" y="545" type="line" smooth="yes"/>
      <point x="76" y="537"/>
      <point x="81" y="533"/>
      <point x="89" y="533" type="curve" smooth="yes"/>
      <point x="98" y="533"/>
      <point x="106" y="540"/>
      <point x="108" y="553" type="curve" smooth="yes"/>
      <point x="113" y="583" type="line"/>
      <point x="133" y="594"/>
      <point x="169" y="605"/>
      <point x="195" y="605" type="curve" smooth="yes"/>
      <point x="242" y="605"/>
      <point x="264" y="583"/>
      <point x="264" y="543" type="curve" smooth="yes"/>
      <point x="264" y="517" type="line"/>
      <point x="176" y="504" type="line" smooth="yes"/>
      <point x="111" y="495"/>
      <point x="56" y="470"/>
      <point x="56" y="406" type="curve" smooth="yes"/>
      <point x="56" y="345"/>
      <point x="104" y="318"/>
      <point x="156" y="318" type="curve" smooth="yes"/>
    </contour>
    <contour>
      <point x="132" y="356"/>
      <point x="109" y="375"/>
      <point x="109" y="407" type="curve" smooth="yes"/>
      <point x="109" y="443"/>
      <point x="138" y="460"/>
      <point x="181" y="467" type="curve" smooth="yes"/>
      <point x="264" y="481" type="line"/>
      <point x="264" y="441" type="line" smooth="yes"/>
      <point x="264" y="394"/>
      <point x="217" y="356"/>
      <point x="170" y="356" type="curve" smooth="yes"/>
    </contour>
  </outline>
</glyph>
<glyph name="guillemotleft" format="1">
  <advance width="513"/>
  <unicode hex="00AB"/>
  <note>
	guillemotleft
  </note>
  <outline>
    <contour>
      <point x="436" y="83" type="line"/>
      <point x="333" y="237" type="line"/>
      <point x="436" y="391" type="line"/>
      <point x="390" y="427" type="line"/>
      <point x="256" y="250" type="line"/>
      <point x="256" y="224" type="line"/>
      <point x="390" y="47" type="line"/>
    </contour>
    <contour>
      <point x="248" y="83" type="line"/>
      <point x="145" y="237" type="line"/>
      <point x="248" y="391" type="line"/>
      <point x="202" y="427" type="line"/>
      <point x="68" y="250" type="line"/>
      <point x="68" y="224" type="line"/>
      <point x="202" y="47" type="line"/>
    </contour>
  </outline>
</glyph>
<glyph name="logicalnot" format="1">
  <advance width="643"/>
  <unicode hex="00AC"/>
  <note>
	logicalnot
  </note>
  <outline>
    <contour>
      <point x="557" y="141" type="line"/>
      <point x="557" y="372" type="line"/>
      <point x="77" y="372" type="line"/>
      <point x="77" y="308" type="line"/>
      <point x="483" y="308" type="line"/>
      <point x="483" y="141" type="line"/>
    </contour>
  </outline>
</glyph>
<glyph name="softhyphen" format="1">
  <advance width="294"/>
  <unicode hex="00AD"/>
  <note>
	softhyphen
  </note>
  <outline>
    <contour>
      <point x="246" y="288" type="line"/>
      <point x="246" y="354" type="line"/>
      <point x="48" y="354" type="line"/>
      <point x="48" y="288" type="line"/>
    </contour>
  </outline>
</glyph>
<glyph name="registered" format="1">
  <advance width="472"/>
  <unicode hex="00AE"/>
  <note>
	registered
  </note>
  <outline>
    <contour>
      <point x="362" y="336"/>
      <point x="452" y="426"/>
      <point x="452" y="551" type="curve" smooth="yes"/>
      <point x="452" y="677"/>
      <point x="362" y="766"/>
      <point x="235" y="766" type="curve" smooth="yes"/>
      <point x="111" y="766"/>
      <point x="20" y="677"/>
      <point x="20" y="551" type="curve" smooth="yes"/>
      <point x="20" y="426"/>
      <point x="111" y="336"/>
      <point x="235" y="336" type="curve" smooth="yes"/>
    </contour>
    <contour>
      <point x="136" y="373"/>
      <point x="62" y="440"/>
      <point x="62" y="551" type="curve" smooth="yes"/>
      <point x="62" y="662"/>
      <point x="136" y="730"/>
      <point x="236" y="730" type="curve" smooth="yes"/>
      <point x="336" y="730"/>
      <point x="411" y="662"/>
      <point x="411" y="551" type="curve" smooth="yes"/>
      <point x="411" y="440"/>
      <point x="336" y="373"/>
      <point x="236" y="373" type="curve" smooth="yes"/>
    </contour>
    <contour>
      <point x="228" y="447" type="line" smooth="yes"/>
      <point x="233" y="447"/>
      <point x="235" y="449"/>
      <point x="235" y="454" type="curve" smooth="yes"/>
      <point x="235" y="460"/>
      <point x="230" y="463"/>
      <point x="218" y="467" type="curve"/>
      <point x="205" y="471" type="line"/>
      <point x="205" y="535" type="line"/>
      <point x="284" y="447" type="line"/>
      <point x="338" y="447" type="line" smooth="yes"/>
      <point x="342" y="447"/>
      <point x="344" y="450"/>
      <point x="344" y="454" type="curve" smooth="yes"/>
      <point x="344" y="460"/>
      <point x="341" y="463"/>
      <point x="328" y="467" type="curve" smooth="yes"/>
      <point x="312" y="472" type="line"/>
      <point x="244" y="540" type="line"/>
      <point x="258" y="540" type="line" smooth="yes"/>
      <point x="297" y="540"/>
      <point x="319" y="562"/>
      <point x="319" y="599" type="curve" smooth="yes"/>
      <point x="319" y="636"/>
      <point x="293" y="659"/>
      <point x="247" y="659" type="curve" smooth="yes"/>
      <point x="147" y="659" type="line" smooth="yes"/>
      <point x="140" y="659"/>
      <point x="137" y="656"/>
      <point x="137" y="650" type="curve" smooth="yes"/>
      <point x="137" y="643"/>
      <point x="143" y="641"/>
      <point x="154" y="637" type="curve" smooth="yes"/>
      <point x="167" y="632" type="line"/>
      <point x="167" y="472" type="line"/>
      <point x="155" y="472" type="line" smooth="yes"/>
      <point x="143" y="471"/>
      <point x="137" y="467"/>
      <point x="137" y="457" type="curve" smooth="yes"/>
      <point x="137" y="450"/>
      <point x="141" y="447"/>
      <point x="147" y="447" type="curve" smooth="yes"/>
    </contour>
    <contour>
      <point x="205" y="631" type="line"/>
      <point x="245" y="631" type="line" smooth="yes"/>
      <point x="269" y="631"/>
      <point x="282" y="621"/>
      <point x="282" y="599" type="curve" smooth="yes"/>
      <point x="282" y="577"/>
      <point x="269" y="566"/>
      <point x="245" y="566" type="curve" smooth="yes"/>
      <point x="205" y="566" type="line"/>
    </contour>
  </outline>
</glyph>
<glyph name="macron" format="1">
  <advance width="380"/>
  <unicode hex="00AF"/>
  <note>
	macron
  </note>
  <outline>
    <contour>
      <point x="331" y="563" type="line"/>
      <point x="331" y="618" type="line"/>
      <point x="49" y="618" type="line"/>
      <point x="49" y="563" type="line"/>
    </contour>
  </outline>
</glyph>
<glyph name="degree" format="1">
  <advance width="355"/>
  <unicode hex="00B0"/>
  <note>
	degree
  </note>
  <outline>
    <contour>
      <point x="250" y="550"/>
      <point x="306" y="597"/>
      <point x="306" y="672" type="curve" smooth="yes"/>
      <point x="306" y="747"/>
      <point x="250" y="794"/>
      <point x="177" y="794" type="curve" smooth="yes"/>
      <point x="104" y="794"/>
      <point x="48" y="747"/>
      <point x="48" y="672" type="curve" smooth="yes"/>
      <point x="48" y="597"/>
      <point x="104" y="550"/>
      <point x="177" y="550" type="curve" smooth="yes"/>
    </contour>
    <contour>
      <point x="136" y="594"/>
      <point x="102" y="621"/>
      <point x="102" y="672" type="curve" smooth="yes"/>
      <point x="102" y="723"/>
      <point x="136" y="750"/>
      <point x="177" y="750" type="curve" smooth="yes"/>
      <point x="217" y="750"/>
      <point x="251" y="723"/>
      <point x="251" y="672" type="curve" smooth="yes"/>
      <point x="251" y="621"/>
      <point x="217" y="594"/>
      <point x="177" y="594" type="curve" smooth="yes"/>
    </contour>
  </outline>
</glyph>
<glyph name="plusminus" format="1">
  <advance width="557"/>
  <unicode hex="00B1"/>
  <note>
	plusminus
  </note>
  <outline>
    <contour>
      <point x="316" y="182" type="line"/>
      <point x="316" y="363" type="line"/>
      <point x="497" y="363" type="line"/>
      <point x="497" y="417" type="line"/>
      <point x="316" y="417" type="line"/>
      <point x="316" y="600" type="line"/>
      <point x="241" y="600" type="line"/>
      <point x="241" y="417" type="line"/>
      <point x="60" y="417" type="line"/>
      <point x="60" y="363" type="line"/>
      <point x="241" y="363" type="line"/>
      <point x="241" y="182" type="line"/>
    </contour>
    <contour>
      <point x="497" y="0" type="line"/>
      <point x="497" y="54" type="line"/>
      <point x="60" y="54" type="line"/>
      <point x="60" y="0" type="line"/>
    </contour>
  </outline>
</glyph>
<glyph name="twosuperior" format="1">
  <advance width="319"/>
  <unicode hex="00B2"/>
  <note>
	twosuperior
  </note>
  <outline>
    <contour>
      <point x="287" y="391" type="line"/>
      <point x="287" y="430" type="line"/>
      <point x="101" y="430" type="line"/>
      <point x="202" y="534" type="line" smooth="yes"/>
      <point x="249" y="583"/>
      <point x="280" y="626"/>
      <point x="280" y="667" type="curve" smooth="yes"/>
      <point x="280" y="735"/>
      <point x="232" y="769"/>
      <point x="168" y="769" type="curve" smooth="yes"/>
      <point x="125" y="769"/>
      <point x="83" y="754"/>
      <point x="44" y="730" type="curve"/>
      <point x="44" y="665" type="line" smooth="yes"/>
      <point x="44" y="657"/>
      <point x="49" y="652"/>
      <point x="58" y="652" type="curve" smooth="yes"/>
      <point x="69" y="652"/>
      <point x="75" y="658"/>
      <point x="79" y="678" type="curve" smooth="yes"/>
      <point x="86" y="710" type="line"/>
      <point x="108" y="722"/>
      <point x="134" y="730"/>
      <point x="161" y="730" type="curve" smooth="yes"/>
      <point x="196" y="730"/>
      <point x="225" y="711"/>
      <point x="225" y="669" type="curve" smooth="yes"/>
      <point x="225" y="638"/>
      <point x="199" y="603"/>
      <point x="162" y="565" type="curve" smooth="yes"/>
      <point x="35" y="434" type="line"/>
      <point x="35" y="391" type="line"/>
    </contour>
  </outline>
</glyph>
<glyph name="threesuperior" format="1">
  <advance width="321"/>
  <unicode hex="00B3"/>
  <note>
	threesuperior
  </note>
  <outline>
    <contour>
      <point x="222" y="383"/>
      <point x="281" y="416"/>
      <point x="281" y="488" type="curve" smooth="yes"/>
      <point x="281" y="538"/>
      <point x="251" y="573"/>
      <point x="198" y="585" type="curve"/>
      <point x="242" y="600"/>
      <point x="268" y="632"/>
      <point x="268" y="676" type="curve" smooth="yes"/>
      <point x="268" y="741"/>
      <point x="213" y="769"/>
      <point x="155" y="769" type="curve" smooth="yes"/>
      <point x="110" y="769"/>
      <point x="65" y="753"/>
      <point x="30" y="730" type="curve"/>
      <point x="30" y="661" type="line" smooth="yes"/>
      <point x="30" y="654"/>
      <point x="34" y="650"/>
      <point x="42" y="650" type="curve" smooth="yes"/>
      <point x="52" y="650"/>
      <point x="58" y="655"/>
      <point x="62" y="675" type="curve" smooth="yes"/>
      <point x="69" y="708" type="line"/>
      <point x="90" y="721"/>
      <point x="117" y="730"/>
      <point x="146" y="730" type="curve" smooth="yes"/>
      <point x="187" y="730"/>
      <point x="215" y="713"/>
      <point x="215" y="670" type="curve" smooth="yes"/>
      <point x="215" y="624"/>
      <point x="177" y="603"/>
      <point x="132" y="597" type="curve" smooth="yes"/>
      <point x="88" y="592" type="line"/>
      <point x="88" y="556" type="line"/>
      <point x="126" y="561"/>
      <point x="138" y="563"/>
      <point x="149" y="563" type="curve" smooth="yes"/>
      <point x="197" y="563"/>
      <point x="228" y="533"/>
      <point x="228" y="493" type="curve" smooth="yes"/>
      <point x="228" y="445"/>
      <point x="197" y="421"/>
      <point x="137" y="421" type="curve" smooth="yes"/>
      <point x="101" y="421"/>
      <point x="59" y="431"/>
      <point x="25" y="446" type="curve"/>
      <point x="25" y="405" type="line"/>
      <point x="51" y="393"/>
      <point x="96" y="383"/>
      <point x="141" y="383" type="curve" smooth="yes"/>
    </contour>
  </outline>
</glyph>
<glyph name="acute" format="1">
  <advance width="292"/>
  <unicode hex="00B4"/>
  <note>
	acute
  </note>
  <outline>
    <contour>
      <point x="223" y="672" type="line"/>
      <point x="163" y="711" type="line"/>
      <point x="76" y="565" type="line"/>
      <point x="121" y="536" type="line"/>
    </contour>
  </outline>
</glyph>
<glyph name="mu" format="1">
  <advance width="614"/>
  <unicode hex="00B5"/>
  <note>
	mu
  </note>
  <outline>
    <contour>
      <point x="169" y="-240" type="line"/>
      <point x="160" y="35" type="line"/>
      <point x="188" y="5"/>
      <point x="229" y="-12"/>
      <point x="271" y="-12" type="curve" smooth="yes"/>
      <point x="339" y="-12"/>
      <point x="391" y="24"/>
      <point x="432" y="68" type="curve"/>
      <point x="435" y="68" type="line"/>
      <point x="435" y="50" type="line" smooth="yes"/>
      <point x="435" y="6"/>
      <point x="467" y="-12"/>
      <point x="503" y="-12" type="curve" smooth="yes"/>
      <point x="535" y="-12"/>
      <point x="571" y="2"/>
      <point x="589" y="13" type="curve"/>
      <point x="589" y="57" type="line"/>
      <point x="572" y="47"/>
      <point x="552" y="38"/>
      <point x="532" y="38" type="curve" smooth="yes"/>
      <point x="513" y="38"/>
      <point x="499" y="46"/>
      <point x="499" y="72" type="curve" smooth="yes"/>
      <point x="499" y="489" type="line"/>
      <point x="424" y="489" type="line"/>
      <point x="424" y="121" type="line"/>
      <point x="381" y="72"/>
      <point x="330" y="40"/>
      <point x="273" y="40" type="curve" smooth="yes"/>
      <point x="202" y="40"/>
      <point x="163" y="85"/>
      <point x="163" y="143" type="curve" smooth="yes"/>
      <point x="163" y="489" type="line"/>
      <point x="88" y="489" type="line"/>
      <point x="88" y="48" type="line"/>
      <point x="80" y="-240" type="line"/>
    </contour>
  </outline>
</glyph>
<glyph name="paragraph" format="1">
  <advance width="687"/>
  <unicode hex="00B6"/>
  <note>
	paragraph
  </note>
  <outline>
    <contour>
      <point x="563" y="-160" type="line" smooth="yes"/>
      <point x="572" y="-160"/>
      <point x="575" y="-153"/>
      <point x="575" y="-146" type="curve" smooth="yes"/>
      <point x="575" y="-133"/>
      <point x="564" y="-125"/>
      <point x="538" y="-123" type="curve" smooth="yes"/>
      <point x="377" y="-113" type="line"/>
      <point x="377" y="648" type="line"/>
      <point x="445" y="648" type="line"/>
      <point x="445" y="-55" type="line"/>
      <point x="503" y="-55" type="line"/>
      <point x="503" y="647" type="line"/>
      <point x="546" y="658" type="line" smooth="yes"/>
      <point x="565" y="663"/>
      <point x="572" y="672"/>
      <point x="572" y="683" type="curve" smooth="yes"/>
      <point x="572" y="689"/>
      <point x="570" y="695"/>
      <point x="560" y="695" type="curve" smooth="yes"/>
      <point x="292" y="695" type="line" smooth="yes"/>
      <point x="177" y="695"/>
      <point x="93" y="645"/>
      <point x="93" y="532" type="curve" smooth="yes"/>
      <point x="93" y="430"/>
      <point x="167" y="368"/>
      <point x="268" y="368" type="curve" smooth="yes"/>
      <point x="319" y="368" type="line"/>
      <point x="319" y="-113" type="line"/>
      <point x="275" y="-113" type="line" smooth="yes"/>
      <point x="253" y="-113"/>
      <point x="239" y="-122"/>
      <point x="239" y="-140" type="curve" smooth="yes"/>
      <point x="239" y="-153"/>
      <point x="245" y="-160"/>
      <point x="255" y="-160" type="curve" smooth="yes"/>
    </contour>
  </outline>
</glyph>
<glyph name="periodcentered" format="1">
  <advance width="285"/>
  <unicode hex="00B7"/>
  <note>
	periodcentered
  </note>
  <outline>
    <contour>
      <point x="175" y="276"/>
      <point x="201" y="299"/>
      <point x="201" y="334" type="curve" smooth="yes"/>
      <point x="201" y="369"/>
      <point x="175" y="393"/>
      <point x="143" y="393" type="curve" smooth="yes"/>
      <point x="111" y="393"/>
      <point x="85" y="369"/>
      <point x="85" y="334" type="curve" smooth="yes"/>
      <point x="85" y="299"/>
      <point x="111" y="276"/>
      <point x="143" y="276" type="curve" smooth="yes"/>
    </contour>
  </outline>
</glyph>
<glyph name="cedilla" format="1">
  <advance width="383"/>
  <unicode hex="00B8"/>
  <note>
	cedilla
  </note>
  <outline>
    <contour>
      <point x="196" y="-195"/>
      <point x="251" y="-159"/>
      <point x="251" y="-113" type="curve" smooth="yes"/>
      <point x="251" y="-75"/>
      <point x="228" y="-56"/>
      <point x="202" y="-46" type="curve"/>
      <point x="223" y="0" type="line"/>
      <point x="170" y="0" type="line"/>
      <point x="149" y="-58" type="line"/>
      <point x="182" y="-68"/>
      <point x="194" y="-85"/>
      <point x="194" y="-111" type="curve" smooth="yes"/>
      <point x="194" y="-139"/>
      <point x="172" y="-164"/>
      <point x="126" y="-179" type="curve"/>
      <point x="138" y="-209" type="line"/>
    </contour>
  </outline>
</glyph>
<glyph name="onesuperior" format="1">
  <advance width="237"/>
  <unicode hex="00B9"/>
  <note>
	onesuperior
  </note>
  <outline>
    <contour>
      <point x="194" y="391" type="line" smooth="yes"/>
      <point x="201" y="391"/>
      <point x="204" y="396"/>
      <point x="204" y="402" type="curve" smooth="yes"/>
      <point x="204" y="412"/>
      <point x="198" y="418"/>
      <point x="181" y="420" type="curve" smooth="yes"/>
      <point x="144" y="425" type="line"/>
      <point x="144" y="761" type="line"/>
      <point x="90" y="761" type="line"/>
      <point x="24" y="738" type="line"/>
      <point x="24" y="704" type="line"/>
      <point x="86" y="724" type="line"/>
      <point x="86" y="426" type="line"/>
      <point x="46" y="426" type="line" smooth="yes"/>
      <point x="31" y="426"/>
      <point x="21" y="419"/>
      <point x="21" y="406" type="curve" smooth="yes"/>
      <point x="21" y="396"/>
      <point x="26" y="391"/>
      <point x="34" y="391" type="curve" smooth="yes"/>
    </contour>
  </outline>
</glyph>
<glyph name="ordmasculine" format="1">
  <advance width="395"/>
  <unicode hex="00BA"/>
  <note>
	ordmasculine
  </note>
  <outline>
    <contour>
      <point x="286" y="318"/>
      <point x="345" y="379"/>
      <point x="345" y="480" type="curve" smooth="yes"/>
      <point x="345" y="582"/>
      <point x="286" y="643"/>
      <point x="198" y="643" type="curve" smooth="yes"/>
      <point x="109" y="643"/>
      <point x="50" y="582"/>
      <point x="50" y="480" type="curve" smooth="yes"/>
      <point x="50" y="379"/>
      <point x="109" y="318"/>
      <point x="198" y="318" type="curve" smooth="yes"/>
    </contour>
    <contour>
      <point x="138" y="356"/>
      <point x="104" y="402"/>
      <point x="104" y="480" type="curve" smooth="yes"/>
      <point x="104" y="559"/>
      <point x="138" y="605"/>
      <point x="198" y="605" type="curve" smooth="yes"/>
      <point x="257" y="605"/>
      <point x="291" y="559"/>
      <point x="291" y="480" type="curve" smooth="yes"/>
      <point x="291" y="402"/>
      <point x="257" y="356"/>
      <point x="198" y="356" type="curve" smooth="yes"/>
    </contour>
  </outline>
</glyph>
<glyph name="guillemotright" format="1">
  <advance width="513"/>
  <unicode hex="00BB"/>
  <note>
	guillemotright
  </note>
  <outline>
    <contour>
      <point x="446" y="224" type="line"/>
      <point x="446" y="250" type="line"/>
      <point x="312" y="427" type="line"/>
      <point x="266" y="391" type="line"/>
      <point x="369" y="237" type="line"/>
      <point x="266" y="83" type="line"/>
      <point x="312" y="47" type="line"/>
    </contour>
    <contour>
      <point x="258" y="224" type="line"/>
      <point x="258" y="250" type="line"/>
      <point x="124" y="427" type="line"/>
      <point x="78" y="391" type="line"/>
      <point x="181" y="237" type="line"/>
      <point x="78" y="83" type="line"/>
      <point x="124" y="47" type="line"/>
    </contour>
  </outline>
</glyph>
<glyph name="onequarter" format="1">
  <advance width="802"/>
  <unicode hex="00BC"/>
  <note>
	onequarter
  </note>
  <outline>
    <contour>
      <point x="662" y="663" type="line"/>
      <point x="613" y="695" type="line"/>
      <point x="143" y="14" type="line"/>
      <point x="191" y="-18" type="line"/>
    </contour>
    <contour>
      <point x="210" y="307" type="line" smooth="yes"/>
      <point x="217" y="307"/>
      <point x="220" y="312"/>
      <point x="220" y="318" type="curve" smooth="yes"/>
      <point x="220" y="328"/>
      <point x="215" y="334"/>
      <point x="197" y="336" type="curve" smooth="yes"/>
      <point x="160" y="341" type="line"/>
      <point x="160" y="677" type="line"/>
      <point x="106" y="677" type="line"/>
      <point x="40" y="654" type="line"/>
      <point x="40" y="620" type="line"/>
      <point x="102" y="640" type="line"/>
      <point x="102" y="342" type="line"/>
      <point x="62" y="342" type="line" smooth="yes"/>
      <point x="47" y="342"/>
      <point x="37" y="335"/>
      <point x="37" y="322" type="curve" smooth="yes"/>
      <point x="37" y="312"/>
      <point x="42" y="307"/>
      <point x="50" y="307" type="curve" smooth="yes"/>
    </contour>
    <contour>
      <point x="723" y="0" type="line"/>
      <point x="723" y="85" type="line"/>
      <point x="774" y="85" type="line"/>
      <point x="774" y="124" type="line"/>
      <point x="723" y="124" type="line"/>
      <point x="723" y="370" type="line"/>
      <point x="661" y="370" type="line"/>
      <point x="486" y="125" type="line"/>
      <point x="486" y="85" type="line"/>
      <point x="669" y="85" type="line"/>
      <point x="669" y="0" type="line"/>
    </contour>
    <contour>
      <point x="665" y="313" type="line"/>
      <point x="665" y="124" type="line"/>
      <point x="530" y="124" type="line"/>
    </contour>
  </outline>
</glyph>
<glyph name="onehalf" format="1">
  <advance width="836"/>
  <unicode hex="00BD"/>
  <note>
	onehalf
  </note>
  <outline>
    <contour>
      <point x="662" y="663" type="line"/>
      <point x="613" y="695" type="line"/>
      <point x="143" y="14" type="line"/>
      <point x="191" y="-18" type="line"/>
    </contour>
    <contour>
      <point x="210" y="307" type="line" smooth="yes"/>
      <point x="217" y="307"/>
      <point x="220" y="312"/>
      <point x="220" y="318" type="curve" smooth="yes"/>
      <point x="220" y="328"/>
      <point x="215" y="334"/>
      <point x="197" y="336" type="curve" smooth="yes"/>
      <point x="160" y="341" type="line"/>
      <point x="160" y="677" type="line"/>
      <point x="106" y="677" type="line"/>
      <point x="40" y="654" type="line"/>
      <point x="40" y="620" type="line"/>
      <point x="102" y="640" type="line"/>
      <point x="102" y="342" type="line"/>
      <point x="62" y="342" type="line" smooth="yes"/>
      <point x="47" y="342"/>
      <point x="37" y="335"/>
      <point x="37" y="322" type="curve" smooth="yes"/>
      <point x="37" y="312"/>
      <point x="42" y="307"/>
      <point x="50" y="307" type="curve" smooth="yes"/>
    </contour>
    <contour>
      <point x="804" y="0" type="line"/>
      <point x="804" y="39" type="line"/>
      <point x="618" y="39" type="line"/>
      <point x="717" y="141" type="line" smooth="yes"/>
      <point x="765" y="191"/>
      <point x="797" y="232"/>
      <point x="797" y="276" type="curve" smooth="yes"/>
      <point x="797" y="344"/>
      <point x="749" y="378"/>
      <point x="685" y="378" type="curve" smooth="yes"/>
      <point x="642" y="378"/>
      <point x="600" y="363"/>
      <point x="561" y="339" type="curve"/>
      <point x="561" y="274" type="line" smooth="yes"/>
      <point x="561" y="266"/>
      <point x="566" y="261"/>
      <point x="575" y="261" type="curve" smooth="yes"/>
      <point x="586" y="261"/>
      <point x="592" y="267"/>
      <point x="596" y="287" type="curve" smooth="yes"/>
      <point x="603" y="319" type="line"/>
      <point x="625" y="330"/>
      <point x="651" y="339"/>
      <point x="678" y="339" type="curve" smooth="yes"/>
      <point x="713" y="339"/>
      <point x="742" y="320"/>
      <point x="742" y="278" type="curve" smooth="yes"/>
      <point x="742" y="245"/>
      <point x="716" y="211"/>
      <point x="679" y="173" type="curve" smooth="yes"/>
      <point x="552" y="43" type="line"/>
      <point x="552" y="0" type="line"/>
    </contour>
  </outline>
</glyph>
<glyph name="threequarters" format="1">
  <advance width="808"/>
  <unicode hex="00BE"/>
  <note>
	threequarters
  </note>
  <outline>
    <contour>
      <point x="667" y="663" type="line"/>
      <point x="618" y="695" type="line"/>
      <point x="148" y="14" type="line"/>
      <point x="196" y="-18" type="line"/>
    </contour>
    <contour>
      <point x="224" y="298"/>
      <point x="283" y="332"/>
      <point x="283" y="404" type="curve" smooth="yes"/>
      <point x="283" y="453"/>
      <point x="253" y="489"/>
      <point x="200" y="500" type="curve"/>
      <point x="244" y="515"/>
      <point x="270" y="547"/>
      <point x="270" y="591" type="curve" smooth="yes"/>
      <point x="270" y="657"/>
      <point x="215" y="685"/>
      <point x="157" y="685" type="curve" smooth="yes"/>
      <point x="112" y="685"/>
      <point x="67" y="668"/>
      <point x="32" y="646" type="curve"/>
      <point x="32" y="576" type="line" smooth="yes"/>
      <point x="32" y="569"/>
      <point x="36" y="565"/>
      <point x="44" y="565" type="curve" smooth="yes"/>
      <point x="54" y="565"/>
      <point x="60" y="571"/>
      <point x="64" y="590" type="curve" smooth="yes"/>
      <point x="71" y="624" type="line"/>
      <point x="92" y="637"/>
      <point x="119" y="646"/>
      <point x="148" y="646" type="curve" smooth="yes"/>
      <point x="189" y="646"/>
      <point x="217" y="628"/>
      <point x="217" y="585" type="curve" smooth="yes"/>
      <point x="217" y="540"/>
      <point x="179" y="518"/>
      <point x="134" y="513" type="curve" smooth="yes"/>
      <point x="90" y="508" type="line"/>
      <point x="90" y="472" type="line"/>
      <point x="135" y="477"/>
      <point x="141" y="478"/>
      <point x="151" y="478" type="curve" smooth="yes"/>
      <point x="199" y="478"/>
      <point x="230" y="449"/>
      <point x="230" y="408" type="curve" smooth="yes"/>
      <point x="230" y="361"/>
      <point x="199" y="337"/>
      <point x="139" y="337" type="curve" smooth="yes"/>
      <point x="103" y="337"/>
      <point x="61" y="347"/>
      <point x="27" y="361" type="curve"/>
      <point x="27" y="321" type="line"/>
      <point x="53" y="309"/>
      <point x="98" y="298"/>
      <point x="143" y="298" type="curve" smooth="yes"/>
    </contour>
    <contour>
      <point x="730" y="0" type="line"/>
      <point x="730" y="85" type="line"/>
      <point x="781" y="85" type="line"/>
      <point x="781" y="124" type="line"/>
      <point x="730" y="124" type="line"/>
      <point x="730" y="370" type="line"/>
      <point x="668" y="370" type="line"/>
      <point x="493" y="125" type="line"/>
      <point x="493" y="85" type="line"/>
      <point x="676" y="85" type="line"/>
      <point x="676" y="0" type="line"/>
    </contour>
    <contour>
      <point x="672" y="313" type="line"/>
      <point x="672" y="124" type="line"/>
      <point x="537" y="124" type="line"/>
    </contour>
  </outline>
</glyph>
<glyph name="questiondown" format="1">
  <advance width="473"/>
  <unicode hex="00BF"/>
  <note>
	questiondown
  </note>
  <outline>
    <contour>
      <point x="292" y="-231"/>
      <point x="358" y="-202"/>
      <point x="396" y="-171" type="curve"/>
      <point x="396" y="-82" type="line" smooth="yes"/>
      <point x="396" y="-75"/>
      <point x="391" y="-70"/>
      <point x="380" y="-70" type="curve" smooth="yes"/>
      <point x="366" y="-70"/>
      <point x="359" y="-79"/>
      <point x="355" y="-98" type="curve" smooth="yes"/>
      <point x="346" y="-145" type="line"/>
      <point x="316" y="-168"/>
      <point x="271" y="-180"/>
      <point x="231" y="-180" type="curve" smooth="yes"/>
      <point x="167" y="-180"/>
      <point x="125" y="-145"/>
      <point x="125" y="-85" type="curve" smooth="yes"/>
      <point x="125" y="-25"/>
      <point x="158" y="11"/>
      <point x="195" y="47" type="curve" smooth="yes"/>
      <point x="246" y="97"/>
      <point x="276" y="133"/>
      <point x="276" y="211" type="curve" smooth="yes"/>
      <point x="276" y="323" type="line"/>
      <point x="209" y="323" type="line"/>
      <point x="209" y="226" type="line" smooth="yes"/>
      <point x="209" y="149"/>
      <point x="192" y="124"/>
      <point x="141" y="74" type="curve" smooth="yes"/>
      <point x="99" y="35"/>
      <point x="53" y="-11"/>
      <point x="53" y="-88" type="curve" smooth="yes"/>
      <point x="53" y="-181"/>
      <point x="122" y="-231"/>
      <point x="224" y="-231" type="curve" smooth="yes"/>
    </contour>
    <contour>
      <point x="268" y="396"/>
      <point x="289" y="414"/>
      <point x="289" y="442" type="curve" smooth="yes"/>
      <point x="289" y="471"/>
      <point x="268" y="489"/>
      <point x="243" y="489" type="curve" smooth="yes"/>
      <point x="217" y="489"/>
      <point x="196" y="471"/>
      <point x="196" y="442" type="curve" smooth="yes"/>
      <point x="196" y="414"/>
      <point x="217" y="396"/>
      <point x="243" y="396" type="curve" smooth="yes"/>
    </contour>
  </outline>
</glyph>
<glyph name="Agrave" format="1">
  <advance width="711"/>
  <unicode hex="00C0"/>
  <note>
	Agrave
  </note>
  <outline>
    <contour>
      <point x="397" y="781" type="line"/>
      <point x="310" y="927" type="line"/>
      <point x="250" y="888" type="line"/>
      <point x="352" y="752" type="line"/>
    </contour>
    <component base="A"/>
  </outline>
</glyph>
<glyph name="Aacute" format="1">
  <advance width="711"/>
  <unicode hex="00C1"/>
  <note>
	Aacute
  </note>
  <outline>
    <contour>
      <point x="451" y="887" type="line"/>
      <point x="391" y="926" type="line"/>
      <point x="304" y="780" type="line"/>
      <point x="349" y="751" type="line"/>
    </contour>
    <component base="A"/>
  </outline>
</glyph>
<glyph name="Acircumflex" format="1">
  <advance width="711"/>
  <unicode hex="00C2"/>
  <note>
	Acircumflex
  </note>
  <outline>
    <contour>
      <point x="347" y="850" type="line"/>
      <point x="438" y="751" type="line"/>
      <point x="475" y="781" type="line"/>
      <point x="368" y="917" type="line"/>
      <point x="326" y="917" type="line"/>
      <point x="219" y="781" type="line"/>
      <point x="256" y="751" type="line"/>
    </contour>
    <component base="A"/>
  </outline>
</glyph>
<glyph name="Atilde" format="1">
  <advance width="711"/>
  <unicode hex="00C3"/>
  <note>
	Atilde
  </note>
  <outline>
    <contour>
      <point x="441" y="762"/>
      <point x="475" y="781"/>
      <point x="502" y="807" type="curve"/>
      <point x="474" y="845" type="line"/>
      <point x="453" y="829"/>
      <point x="432" y="819"/>
      <point x="409" y="819" type="curve" smooth="yes"/>
      <point x="374" y="819"/>
      <point x="335" y="854"/>
      <point x="296" y="854" type="curve" smooth="yes"/>
      <point x="265" y="854"/>
      <point x="228" y="833"/>
      <point x="201" y="808" type="curve"/>
      <point x="229" y="771" type="line"/>
      <point x="250" y="786"/>
      <point x="270" y="797"/>
      <point x="295" y="797" type="curve" smooth="yes"/>
      <point x="335" y="797"/>
      <point x="367" y="762"/>
      <point x="410" y="762" type="curve" smooth="yes"/>
    </contour>
    <component base="A"/>
  </outline>
</glyph>
<glyph name="Adieresis" format="1">
  <advance width="711"/>
  <unicode hex="00C4"/>
  <note>
	Adieresis
  </note>
  <outline>
    <contour>
      <point x="472" y="762"/>
      <point x="494" y="782"/>
      <point x="494" y="811" type="curve" smooth="yes"/>
      <point x="494" y="839"/>
      <point x="472" y="859"/>
      <point x="446" y="859" type="curve" smooth="yes"/>
      <point x="419" y="859"/>
      <point x="397" y="839"/>
      <point x="397" y="811" type="curve" smooth="yes"/>
      <point x="397" y="782"/>
      <point x="419" y="762"/>
      <point x="446" y="762" type="curve" smooth="yes"/>
    </contour>
    <contour>
      <point x="280" y="762"/>
      <point x="302" y="782"/>
      <point x="302" y="811" type="curve" smooth="yes"/>
      <point x="302" y="839"/>
      <point x="280" y="859"/>
      <point x="254" y="859" type="curve" smooth="yes"/>
      <point x="227" y="859"/>
      <point x="205" y="839"/>
      <point x="205" y="811" type="curve" smooth="yes"/>
      <point x="205" y="782"/>
      <point x="227" y="762"/>
      <point x="254" y="762" type="curve" smooth="yes"/>
    </contour>
    <component base="A"/>
  </outline>
</glyph>
<glyph name="Aring" format="1">
  <advance width="711"/>
  <unicode hex="00C5"/>
  <note>
	Aring
  </note>
  <outline>
    <contour>
      <point x="408" y="740"/>
      <point x="443" y="779"/>
      <point x="443" y="827" type="curve" smooth="yes"/>
      <point x="443" y="874"/>
      <point x="408" y="914"/>
      <point x="351" y="914" type="curve" smooth="yes"/>
      <point x="294" y="914"/>
      <point x="259" y="874"/>
      <point x="259" y="827" type="curve" smooth="yes"/>
      <point x="259" y="779"/>
      <point x="294" y="740"/>
      <point x="351" y="740" type="curve" smooth="yes"/>
    </contour>
    <contour>
      <point x="325" y="780"/>
      <point x="305" y="796"/>
      <point x="305" y="827" type="curve" smooth="yes"/>
      <point x="305" y="857"/>
      <point x="325" y="873"/>
      <point x="351" y="873" type="curve" smooth="yes"/>
      <point x="376" y="873"/>
      <point x="396" y="857"/>
      <point x="396" y="827" type="curve" smooth="yes"/>
      <point x="396" y="796"/>
      <point x="376" y="780"/>
      <point x="351" y="780" type="curve" smooth="yes"/>
    </contour>
    <component base="A"/>
  </outline>
</glyph>
